Audiowide Mono-275.ufo
<glyph name="exclam" format="2">
	<advance width="750"/>
	<unicode hex="0021"/>
	<note>
		exclam
  </note>
	<outline>
		<contour>
			<point x="453" y="176" type="line"/>
			<point x="476" y="582"/>
			<point x="484" y="717" type="qcurve"/>
			<point x="371" y="717"/>
			<point x="333" y="717" type="qcurve"/>
			<point x="356" y="311"/>
			<point x="364" y="176" type="qcurve"/>
			<point x="431" y="176"/>
			<point x="453" y="176" type="qcurve"/>
		</contour>
		<contour>
			<point x="473" y="65" type="line"/>
			<point x="473" y="79"/>
			<point x="468" y="90" type="qcurve" smooth="yes"/>
			<point x="463" y="102"/>
			<point x="454" y="111" type="qcurve" smooth="yes"/>
			<point x="445" y="120"/>
			<point x="434" y="125" type="qcurve" smooth="yes"/>
			<point x="422" y="130"/>
			<point x="409" y="130" type="qcurve" smooth="yes"/>
			<point x="396" y="130"/>
			<point x="384" y="125" type="qcurve" smooth="yes"/>
			<point x="372" y="120"/>
			<point x="363" y="111" type="qcurve" smooth="yes"/>
			<point x="355" y="102"/>
			<point x="350" y="90" type="qcurve" smooth="yes"/>
			<point x="344" y="79"/>
			<point x="344" y="65" type="qcurve" smooth="yes"/>
			<point x="344" y="52"/>
			<point x="350" y="40" type="qcurve" smooth="yes"/>
			<point x="355" y="28"/>
			<point x="363" y="20" type="qcurve" smooth="yes"/>
			<point x="372" y="11"/>
			<point x="384" y="6" type="qcurve" smooth="yes"/>
			<point x="396" y="1"/>
			<point x="409" y="1" type="qcurve" smooth="yes"/>
			<point x="422" y="1"/>
			<point x="434" y="6" type="qcurve" smooth="yes"/>
			<point x="445" y="11"/>
			<point x="454" y="20" type="qcurve" smooth="yes"/>
			<point x="463" y="28"/>
			<point x="468" y="40" type="qcurve" smooth="yes"/>
			<point x="473" y="52"/>
			<point x="473" y="65" type="qcurve"/>
		</contour>
	</outline>
</glyph>
<glyph name="quotedbl" format="2">
	<advance width="750"/>
	<unicode hex="0022"/>
	<note>
		quotedbl
  </note>
	<outline>
		<contour>
			<point x="325" y="435" type="line"/>
			<point x="340" y="624"/>
			<point x="345" y="687" type="qcurve"/>
			<point x="254" y="687"/>
			<point x="223" y="687" type="qcurve"/>
			<point x="237" y="498"/>
			<point x="242" y="435" type="qcurve"/>
			<point x="304" y="435"/>
			<point x="325" y="435" type="qcurve"/>
		</contour>
		<contour>
			<point x="499" y="435" type="line"/>
			<point x="514" y="624"/>
			<point x="520" y="687" type="qcurve"/>
			<point x="428" y="687"/>
			<point x="397" y="687" type="qcurve"/>
			<point x="412" y="498"/>
			<point x="416" y="435" type="qcurve"/>
			<point x="478" y="435"/>
			<point x="499" y="435" type="qcurve"/>
		</contour>
	</outline>
</glyph>
<glyph name="numbersign" format="2">
	<advance width="750"/>
	<unicode hex="0023"/>
	<note>
		numbersign
  </note>
	<outline>
		<contour>
			<point x="120" y="522" type="line"/>
			<point x="99" y="435"/>
			<point x="92" y="405" type="qcurve"/>
			<point x="174" y="405"/>
			<point x="201" y="405" type="qcurve"/>
			<point x="181" y="314"/>
			<point x="175" y="284" type="qcurve"/>
			<point x="91" y="284"/>
			<point x="63" y="284" type="qcurve"/>
			<point x="42" y="196"/>
			<point x="36" y="167" type="qcurve"/>
			<point x="121" y="167"/>
			<point x="149" y="167" type="qcurve"/>
			<point x="122" y="42"/>
			<point x="112" y="0" type="qcurve"/>
			<point x="204" y="0"/>
			<point x="234" y="0" type="qcurve"/>
			<point x="262" y="125"/>
			<point x="271" y="167" type="qcurve"/>
			<point x="365" y="167"/>
			<point x="396" y="167" type="qcurve"/>
			<point x="368" y="42"/>
			<point x="359" y="0" type="qcurve"/>
			<point x="450" y="0"/>
			<point x="481" y="0" type="qcurve"/>
			<point x="509" y="125"/>
			<point x="518" y="167" type="qcurve"/>
			<point x="601" y="167"/>
			<point x="628" y="167" type="qcurve"/>
			<point x="648" y="254"/>
			<point x="654" y="284" type="qcurve"/>
			<point x="571" y="284"/>
			<point x="544" y="284" type="qcurve"/>
			<point x="563" y="375"/>
			<point x="570" y="405" type="qcurve"/>
			<point x="656" y="405"/>
			<point x="684" y="405" type="qcurve"/>
			<point x="704" y="493"/>
			<point x="711" y="522" type="qcurve"/>
			<point x="624" y="522"/>
			<point x="596" y="522" type="qcurve"/>
			<point x="623" y="646"/>
			<point x="632" y="687" type="qcurve"/>
			<point x="541" y="687"/>
			<point x="511" y="687" type="qcurve"/>
			<point x="483" y="563"/>
			<point x="474" y="522" type="qcurve"/>
			<point x="380" y="522"/>
			<point x="349" y="522" type="qcurve"/>
			<point x="376" y="646"/>
			<point x="385" y="687" type="qcurve"/>
			<point x="294" y="687"/>
			<point x="264" y="687" type="qcurve"/>
			<point x="236" y="563"/>
			<point x="227" y="522" type="qcurve"/>
			<point x="146" y="522"/>
			<point x="120" y="522" type="qcurve"/>
		</contour>
		<contour>
			<point x="296" y="284" type="line"/>
			<point x="316" y="375"/>
			<point x="323" y="405" type="qcurve"/>
			<point x="417" y="405"/>
			<point x="448" y="405" type="qcurve"/>
			<point x="428" y="314"/>
			<point x="421" y="284" type="qcurve"/>
			<point x="328" y="284"/>
			<point x="296" y="284" type="qcurve"/>
		</contour>
	</outline>
</glyph>
<glyph name="dollar" format="2">
	<advance width="750"/>
	<unicode hex="0024"/>
	<note>
		dollar
  </note>
	<outline>
		<contour>
			<point x="627" y="359" type="line"/>
			<point x="627" y="371"/>
			<point x="622" y="381" type="qcurve" smooth="yes"/>
			<point x="617" y="392"/>
			<point x="609" y="400" type="qcurve" smooth="yes"/>
			<point x="601" y="408"/>
			<point x="591" y="412" type="qcurve" smooth="yes"/>
			<point x="580" y="417"/>
			<point x="568" y="417" type="qcurve" smooth="yes"/>
			<point x="377" y="417"/>
			<point x="281" y="417" type="qcurve"/>
			<point x="287" y="436"/>
			<point x="294" y="448" type="qcurve" smooth="yes"/>
			<point x="302" y="460"/>
			<point x="310" y="466" type="qcurve" smooth="yes"/>
			<point x="318" y="472"/>
			<point x="325" y="474" type="qcurve" smooth="yes"/>
			<point x="332" y="476"/>
			<point x="335" y="476" type="qcurve" smooth="yes"/>
			<point x="510" y="476"/>
			<point x="568" y="476" type="qcurve"/>
			<point x="568" y="564"/>
			<point x="568" y="593" type="qcurve"/>
			<point x="480" y="593"/>
			<point x="451" y="593" type="qcurve"/>
			<point x="451" y="686"/>
			<point x="451" y="717" type="qcurve"/>
			<point x="363" y="717"/>
			<point x="333" y="717" type="qcurve"/>
			<point x="333" y="634"/>
			<point x="333" y="593" type="qcurve"/>
			<point x="331" y="593"/>
			<point x="322" y="592" type="qcurve" smooth="yes"/>
			<point x="312" y="592"/>
			<point x="300" y="588" type="qcurve" smooth="yes"/>
			<point x="287" y="585"/>
			<point x="271" y="578" type="qcurve" smooth="yes"/>
			<point x="256" y="572"/>
			<point x="240" y="559" type="qcurve" smooth="yes"/>
			<point x="225" y="548"/>
			<point x="211" y="532" type="qcurve" smooth="yes"/>
			<point x="196" y="516"/>
			<point x="184" y="491" type="qcurve" smooth="yes"/>
			<point x="172" y="467"/>
			<point x="165" y="434" type="qcurve" smooth="yes"/>
			<point x="157" y="401"/>
			<point x="157" y="359" type="qcurve" smooth="yes"/>
			<point x="157" y="346"/>
			<point x="162" y="335" type="qcurve" smooth="yes"/>
			<point x="167" y="324"/>
			<point x="175" y="316" type="qcurve" smooth="yes"/>
			<point x="183" y="309"/>
			<point x="193" y="304" type="qcurve" smooth="yes"/>
			<point x="204" y="300"/>
			<point x="216" y="300" type="qcurve" smooth="yes"/>
			<point x="407" y="300"/>
			<point x="503" y="300" type="qcurve"/>
			<point x="497" y="280"/>
			<point x="490" y="269" type="qcurve" smooth="yes"/>
			<point x="483" y="257"/>
			<point x="475" y="251" type="qcurve" smooth="yes"/>
			<point x="467" y="244"/>
			<point x="460" y="242" type="qcurve" smooth="yes"/>
			<point x="453" y="240"/>
			<point x="449" y="240" type="qcurve" smooth="yes"/>
			<point x="274" y="240"/>
			<point x="216" y="240" type="qcurve"/>
			<point x="216" y="153"/>
			<point x="216" y="124" type="qcurve"/>
			<point x="304" y="124"/>
			<point x="333" y="124" type="qcurve"/>
			<point x="333" y="31"/>
			<point x="333" y="0" type="qcurve"/>
			<point x="421" y="0"/>
			<point x="451" y="0" type="qcurve"/>
			<point x="451" y="83"/>
			<point x="451" y="124" type="qcurve"/>
			<point x="466" y="124"/>
			<point x="485" y="128" type="qcurve" smooth="yes"/>
			<point x="504" y="133"/>
			<point x="524" y="144" type="qcurve" smooth="yes"/>
			<point x="543" y="154"/>
			<point x="562" y="171" type="qcurve" smooth="yes"/>
			<point x="580" y="189"/>
			<point x="595" y="215" type="qcurve" smooth="yes"/>
			<point x="609" y="241"/>
			<point x="618" y="277" type="qcurve" smooth="yes"/>
			<point x="627" y="312"/>
			<point x="627" y="359" type="qcurve"/>
		</contour>
	</outline>
</glyph>
<glyph name="percent" format="2">
	<advance width="750"/>
	<unicode hex="0025"/>
	<note>
		percent
  </note>
	<outline>
		<contour>
			<point x="772" y="183" type="line"/>
			<point x="772" y="217"/>
			<point x="759" y="248" type="qcurve" smooth="yes"/>
			<point x="746" y="279"/>
			<point x="723" y="302" type="qcurve" smooth="yes"/>
			<point x="700" y="325"/>
			<point x="669" y="339" type="qcurve" smooth="yes"/>
			<point x="639" y="352"/>
			<point x="604" y="352" type="qcurve" smooth="yes"/>
			<point x="568" y="352"/>
			<point x="537" y="339" type="qcurve" smooth="yes"/>
			<point x="507" y="325"/>
			<point x="483" y="302" type="qcurve" smooth="yes"/>
			<point x="460" y="279"/>
			<point x="447" y="248" type="qcurve" smooth="yes"/>
			<point x="433" y="217"/>
			<point x="433" y="183" type="qcurve" smooth="yes"/>
			<point x="433" y="148"/>
			<point x="447" y="117" type="qcurve" smooth="yes"/>
			<point x="460" y="86"/>
			<point x="483" y="63" type="qcurve" smooth="yes"/>
			<point x="507" y="40"/>
			<point x="537" y="27" type="qcurve" smooth="yes"/>
			<point x="568" y="13"/>
			<point x="604" y="13" type="qcurve" smooth="yes"/>
			<point x="639" y="13"/>
			<point x="669" y="27" type="qcurve" smooth="yes"/>
			<point x="700" y="40"/>
			<point x="723" y="63" type="qcurve" smooth="yes"/>
			<point x="746" y="86"/>
			<point x="759" y="117" type="qcurve" smooth="yes"/>
			<point x="772" y="148"/>
			<point x="772" y="183" type="qcurve"/>
		</contour>
		<contour>
			<point x="648" y="652" type="line"/>
			<point x="559" y="652"/>
			<point x="529" y="652" type="qcurve"/>
			<point x="252" y="167"/>
			<point x="160" y="6" type="qcurve"/>
			<point x="250" y="6"/>
			<point x="280" y="6" type="qcurve"/>
			<point x="556" y="490"/>
			<point x="648" y="652" type="qcurve"/>
		</contour>
		<contour>
			<point x="384" y="476" type="line"/>
			<point x="384" y="511"/>
			<point x="370" y="542" type="qcurve" smooth="yes"/>
			<point x="357" y="572"/>
			<point x="333" y="596" type="qcurve" smooth="yes"/>
			<point x="311" y="619"/>
			<point x="280" y="632" type="qcurve" smooth="yes"/>
			<point x="248" y="645"/>
			<point x="213" y="645" type="qcurve" smooth="yes"/>
			<point x="179" y="645"/>
			<point x="148" y="632" type="qcurve" smooth="yes"/>
			<point x="117" y="619"/>
			<point x="94" y="596" type="qcurve" smooth="yes"/>
			<point x="71" y="572"/>
			<point x="58" y="542" type="qcurve" smooth="yes"/>
			<point x="44" y="511"/>
			<point x="44" y="476" type="qcurve" smooth="yes"/>
			<point x="44" y="440"/>
			<point x="58" y="410" type="qcurve" smooth="yes"/>
			<point x="71" y="379"/>
			<point x="94" y="356" type="qcurve" smooth="yes"/>
			<point x="117" y="332"/>
			<point x="148" y="319" type="qcurve" smooth="yes"/>
			<point x="179" y="306"/>
			<point x="213" y="306" type="qcurve" smooth="yes"/>
			<point x="248" y="306"/>
			<point x="280" y="319" type="qcurve" smooth="yes"/>
			<point x="311" y="332"/>
			<point x="333" y="356" type="qcurve" smooth="yes"/>
			<point x="357" y="379"/>
			<point x="370" y="410" type="qcurve" smooth="yes"/>
			<point x="384" y="440"/>
			<point x="384" y="476" type="qcurve"/>
		</contour>
		<contour>
			<point x="668" y="183" type="line"/>
			<point x="668" y="169"/>
			<point x="663" y="157" type="qcurve" smooth="yes"/>
			<point x="658" y="145"/>
			<point x="649" y="136" type="qcurve" smooth="yes"/>
			<point x="640" y="128"/>
			<point x="629" y="123" type="qcurve" smooth="yes"/>
			<point x="617" y="118"/>
			<point x="604" y="118" type="qcurve" smooth="yes"/>
			<point x="590" y="118"/>
			<point x="578" y="123" type="qcurve" smooth="yes"/>
			<point x="566" y="128"/>
			<point x="557" y="136" type="qcurve" smooth="yes"/>
			<point x="548" y="145"/>
			<point x="543" y="157" type="qcurve" smooth="yes"/>
			<point x="538" y="169"/>
			<point x="538" y="183" type="qcurve" smooth="yes"/>
			<point x="538" y="196"/>
			<point x="543" y="208" type="qcurve" smooth="yes"/>
			<point x="548" y="220"/>
			<point x="557" y="228" type="qcurve" smooth="yes"/>
			<point x="566" y="237"/>
			<point x="578" y="243" type="qcurve" smooth="yes"/>
			<point x="590" y="248"/>
			<point x="604" y="248" type="qcurve" smooth="yes"/>
			<point x="617" y="248"/>
			<point x="629" y="243" type="qcurve" smooth="yes"/>
			<point x="640" y="237"/>
			<point x="649" y="228" type="qcurve" smooth="yes"/>
			<point x="658" y="220"/>
			<point x="663" y="208" type="qcurve" smooth="yes"/>
			<point x="668" y="196"/>
			<point x="668" y="183" type="qcurve"/>
		</contour>
		<contour>
			<point x="279" y="476" type="line"/>
			<point x="279" y="463"/>
			<point x="274" y="451" type="qcurve" smooth="yes"/>
			<point x="269" y="439"/>
			<point x="260" y="429" type="qcurve" smooth="yes"/>
			<point x="252" y="420"/>
			<point x="240" y="416" type="qcurve" smooth="yes"/>
			<point x="228" y="411"/>
			<point x="213" y="411" type="qcurve" smooth="yes"/>
			<point x="200" y="411"/>
			<point x="188" y="416" type="qcurve" smooth="yes"/>
			<point x="176" y="420"/>
			<point x="168" y="429" type="qcurve" smooth="yes"/>
			<point x="159" y="439"/>
			<point x="154" y="451" type="qcurve" smooth="yes"/>
			<point x="149" y="463"/>
			<point x="149" y="476" type="qcurve" smooth="yes"/>
			<point x="149" y="489"/>
			<point x="154" y="501" type="qcurve" smooth="yes"/>
			<point x="159" y="513"/>
			<point x="168" y="521" type="qcurve"/>
			<point x="176" y="531"/>
			<point x="188" y="536" type="qcurve" smooth="yes"/>
			<point x="200" y="540"/>
			<point x="213" y="540" type="qcurve" smooth="yes"/>
			<point x="228" y="540"/>
			<point x="240" y="536" type="qcurve" smooth="yes"/>
			<point x="252" y="531"/>
			<point x="260" y="521" type="qcurve"/>
			<point x="269" y="513"/>
			<point x="274" y="501" type="qcurve" smooth="yes"/>
			<point x="279" y="489"/>
			<point x="279" y="476" type="qcurve"/>
		</contour>
	</outline>
</glyph>
<glyph name="ampersand" format="2">
	<advance width="750"/>
	<unicode hex="0026"/>
	<note>
		ampersand
  </note>
	<outline>
		<contour>
			<point x="709" y="183" type="line"/>
			<point x="709" y="271"/>
			<point x="709" y="300" type="qcurve"/>
			<point x="670" y="300"/>
			<point x="650" y="300" type="qcurve" smooth="yes"/>
			<point x="621" y="300"/>
			<point x="600" y="290" type="qcurve" smooth="yes"/>
			<point x="578" y="280"/>
			<point x="563" y="263" type="qcurve" smooth="yes"/>
			<point x="548" y="246"/>
			<point x="540" y="225" type="qcurve" smooth="yes"/>
			<point x="533" y="204"/>
			<point x="533" y="183" type="qcurve" smooth="yes"/>
			<point x="533" y="157"/>
			<point x="517" y="140" type="qcurve" smooth="yes"/>
			<point x="501" y="124"/>
			<point x="474" y="124" type="qcurve" smooth="yes"/>
			<point x="357" y="124"/>
			<point x="299" y="124" type="qcurve" smooth="yes"/>
			<point x="273" y="124"/>
			<point x="257" y="141" type="qcurve" smooth="yes"/>
			<point x="240" y="157"/>
			<point x="240" y="184" type="qcurve" smooth="yes"/>
			<point x="240" y="222"/>
			<point x="240" y="240" type="qcurve" smooth="yes"/>
			<point x="240" y="266"/>
			<point x="256" y="283" type="qcurve" smooth="yes"/>
			<point x="271" y="300"/>
			<point x="299" y="300" type="qcurve" smooth="yes"/>
			<point x="431" y="300"/>
			<point x="475" y="300" type="qcurve"/>
			<point x="475" y="388"/>
			<point x="475" y="417" type="qcurve"/>
			<point x="357" y="417"/>
			<point x="299" y="417" type="qcurve" smooth="yes"/>
			<point x="272" y="417"/>
			<point x="256" y="432" type="qcurve" smooth="yes"/>
			<point x="240" y="448"/>
			<point x="240" y="476" type="qcurve" smooth="yes"/>
			<point x="240" y="488"/>
			<point x="244" y="499" type="qcurve" smooth="yes"/>
			<point x="248" y="510"/>
			<point x="256" y="518" type="qcurve" smooth="yes"/>
			<point x="264" y="526"/>
			<point x="274" y="530" type="qcurve" smooth="yes"/>
			<point x="285" y="535"/>
			<point x="299" y="535" type="qcurve" smooth="yes"/>
			<point x="518" y="535"/>
			<point x="592" y="535" type="qcurve"/>
			<point x="592" y="622"/>
			<point x="592" y="652" type="qcurve"/>
			<point x="396" y="652"/>
			<point x="299" y="652" type="qcurve" smooth="yes"/>
			<point x="272" y="652"/>
			<point x="241" y="642" type="qcurve" smooth="yes"/>
			<point x="211" y="633"/>
			<point x="184" y="612" type="qcurve" smooth="yes"/>
			<point x="157" y="592"/>
			<point x="140" y="558" type="qcurve" smooth="yes"/>
			<point x="123" y="524"/>
			<point x="123" y="476" type="qcurve" smooth="yes"/>
			<point x="123" y="448"/>
			<point x="132" y="417" type="qcurve" smooth="yes"/>
			<point x="142" y="385"/>
			<point x="164" y="359" type="qcurve"/>
			<point x="145" y="337"/>
			<point x="134" y="309" type="qcurve" smooth="yes"/>
			<point x="123" y="280"/>
			<point x="123" y="240" type="qcurve" smooth="yes"/>
			<point x="123" y="200"/>
			<point x="123" y="180" type="qcurve" smooth="yes"/>
			<point x="124" y="154"/>
			<point x="134" y="123" type="qcurve" smooth="yes"/>
			<point x="144" y="93"/>
			<point x="165" y="67" type="qcurve" smooth="yes"/>
			<point x="187" y="41"/>
			<point x="219" y="24" type="qcurve" smooth="yes"/>
			<point x="252" y="6"/>
			<point x="299" y="6" type="qcurve" smooth="yes"/>
			<point x="416" y="6"/>
			<point x="475" y="6" type="qcurve" smooth="yes"/>
			<point x="492" y="6"/>
			<point x="512" y="10" type="qcurve" smooth="yes"/>
			<point x="532" y="14"/>
			<point x="551" y="23" type="qcurve" smooth="yes"/>
			<point x="571" y="32"/>
			<point x="589" y="46" type="qcurve" smooth="yes"/>
			<point x="607" y="60"/>
			<point x="620" y="79" type="qcurve" smooth="yes"/>
			<point x="633" y="98"/>
			<point x="642" y="123" type="qcurve" smooth="yes"/>
			<point x="650" y="149"/>
			<point x="650" y="181" type="qcurve"/>
			<point x="651" y="182"/>
			<point x="651" y="183" type="qcurve"/>
			<point x="695" y="183"/>
			<point x="709" y="183" type="qcurve"/>
		</contour>
	</outline>
</glyph>
<glyph name="quotesingle" format="2">
	<advance width="750"/>
	<unicode hex="0027"/>
	<note>
		quotesingle
  </note>
	<outline>
		<contour>
			<point x="365" y="435" type="line"/>
			<point x="380" y="624"/>
			<point x="385" y="687" type="qcurve"/>
			<point x="294" y="687"/>
			<point x="263" y="687" type="qcurve"/>
			<point x="277" y="498"/>
			<point x="282" y="435" type="qcurve"/>
			<point x="344" y="435"/>
			<point x="365" y="435" type="qcurve"/>
		</contour>
	</outline>
</glyph>
<glyph name="parenleft" format="2">
	<advance width="750"/>
	<unicode hex="0028"/>
	<note>
		parenleft
  </note>
	<outline>
		<contour>
			<point x="600" y="828" type="line"/>
			<point x="480" y="828"/>
			<point x="420" y="828" type="qcurve"/>
			<point x="403" y="807"/>
			<point x="380" y="777" type="qcurve" smooth="yes"/>
			<point x="357" y="748"/>
			<point x="333" y="712" type="qcurve" smooth="yes"/>
			<point x="310" y="676"/>
			<point x="288" y="635" type="qcurve" smooth="yes"/>
			<point x="265" y="593"/>
			<point x="248" y="548" type="qcurve" smooth="yes"/>
			<point x="230" y="503"/>
			<point x="219" y="455" type="qcurve" smooth="yes"/>
			<point x="208" y="408"/>
			<point x="208" y="359" type="qcurve" smooth="yes"/>
			<point x="208" y="309"/>
			<point x="219" y="262" type="qcurve" smooth="yes"/>
			<point x="230" y="214"/>
			<point x="248" y="168" type="qcurve" smooth="yes"/>
			<point x="265" y="124"/>
			<point x="288" y="82" type="qcurve" smooth="yes"/>
			<point x="310" y="41"/>
			<point x="333" y="5" type="qcurve" smooth="yes"/>
			<point x="357" y="-31"/>
			<point x="380" y="-60" type="qcurve" smooth="yes"/>
			<point x="403" y="-89"/>
			<point x="420" y="-111" type="qcurve"/>
			<point x="555" y="-111"/>
			<point x="600" y="-111" type="qcurve"/>
			<point x="570" y="-80"/>
			<point x="555" y="-64" type="qcurve"/>
			<point x="554" y="-64"/>
			<point x="538" y="-47" type="qcurve" smooth="yes"/>
			<point x="521" y="-29"/>
			<point x="497" y="0" type="qcurve" smooth="yes"/>
			<point x="473" y="31"/>
			<point x="446" y="71" type="qcurve" smooth="yes"/>
			<point x="418" y="112"/>
			<point x="394" y="158" type="qcurve" smooth="yes"/>
			<point x="370" y="205"/>
			<point x="354" y="256" type="qcurve" smooth="yes"/>
			<point x="339" y="307"/>
			<point x="339" y="359" type="qcurve" smooth="yes"/>
			<point x="339" y="409"/>
			<point x="354" y="461" type="qcurve" smooth="yes"/>
			<point x="370" y="512"/>
			<point x="394" y="559" type="qcurve" smooth="yes"/>
			<point x="418" y="605"/>
			<point x="446" y="646" type="qcurve" smooth="yes"/>
			<point x="473" y="687"/>
			<point x="497" y="716" type="qcurve" smooth="yes"/>
			<point x="521" y="747"/>
			<point x="538" y="764" type="qcurve" smooth="yes"/>
			<point x="554" y="781"/>
			<point x="555" y="781" type="qcurve"/>
			<point x="589" y="816"/>
			<point x="600" y="828" type="qcurve"/>
		</contour>
	</outline>
</glyph>
<glyph name="parenright" format="2">
	<advance width="750"/>
	<unicode hex="0029"/>
	<note>
		parenright
  </note>
	<outline>
		<contour>
			<point x="569" y="359" type="line"/>
			<point x="569" y="408"/>
			<point x="558" y="455" type="qcurve" smooth="yes"/>
			<point x="548" y="503"/>
			<point x="530" y="548" type="qcurve" smooth="yes"/>
			<point x="512" y="593"/>
			<point x="490" y="635" type="qcurve" smooth="yes"/>
			<point x="468" y="676"/>
			<point x="444" y="712" type="qcurve" smooth="yes"/>
			<point x="420" y="748"/>
			<point x="398" y="777" type="qcurve" smooth="yes"/>
			<point x="375" y="807"/>
			<point x="357" y="828" type="qcurve"/>
			<point x="222" y="828"/>
			<point x="177" y="828" type="qcurve"/>
			<point x="208" y="797"/>
			<point x="223" y="781" type="qcurve"/>
			<point x="224" y="781"/>
			<point x="240" y="764" type="qcurve" smooth="yes"/>
			<point x="256" y="747"/>
			<point x="280" y="716" type="qcurve" smooth="yes"/>
			<point x="304" y="687"/>
			<point x="331" y="646" type="qcurve" smooth="yes"/>
			<point x="359" y="605"/>
			<point x="383" y="559" type="qcurve" smooth="yes"/>
			<point x="407" y="512"/>
			<point x="422" y="461" type="qcurve" smooth="yes"/>
			<point x="438" y="409"/>
			<point x="438" y="359" type="qcurve" smooth="yes"/>
			<point x="438" y="308"/>
			<point x="422" y="256" type="qcurve" smooth="yes"/>
			<point x="407" y="205"/>
			<point x="383" y="158" type="qcurve" smooth="yes"/>
			<point x="359" y="112"/>
			<point x="331" y="71" type="qcurve" smooth="yes"/>
			<point x="304" y="31"/>
			<point x="280" y="0" type="qcurve" smooth="yes"/>
			<point x="256" y="-29"/>
			<point x="240" y="-47" type="qcurve" smooth="yes"/>
			<point x="224" y="-64"/>
			<point x="223" y="-64" type="qcurve"/>
			<point x="188" y="-99"/>
			<point x="177" y="-111" type="qcurve"/>
			<point x="297" y="-111"/>
			<point x="357" y="-111" type="qcurve"/>
			<point x="375" y="-89"/>
			<point x="398" y="-60" type="qcurve" smooth="yes"/>
			<point x="420" y="-31"/>
			<point x="444" y="5" type="qcurve" smooth="yes"/>
			<point x="468" y="41"/>
			<point x="490" y="82" type="qcurve" smooth="yes"/>
			<point x="512" y="124"/>
			<point x="530" y="168" type="qcurve" smooth="yes"/>
			<point x="548" y="214"/>
			<point x="558" y="262" type="qcurve" smooth="yes"/>
			<point x="569" y="309"/>
			<point x="569" y="359" type="qcurve"/>
		</contour>
	</outline>
</glyph>
<glyph name="asterisk" format="2">
	<advance width="750"/>
	<unicode hex="002A"/>
	<note>
		asterisk
  </note>
	<outline>
		<contour>
			<point x="346" y="588" type="line"/>
			<point x="271" y="642"/>
			<point x="247" y="660" type="qcurve"/>
			<point x="201" y="596"/>
			<point x="186" y="575" type="qcurve"/>
			<point x="277" y="509"/>
			<point x="308" y="487" type="qcurve"/>
			<point x="216" y="421"/>
			<point x="186" y="399" type="qcurve"/>
			<point x="231" y="335"/>
			<point x="247" y="313" type="qcurve"/>
			<point x="321" y="366"/>
			<point x="346" y="384" type="qcurve"/>
			<point x="346" y="288"/>
			<point x="346" y="256" type="qcurve"/>
			<point x="424" y="256"/>
			<point x="451" y="256" type="qcurve"/>
			<point x="451" y="352"/>
			<point x="451" y="384" type="qcurve"/>
			<point x="524" y="331"/>
			<point x="548" y="313" type="qcurve"/>
			<point x="595" y="377"/>
			<point x="610" y="399" type="qcurve"/>
			<point x="518" y="465"/>
			<point x="488" y="487" type="qcurve"/>
			<point x="579" y="553"/>
			<point x="610" y="575" type="qcurve"/>
			<point x="564" y="638"/>
			<point x="548" y="660" type="qcurve"/>
			<point x="475" y="607"/>
			<point x="451" y="589" type="qcurve"/>
			<point x="451" y="685"/>
			<point x="451" y="717" type="qcurve"/>
			<point x="372" y="717"/>
			<point x="346" y="717" type="qcurve"/>
			<point x="346" y="620"/>
			<point x="346" y="588" type="qcurve"/>
		</contour>
	</outline>
</glyph>
<glyph name="plus" format="2">
	<advance width="750"/>
	<unicode hex="002B"/>
	<note>
		plus
  </note>
	<outline>
		<contour>
			<point x="617" y="300" type="line"/>
			<point x="617" y="388"/>
			<point x="617" y="417" type="qcurve"/>
			<point x="265" y="417"/>
			<point x="148" y="417" type="qcurve"/>
			<point x="148" y="329"/>
			<point x="148" y="300" type="qcurve"/>
			<point x="500" y="300"/>
			<point x="617" y="300" type="qcurve"/>
		</contour>
		<contour>
			<point x="441" y="593" type="line"/>
			<point x="353" y="593"/>
			<point x="324" y="593" type="qcurve"/>
			<point x="324" y="241"/>
			<point x="324" y="124" type="qcurve"/>
			<point x="412" y="124"/>
			<point x="441" y="124" type="qcurve"/>
			<point x="441" y="476"/>
			<point x="441" y="593" type="qcurve"/>
		</contour>
	</outline>
</glyph>
<glyph name="comma" format="2">
	<advance width="750"/>
	<unicode hex="002C"/>
	<note>
		comma
  </note>
	<outline>
		<contour>
			<point x="304" y="-112" type="line"/>
			<point x="370" y="92"/>
			<point x="392" y="160" type="qcurve"/>
			<point x="281" y="160"/>
			<point x="244" y="160" type="qcurve"/>
			<point x="202" y="-44"/>
			<point x="188" y="-112" type="qcurve"/>
			<point x="275" y="-112"/>
			<point x="304" y="-112" type="qcurve"/>
		</contour>
	</outline>
</glyph>
<glyph name="hyphen" format="2">
	<advance width="750"/>
	<unicode hex="002D"/>
	<note>
		hyphen
  </note>
	<outline>
		<contour>
			<point x="782" y="300" type="line"/>
			<point x="782" y="388"/>
			<point x="782" y="417" type="qcurve"/>
			<point x="168" y="417"/>
			<point x="-37" y="417" type="qcurve"/>
			<point x="-37" y="329"/>
			<point x="-37" y="300" type="qcurve"/>
			<point x="577" y="300"/>
			<point x="782" y="300" type="qcurve"/>
		</contour>
	</outline>
</glyph>
<glyph name="period" format="2">
	<advance width="750"/>
	<unicode hex="002E"/>
	<note>
		period
  </note>
	<outline>
		<contour>
			<point x="485" y="100" type="line"/>
			<point x="485" y="120"/>
			<point x="477" y="138" type="qcurve" smooth="yes"/>
			<point x="469" y="155"/>
			<point x="456" y="168" type="qcurve" smooth="yes"/>
			<point x="443" y="181"/>
			<point x="426" y="189" type="qcurve" smooth="yes"/>
			<point x="408" y="197"/>
			<point x="388" y="197" type="qcurve" smooth="yes"/>
			<point x="368" y="197"/>
			<point x="350" y="189" type="qcurve" smooth="yes"/>
			<point x="333" y="181"/>
			<point x="320" y="168" type="qcurve" smooth="yes"/>
			<point x="307" y="155"/>
			<point x="300" y="138" type="qcurve" smooth="yes"/>
			<point x="292" y="120"/>
			<point x="292" y="100" type="qcurve" smooth="yes"/>
			<point x="292" y="80"/>
			<point x="300" y="62" type="qcurve" smooth="yes"/>
			<point x="307" y="45"/>
			<point x="320" y="32" type="qcurve" smooth="yes"/>
			<point x="333" y="19"/>
			<point x="350" y="12" type="qcurve" smooth="yes"/>
			<point x="368" y="4"/>
			<point x="388" y="4" type="qcurve" smooth="yes"/>
			<point x="408" y="4"/>
			<point x="426" y="12" type="qcurve" smooth="yes"/>
			<point x="443" y="19"/>
			<point x="456" y="32" type="qcurve" smooth="yes"/>
			<point x="469" y="45"/>
			<point x="477" y="62" type="qcurve" smooth="yes"/>
			<point x="485" y="80"/>
			<point x="485" y="100" type="qcurve"/>
		</contour>
	</outline>
</glyph>
<glyph name="slash" format="2">
	<advance width="750"/>
	<unicode hex="002F"/>
	<note>
		slash
  </note>
	<outline>
		<contour>
			<point x="680" y="717" type="line"/>
			<point x="575" y="717"/>
			<point x="540" y="717" type="qcurve"/>
			<point x="201" y="179"/>
			<point x="88" y="0" type="qcurve"/>
			<point x="192" y="0"/>
			<point x="227" y="0" type="qcurve"/>
			<point x="566" y="538"/>
			<point x="680" y="717" type="qcurve"/>
		</contour>
	</outline>
</glyph>
<glyph name="zero" format="2">
	<advance width="750"/>
	<unicode hex="0030"/>
	<note>
		zero
  </note>
	<outline>
		<contour>
			<point x="727" y="300" type="line"/>
			<point x="727" y="378"/>
			<point x="727" y="417" type="qcurve" smooth="yes"/>
			<point x="727" y="461"/>
			<point x="715" y="500" type="qcurve" smooth="yes"/>
			<point x="704" y="540"/>
			<point x="684" y="573" type="qcurve" smooth="yes"/>
			<point x="663" y="607"/>
			<point x="635" y="633" type="qcurve" smooth="yes"/>
			<point x="607" y="660"/>
			<point x="573" y="678" type="qcurve" smooth="yes"/>
			<point x="540" y="697"/>
			<point x="503" y="707" type="qcurve" smooth="yes"/>
			<point x="465" y="717"/>
			<point x="427" y="717" type="qcurve" smooth="yes"/>
			<point x="380" y="717"/>
			<point x="357" y="717" type="qcurve" smooth="yes"/>
			<point x="298" y="717"/>
			<point x="244" y="695" type="qcurve" smooth="yes"/>
			<point x="189" y="672"/>
			<point x="148" y="632" type="qcurve" smooth="yes"/>
			<point x="107" y="593"/>
			<point x="82" y="538" type="qcurve" smooth="yes"/>
			<point x="57" y="483"/>
			<point x="57" y="417" type="qcurve" smooth="yes"/>
			<point x="57" y="339"/>
			<point x="57" y="300" type="qcurve" smooth="yes"/>
			<point x="57" y="256"/>
			<point x="68" y="217" type="qcurve" smooth="yes"/>
			<point x="80" y="177"/>
			<point x="100" y="144" type="qcurve" smooth="yes"/>
			<point x="120" y="111"/>
			<point x="148" y="84" type="qcurve" smooth="yes"/>
			<point x="176" y="57"/>
			<point x="209" y="39" type="qcurve" smooth="yes"/>
			<point x="243" y="20"/>
			<point x="280" y="10" type="qcurve" smooth="yes"/>
			<point x="317" y="0"/>
			<point x="357" y="0" type="qcurve" smooth="yes"/>
			<point x="403" y="0"/>
			<point x="427" y="0" type="qcurve" smooth="yes"/>
			<point x="465" y="0"/>
			<point x="503" y="10" type="qcurve" smooth="yes"/>
			<point x="540" y="20"/>
			<point x="573" y="39" type="qcurve" smooth="yes"/>
			<point x="607" y="57"/>
			<point x="635" y="84" type="qcurve" smooth="yes"/>
			<point x="663" y="111"/>
			<point x="684" y="144" type="qcurve" smooth="yes"/>
			<point x="704" y="177"/>
			<point x="715" y="217" type="qcurve" smooth="yes"/>
			<point x="727" y="256"/>
			<point x="727" y="300" type="qcurve"/>
		</contour>
		<contour>
			<point x="596" y="417" type="line"/>
			<point x="596" y="339"/>
			<point x="596" y="300" type="qcurve" smooth="yes"/>
			<point x="596" y="263"/>
			<point x="584" y="232" type="qcurve" smooth="yes"/>
			<point x="572" y="200"/>
			<point x="549" y="178" type="qcurve" smooth="yes"/>
			<point x="528" y="156"/>
			<point x="496" y="143" type="qcurve" smooth="yes"/>
			<point x="465" y="130"/>
			<point x="427" y="130" type="qcurve" smooth="yes"/>
			<point x="380" y="130"/>
			<point x="357" y="130" type="qcurve" smooth="yes"/>
			<point x="322" y="130"/>
			<point x="293" y="141" type="qcurve" smooth="yes"/>
			<point x="262" y="153"/>
			<point x="239" y="176" type="qcurve" smooth="yes"/>
			<point x="215" y="198"/>
			<point x="201" y="230" type="qcurve" smooth="yes"/>
			<point x="187" y="261"/>
			<point x="187" y="300" type="qcurve" smooth="yes"/>
			<point x="187" y="378"/>
			<point x="187" y="417" type="qcurve" smooth="yes"/>
			<point x="187" y="456"/>
			<point x="201" y="488" type="qcurve" smooth="yes"/>
			<point x="216" y="520"/>
			<point x="239" y="542" type="qcurve" smooth="yes"/>
			<point x="263" y="564"/>
			<point x="294" y="576" type="qcurve" smooth="yes"/>
			<point x="323" y="587"/>
			<point x="357" y="587" type="qcurve" smooth="yes"/>
			<point x="403" y="587"/>
			<point x="427" y="587" type="qcurve" smooth="yes"/>
			<point x="461" y="587"/>
			<point x="491" y="576" type="qcurve" smooth="yes"/>
			<point x="521" y="564"/>
			<point x="544" y="541" type="qcurve" smooth="yes"/>
			<point x="568" y="519"/>
			<point x="582" y="487" type="qcurve" smooth="yes"/>
			<point x="596" y="456"/>
			<point x="596" y="417" type="qcurve"/>
		</contour>
		<contour>
			<point x="529" y="497" type="line"/>
			<point x="521" y="508"/>
			<point x="511" y="515" type="qcurve" smooth="yes"/>
			<point x="500" y="522"/>
			<point x="488" y="524" type="qcurve" smooth="yes"/>
			<point x="476" y="527"/>
			<point x="463" y="524" type="qcurve" smooth="yes"/>
			<point x="444" y="521"/>
			<point x="439" y="515" type="qcurve" smooth="yes"/>
			<point x="328" y="378"/>
			<point x="272" y="310" type="qcurve"/>
			<point x="255" y="293"/>
			<point x="253" y="292" type="qcurve"/>
			<point x="246" y="283"/>
			<point x="244" y="269" type="qcurve" smooth="yes"/>
			<point x="243" y="255"/>
			<point x="244" y="244" type="qcurve" smooth="yes"/>
			<point x="247" y="231"/>
			<point x="255" y="220" type="qcurve" smooth="yes"/>
			<point x="264" y="206"/>
			<point x="278" y="199" type="qcurve" smooth="yes"/>
			<point x="292" y="191"/>
			<point x="308" y="191" type="qcurve" smooth="yes"/>
			<point x="318" y="191"/>
			<point x="327" y="193" type="qcurve" smooth="yes"/>
			<point x="340" y="197"/>
			<point x="344" y="203" type="qcurve" smooth="yes"/>
			<point x="455" y="339"/>
			<point x="511" y="407" type="qcurve"/>
			<point x="529" y="425"/>
			<point x="529" y="425" type="qcurve"/>
			<point x="536" y="432"/>
			<point x="539" y="448" type="qcurve" smooth="yes"/>
			<point x="541" y="460"/>
			<point x="539" y="473" type="qcurve" smooth="yes"/>
			<point x="536" y="486"/>
			<point x="529" y="497" type="qcurve"/>
		</contour>
	</outline>
</glyph>
<glyph name="one" format="2">
	<advance width="750"/>
	<unicode hex="0031"/>
	<note>
		one
  </note>
	<outline>
		<contour>
			<point x="528" y="0" type="line"/>
			<point x="528" y="538"/>
			<point x="528" y="717" type="qcurve"/>
			<point x="342" y="717"/>
			<point x="280" y="717" type="qcurve"/>
			<point x="280" y="620"/>
			<point x="280" y="587" type="qcurve"/>
			<point x="369" y="587"/>
			<point x="398" y="587" type="qcurve"/>
			<point x="398" y="147"/>
			<point x="398" y="0" type="qcurve"/>
			<point x="496" y="0"/>
			<point x="528" y="0" type="qcurve"/>
		</contour>
	</outline>
</glyph>
<glyph name="two" format="2">
	<advance width="750"/>
	<unicode hex="0032"/>
	<note>
		two
  </note>
	<outline>
		<contour>
			<point x="701" y="0" type="line"/>
			<point x="701" y="97"/>
			<point x="701" y="130" type="qcurve"/>
			<point x="313" y="130"/>
			<point x="183" y="130" type="qcurve"/>
			<point x="183" y="204"/>
			<point x="183" y="240" type="qcurve" smooth="yes"/>
			<point x="183" y="244"/>
			<point x="187" y="260" type="qcurve" smooth="yes"/>
			<point x="189" y="269"/>
			<point x="195" y="276" type="qcurve" smooth="yes"/>
			<point x="200" y="284"/>
			<point x="210" y="288" type="qcurve" smooth="yes"/>
			<point x="219" y="293"/>
			<point x="235" y="293" type="qcurve" smooth="yes"/>
			<point x="424" y="293"/>
			<point x="519" y="293" type="qcurve" smooth="yes"/>
			<point x="547" y="293"/>
			<point x="578" y="303" type="qcurve" smooth="yes"/>
			<point x="610" y="312"/>
			<point x="637" y="334" type="qcurve" smooth="yes"/>
			<point x="665" y="356"/>
			<point x="683" y="391" type="qcurve" smooth="yes"/>
			<point x="701" y="425"/>
			<point x="701" y="476" type="qcurve" smooth="yes"/>
			<point x="701" y="515"/>
			<point x="701" y="535" type="qcurve" smooth="yes"/>
			<point x="701" y="552"/>
			<point x="697" y="573" type="qcurve" smooth="yes"/>
			<point x="693" y="594"/>
			<point x="684" y="614" type="qcurve" smooth="yes"/>
			<point x="675" y="635"/>
			<point x="660" y="653" type="qcurve" smooth="yes"/>
			<point x="645" y="672"/>
			<point x="625" y="685" type="qcurve" smooth="yes"/>
			<point x="605" y="700"/>
			<point x="578" y="708" type="qcurve" smooth="yes"/>
			<point x="552" y="717"/>
			<point x="519" y="717" type="qcurve" smooth="yes"/>
			<point x="213" y="717"/>
			<point x="112" y="717" type="qcurve"/>
			<point x="112" y="620"/>
			<point x="112" y="587" type="qcurve"/>
			<point x="383" y="587"/>
			<point x="519" y="587" type="qcurve" smooth="yes"/>
			<point x="544" y="587"/>
			<point x="557" y="574" type="qcurve" smooth="yes"/>
			<point x="570" y="560"/>
			<point x="570" y="533" type="qcurve" smooth="yes"/>
			<point x="570" y="495"/>
			<point x="570" y="476" type="qcurve" smooth="yes"/>
			<point x="570" y="451"/>
			<point x="557" y="437" type="qcurve" smooth="yes"/>
			<point x="544" y="424"/>
			<point x="518" y="424" type="qcurve" smooth="yes"/>
			<point x="329" y="424"/>
			<point x="235" y="424" type="qcurve" smooth="yes"/>
			<point x="201" y="424"/>
			<point x="175" y="416" type="qcurve" smooth="yes"/>
			<point x="148" y="407"/>
			<point x="128" y="392" type="qcurve" smooth="yes"/>
			<point x="108" y="379"/>
			<point x="94" y="360" type="qcurve" smooth="yes"/>
			<point x="80" y="341"/>
			<point x="71" y="321" type="qcurve" smooth="yes"/>
			<point x="61" y="300"/>
			<point x="57" y="280" type="qcurve" smooth="yes"/>
			<point x="53" y="259"/>
			<point x="53" y="240" type="qcurve" smooth="yes"/>
			<point x="53" y="60"/>
			<point x="53" y="0" type="qcurve"/>
			<point x="539" y="0"/>
			<point x="701" y="0" type="qcurve"/>
		</contour>
	</outline>
</glyph>
<glyph name="three" format="2">
	<advance width="750"/>
	<unicode hex="0033"/>
	<note>
		three
  </note>
	<outline>
		<contour>
			<point x="672" y="183" type="line"/>
			<point x="672" y="417"/>
			<point x="672" y="535" type="qcurve" smooth="yes"/>
			<point x="672" y="552"/>
			<point x="667" y="573" type="qcurve" smooth="yes"/>
			<point x="663" y="594"/>
			<point x="654" y="614" type="qcurve" smooth="yes"/>
			<point x="645" y="635"/>
			<point x="630" y="653" type="qcurve" smooth="yes"/>
			<point x="616" y="672"/>
			<point x="596" y="685" type="qcurve" smooth="yes"/>
			<point x="576" y="700"/>
			<point x="549" y="708" type="qcurve" smooth="yes"/>
			<point x="523" y="717"/>
			<point x="489" y="717" type="qcurve" smooth="yes"/>
			<point x="173" y="717"/>
			<point x="67" y="717" type="qcurve"/>
			<point x="67" y="620"/>
			<point x="67" y="587" type="qcurve"/>
			<point x="348" y="587"/>
			<point x="489" y="587" type="qcurve" smooth="yes"/>
			<point x="541" y="587"/>
			<point x="541" y="533" type="qcurve" smooth="yes"/>
			<point x="541" y="451"/>
			<point x="541" y="424" type="qcurve"/>
			<point x="186" y="424"/>
			<point x="67" y="424" type="qcurve"/>
			<point x="67" y="326"/>
			<point x="67" y="293" type="qcurve"/>
			<point x="422" y="293"/>
			<point x="541" y="293" type="qcurve"/>
			<point x="541" y="219"/>
			<point x="541" y="183" type="qcurve" smooth="yes"/>
			<point x="541" y="157"/>
			<point x="528" y="143" type="qcurve" smooth="yes"/>
			<point x="516" y="130"/>
			<point x="489" y="130" type="qcurve" smooth="yes"/>
			<point x="173" y="130"/>
			<point x="67" y="130" type="qcurve"/>
			<point x="67" y="32"/>
			<point x="67" y="0" type="qcurve"/>
			<point x="348" y="0"/>
			<point x="489" y="0" type="qcurve" smooth="yes"/>
			<point x="516" y="0"/>
			<point x="548" y="10" type="qcurve" smooth="yes"/>
			<point x="580" y="19"/>
			<point x="608" y="40" type="qcurve" smooth="yes"/>
			<point x="635" y="63"/>
			<point x="653" y="97" type="qcurve" smooth="yes"/>
			<point x="672" y="132"/>
			<point x="672" y="183" type="qcurve"/>
		</contour>
	</outline>
</glyph>
<glyph name="four" format="2">
	<advance width="750"/>
	<unicode hex="0034"/>
	<note>
		four
  </note>
	<outline>
		<contour>
			<point x="692" y="0" type="line"/>
			<point x="692" y="538"/>
			<point x="692" y="717" type="qcurve"/>
			<point x="594" y="717"/>
			<point x="561" y="717" type="qcurve"/>
			<point x="561" y="497"/>
			<point x="561" y="424" type="qcurve"/>
			<point x="278" y="424"/>
			<point x="184" y="424" type="qcurve"/>
			<point x="184" y="644"/>
			<point x="184" y="717" type="qcurve"/>
			<point x="87" y="717"/>
			<point x="54" y="717" type="qcurve"/>
			<point x="54" y="478"/>
			<point x="54" y="359" type="qcurve" smooth="yes"/>
			<point x="54" y="345"/>
			<point x="59" y="333" type="qcurve" smooth="yes"/>
			<point x="64" y="321"/>
			<point x="72" y="312" type="qcurve" smooth="yes"/>
			<point x="81" y="304"/>
			<point x="93" y="298" type="qcurve" smooth="yes"/>
			<point x="105" y="293"/>
			<point x="120" y="293" type="qcurve" smooth="yes"/>
			<point x="451" y="293"/>
			<point x="561" y="293" type="qcurve"/>
			<point x="561" y="73"/>
			<point x="561" y="0" type="qcurve"/>
			<point x="660" y="0"/>
			<point x="692" y="0" type="qcurve"/>
		</contour>
	</outline>
</glyph>
<glyph name="five" format="2">
	<advance width="750"/>
	<unicode hex="0035"/>
	<note>
		five
  </note>
	<outline>
		<contour>
			<point x="712" y="183" type="line"/>
			<point x="712" y="221"/>
			<point x="712" y="240" type="qcurve" smooth="yes"/>
			<point x="712" y="291"/>
			<point x="694" y="326" type="qcurve" smooth="yes"/>
			<point x="676" y="361"/>
			<point x="648" y="383" type="qcurve" smooth="yes"/>
			<point x="621" y="404"/>
			<point x="589" y="414" type="qcurve" smooth="yes"/>
			<point x="557" y="424"/>
			<point x="531" y="424" type="qcurve" smooth="yes"/>
			<point x="341" y="424"/>
			<point x="247" y="424" type="qcurve" smooth="yes"/>
			<point x="221" y="424"/>
			<point x="207" y="437" type="qcurve" smooth="yes"/>
			<point x="194" y="450"/>
			<point x="194" y="476" type="qcurve" smooth="yes"/>
			<point x="194" y="559"/>
			<point x="194" y="587" type="qcurve"/>
			<point x="538" y="587"/>
			<point x="653" y="587" type="qcurve"/>
			<point x="653" y="684"/>
			<point x="653" y="717" type="qcurve"/>
			<point x="211" y="717"/>
			<point x="64" y="717" type="qcurve"/>
			<point x="64" y="556"/>
			<point x="64" y="476" type="qcurve" smooth="yes"/>
			<point x="64" y="448"/>
			<point x="74" y="416" type="qcurve" smooth="yes"/>
			<point x="84" y="384"/>
			<point x="105" y="357" type="qcurve" smooth="yes"/>
			<point x="127" y="329"/>
			<point x="161" y="311" type="qcurve" smooth="yes"/>
			<point x="196" y="293"/>
			<point x="247" y="293" type="qcurve" smooth="yes"/>
			<point x="435" y="293"/>
			<point x="529" y="293" type="qcurve" smooth="yes"/>
			<point x="556" y="293"/>
			<point x="568" y="279" type="qcurve" smooth="yes"/>
			<point x="581" y="266"/>
			<point x="581" y="240" type="qcurve" smooth="yes"/>
			<point x="581" y="202"/>
			<point x="581" y="183" type="qcurve" smooth="yes"/>
			<point x="581" y="160"/>
			<point x="568" y="145" type="qcurve" smooth="yes"/>
			<point x="555" y="130"/>
			<point x="531" y="130" type="qcurve" smooth="yes"/>
			<point x="181" y="130"/>
			<point x="64" y="130" type="qcurve"/>
			<point x="64" y="32"/>
			<point x="64" y="0" type="qcurve"/>
			<point x="375" y="0"/>
			<point x="531" y="0" type="qcurve" smooth="yes"/>
			<point x="564" y="0"/>
			<point x="590" y="8" type="qcurve" smooth="yes"/>
			<point x="616" y="17"/>
			<point x="636" y="31" type="qcurve" smooth="yes"/>
			<point x="657" y="45"/>
			<point x="671" y="64" type="qcurve" smooth="yes"/>
			<point x="685" y="83"/>
			<point x="695" y="103" type="qcurve" smooth="yes"/>
			<point x="704" y="123"/>
			<point x="708" y="144" type="qcurve" smooth="yes"/>
			<point x="712" y="164"/>
			<point x="712" y="183" type="qcurve"/>
		</contour>
	</outline>
</glyph>
<glyph name="six" format="2">
	<advance width="750"/>
	<unicode hex="0036"/>
	<note>
		six
  </note>
	<outline>
		<contour>
			<point x="191" y="424" type="line"/>
			<point x="191" y="459"/>
			<point x="191" y="476" type="qcurve" smooth="yes"/>
			<point x="191" y="500"/>
			<point x="199" y="520" type="qcurve" smooth="yes"/>
			<point x="207" y="540"/>
			<point x="221" y="554" type="qcurve" smooth="yes"/>
			<point x="236" y="568"/>
			<point x="256" y="576" type="qcurve" smooth="yes"/>
			<point x="276" y="585"/>
			<point x="301" y="587" type="qcurve"/>
			<point x="538" y="587"/>
			<point x="617" y="587" type="qcurve"/>
			<point x="617" y="684"/>
			<point x="617" y="717" type="qcurve"/>
			<point x="407" y="717"/>
			<point x="301" y="717" type="qcurve" smooth="yes"/>
			<point x="277" y="717"/>
			<point x="250" y="711" type="qcurve" smooth="yes"/>
			<point x="223" y="706"/>
			<point x="196" y="693" type="qcurve" smooth="yes"/>
			<point x="170" y="681"/>
			<point x="145" y="662" type="qcurve" smooth="yes"/>
			<point x="120" y="644"/>
			<point x="102" y="616" type="qcurve" smooth="yes"/>
			<point x="84" y="590"/>
			<point x="72" y="555" type="qcurve" smooth="yes"/>
			<point x="61" y="520"/>
			<point x="61" y="476" type="qcurve" smooth="yes"/>
			<point x="61" y="319"/>
			<point x="61" y="240" type="qcurve" smooth="yes"/>
			<point x="61" y="196"/>
			<point x="72" y="162" type="qcurve" smooth="yes"/>
			<point x="84" y="127"/>
			<point x="102" y="100" type="qcurve" smooth="yes"/>
			<point x="120" y="73"/>
			<point x="145" y="54" type="qcurve" smooth="yes"/>
			<point x="170" y="36"/>
			<point x="196" y="23" type="qcurve" smooth="yes"/>
			<point x="223" y="11"/>
			<point x="250" y="6" type="qcurve" smooth="yes"/>
			<point x="277" y="0"/>
			<point x="301" y="0" type="qcurve" smooth="yes"/>
			<point x="452" y="0"/>
			<point x="527" y="0" type="qcurve" smooth="yes"/>
			<point x="560" y="0"/>
			<point x="587" y="8" type="qcurve" smooth="yes"/>
			<point x="613" y="17"/>
			<point x="633" y="31" type="qcurve" smooth="yes"/>
			<point x="654" y="45"/>
			<point x="668" y="64" type="qcurve" smooth="yes"/>
			<point x="683" y="83"/>
			<point x="692" y="103" type="qcurve" smooth="yes"/>
			<point x="701" y="123"/>
			<point x="705" y="144" type="qcurve" smooth="yes"/>
			<point x="709" y="164"/>
			<point x="709" y="183" type="qcurve" smooth="yes"/>
			<point x="709" y="221"/>
			<point x="709" y="240" type="qcurve" smooth="yes"/>
			<point x="709" y="291"/>
			<point x="691" y="326" type="qcurve" smooth="yes"/>
			<point x="673" y="361"/>
			<point x="645" y="383" type="qcurve" smooth="yes"/>
			<point x="618" y="404"/>
			<point x="586" y="414" type="qcurve" smooth="yes"/>
			<point x="555" y="424"/>
			<point x="527" y="424" type="qcurve" smooth="yes"/>
			<point x="275" y="424"/>
			<point x="191" y="424" type="qcurve"/>
		</contour>
		<contour>
			<point x="191" y="293" type="line"/>
			<point x="414" y="293"/>
			<point x="526" y="293" type="qcurve" smooth="yes"/>
			<point x="552" y="293"/>
			<point x="566" y="279" type="qcurve" smooth="yes"/>
			<point x="579" y="266"/>
			<point x="579" y="240" type="qcurve" smooth="yes"/>
			<point x="579" y="202"/>
			<point x="579" y="183" type="qcurve" smooth="yes"/>
			<point x="579" y="160"/>
			<point x="565" y="145" type="qcurve" smooth="yes"/>
			<point x="552" y="130"/>
			<point x="527" y="130" type="qcurve" smooth="yes"/>
			<point x="377" y="130"/>
			<point x="303" y="130" type="qcurve" smooth="yes"/>
			<point x="279" y="130"/>
			<point x="259" y="138" type="qcurve" smooth="yes"/>
			<point x="239" y="145"/>
			<point x="224" y="160" type="qcurve" smooth="yes"/>
			<point x="208" y="175"/>
			<point x="200" y="195" type="qcurve" smooth="yes"/>
			<point x="191" y="215"/>
			<point x="191" y="240" type="qcurve" smooth="yes"/>
			<point x="191" y="280"/>
			<point x="191" y="293" type="qcurve"/>
		</contour>
	</outline>
</glyph>
<glyph name="seven" format="2">
	<advance width="750"/>
	<unicode hex="0037"/>
	<note>
		seven
  </note>
	<outline>
		<contour>
			<point x="488" y="303" type="line"/>
			<point x="488" y="390"/>
			<point x="488" y="420" type="qcurve"/>
			<point x="196" y="420"/>
			<point x="99" y="420" type="qcurve"/>
			<point x="99" y="332"/>
			<point x="99" y="303" type="qcurve"/>
			<point x="391" y="303"/>
			<point x="488" y="303" type="qcurve"/>
		</contour>
		<contour>
			<point x="684" y="684" type="line"/>
			<point x="676" y="700"/>
			<point x="661" y="708" type="qcurve" smooth="yes"/>
			<point x="645" y="717"/>
			<point x="628" y="717" type="qcurve" smooth="yes"/>
			<point x="227" y="717"/>
			<point x="93" y="717" type="qcurve"/>
			<point x="93" y="620"/>
			<point x="93" y="587" type="qcurve"/>
			<point x="409" y="587"/>
			<point x="515" y="587" type="qcurve"/>
			<point x="259" y="147"/>
			<point x="173" y="0" type="qcurve"/>
			<point x="286" y="0"/>
			<point x="324" y="0" type="qcurve"/>
			<point x="564" y="412"/>
			<point x="684" y="619" type="qcurve" smooth="yes"/>
			<point x="693" y="634"/>
			<point x="693" y="651" type="qcurve" smooth="yes"/>
			<point x="693" y="668"/>
			<point x="684" y="684" type="qcurve"/>
		</contour>
	</outline>
</glyph>
<glyph name="eight" format="2">
	<advance width="750"/>
	<unicode hex="0038"/>
	<note>
		eight
  </note>
	<outline>
		<contour>
			<point x="701" y="183" type="line"/>
			<point x="701" y="221"/>
			<point x="701" y="240" type="qcurve" smooth="yes"/>
			<point x="701" y="268"/>
			<point x="695" y="292" type="qcurve" smooth="yes"/>
			<point x="689" y="315"/>
			<point x="679" y="333" type="qcurve" smooth="yes"/>
			<point x="668" y="352"/>
			<point x="654" y="366" type="qcurve" smooth="yes"/>
			<point x="640" y="380"/>
			<point x="624" y="391" type="qcurve"/>
			<point x="642" y="427"/>
			<point x="642" y="476" type="qcurve" smooth="yes"/>
			<point x="642" y="515"/>
			<point x="642" y="535" type="qcurve" smooth="yes"/>
			<point x="642" y="552"/>
			<point x="638" y="573" type="qcurve" smooth="yes"/>
			<point x="633" y="594"/>
			<point x="624" y="614" type="qcurve" smooth="yes"/>
			<point x="616" y="635"/>
			<point x="601" y="653" type="qcurve" smooth="yes"/>
			<point x="587" y="672"/>
			<point x="567" y="685" type="qcurve" smooth="yes"/>
			<point x="547" y="700"/>
			<point x="520" y="708" type="qcurve" smooth="yes"/>
			<point x="493" y="717"/>
			<point x="460" y="717" type="qcurve" smooth="yes"/>
			<point x="349" y="717"/>
			<point x="293" y="717" type="qcurve" smooth="yes"/>
			<point x="267" y="717"/>
			<point x="235" y="707" type="qcurve" smooth="yes"/>
			<point x="203" y="697"/>
			<point x="175" y="676" type="qcurve" smooth="yes"/>
			<point x="148" y="655"/>
			<point x="130" y="620" type="qcurve" smooth="yes"/>
			<point x="112" y="584"/>
			<point x="112" y="535" type="qcurve" smooth="yes"/>
			<point x="112" y="496"/>
			<point x="112" y="476" type="qcurve" smooth="yes"/>
			<point x="112" y="457"/>
			<point x="116" y="436" type="qcurve" smooth="yes"/>
			<point x="120" y="414"/>
			<point x="129" y="393" type="qcurve"/>
			<point x="109" y="380"/>
			<point x="94" y="361" type="qcurve" smooth="yes"/>
			<point x="80" y="343"/>
			<point x="71" y="322" type="qcurve" smooth="yes"/>
			<point x="61" y="301"/>
			<point x="57" y="280" type="qcurve" smooth="yes"/>
			<point x="53" y="260"/>
			<point x="53" y="240" type="qcurve" smooth="yes"/>
			<point x="53" y="202"/>
			<point x="53" y="183" type="qcurve" smooth="yes"/>
			<point x="53" y="132"/>
			<point x="71" y="97" type="qcurve" smooth="yes"/>
			<point x="89" y="63"/>
			<point x="116" y="40" type="qcurve" smooth="yes"/>
			<point x="144" y="19"/>
			<point x="176" y="10" type="qcurve" smooth="yes"/>
			<point x="208" y="0"/>
			<point x="235" y="0" type="qcurve" smooth="yes"/>
			<point x="424" y="0"/>
			<point x="519" y="0" type="qcurve" smooth="yes"/>
			<point x="552" y="0"/>
			<point x="578" y="8" type="qcurve" smooth="yes"/>
			<point x="605" y="17"/>
			<point x="625" y="31" type="qcurve" smooth="yes"/>
			<point x="645" y="45"/>
			<point x="660" y="64" type="qcurve" smooth="yes"/>
			<point x="675" y="83"/>
			<point x="684" y="103" type="qcurve" smooth="yes"/>
			<point x="693" y="123"/>
			<point x="697" y="144" type="qcurve" smooth="yes"/>
			<point x="701" y="164"/>
			<point x="701" y="183" type="qcurve"/>
		</contour>
		<contour>
			<point x="512" y="533" type="line"/>
			<point x="512" y="495"/>
			<point x="512" y="476" type="qcurve" smooth="yes"/>
			<point x="512" y="451"/>
			<point x="499" y="437" type="qcurve" smooth="yes"/>
			<point x="486" y="424"/>
			<point x="460" y="424" type="qcurve" smooth="yes"/>
			<point x="349" y="424"/>
			<point x="293" y="424" type="qcurve" smooth="yes"/>
			<point x="269" y="424"/>
			<point x="256" y="437" type="qcurve" smooth="yes"/>
			<point x="243" y="450"/>
			<point x="243" y="476" type="qcurve" smooth="yes"/>
			<point x="243" y="515"/>
			<point x="243" y="535" type="qcurve" smooth="yes"/>
			<point x="243" y="560"/>
			<point x="255" y="574" type="qcurve" smooth="yes"/>
			<point x="268" y="587"/>
			<point x="295" y="587" type="qcurve" smooth="yes"/>
			<point x="405" y="587"/>
			<point x="460" y="587" type="qcurve" smooth="yes"/>
			<point x="485" y="587"/>
			<point x="498" y="574" type="qcurve" smooth="yes"/>
			<point x="512" y="560"/>
			<point x="512" y="533" type="qcurve"/>
		</contour>
		<contour>
			<point x="570" y="240" type="line"/>
			<point x="570" y="202"/>
			<point x="570" y="183" type="qcurve" smooth="yes"/>
			<point x="570" y="160"/>
			<point x="557" y="145" type="qcurve" smooth="yes"/>
			<point x="544" y="130"/>
			<point x="519" y="130" type="qcurve" smooth="yes"/>
			<point x="330" y="130"/>
			<point x="235" y="130" type="qcurve" smooth="yes"/>
			<point x="212" y="130"/>
			<point x="198" y="144" type="qcurve" smooth="yes"/>
			<point x="183" y="159"/>
			<point x="183" y="183" type="qcurve" smooth="yes"/>
			<point x="183" y="221"/>
			<point x="183" y="240" type="qcurve" smooth="yes"/>
			<point x="183" y="263"/>
			<point x="197" y="278" type="qcurve" smooth="yes"/>
			<point x="211" y="293"/>
			<point x="235" y="293" type="qcurve" smooth="yes"/>
			<point x="424" y="293"/>
			<point x="519" y="293" type="qcurve" smooth="yes"/>
			<point x="543" y="293"/>
			<point x="556" y="279" type="qcurve" smooth="yes"/>
			<point x="570" y="265"/>
			<point x="570" y="240" type="qcurve"/>
		</contour>
	</outline>
</glyph>
<glyph name="nine" format="2">
	<advance width="750"/>
	<unicode hex="0039"/>
	<note>
		nine
  </note>
	<outline>
		<contour>
			<point x="43" y="476" type="line"/>
			<point x="43" y="443"/>
			<point x="51" y="416" type="qcurve" smooth="yes"/>
			<point x="60" y="389"/>
			<point x="73" y="369" type="qcurve" smooth="yes"/>
			<point x="88" y="348"/>
			<point x="106" y="334" type="qcurve" smooth="yes"/>
			<point x="125" y="320"/>
			<point x="145" y="311" type="qcurve" smooth="yes"/>
			<point x="165" y="301"/>
			<point x="186" y="297" type="qcurve" smooth="yes"/>
			<point x="207" y="293"/>
			<point x="225" y="293" type="qcurve" smooth="yes"/>
			<point x="476" y="293"/>
			<point x="560" y="293" type="qcurve"/>
			<point x="560" y="258"/>
			<point x="560" y="240" type="qcurve" smooth="yes"/>
			<point x="560" y="215"/>
			<point x="552" y="195" type="qcurve" smooth="yes"/>
			<point x="544" y="176"/>
			<point x="529" y="161" type="qcurve" smooth="yes"/>
			<point x="515" y="148"/>
			<point x="494" y="140" type="qcurve" smooth="yes"/>
			<point x="474" y="132"/>
			<point x="449" y="130" type="qcurve"/>
			<point x="214" y="130"/>
			<point x="135" y="130" type="qcurve"/>
			<point x="135" y="32"/>
			<point x="135" y="0" type="qcurve"/>
			<point x="345" y="0"/>
			<point x="449" y="0" type="qcurve" smooth="yes"/>
			<point x="473" y="0"/>
			<point x="501" y="6" type="qcurve" smooth="yes"/>
			<point x="528" y="11"/>
			<point x="555" y="23" type="qcurve" smooth="yes"/>
			<point x="582" y="36"/>
			<point x="607" y="54" type="qcurve" smooth="yes"/>
			<point x="631" y="73"/>
			<point x="649" y="100" type="qcurve" smooth="yes"/>
			<point x="668" y="127"/>
			<point x="680" y="162" type="qcurve" smooth="yes"/>
			<point x="691" y="196"/>
			<point x="691" y="240" type="qcurve" smooth="yes"/>
			<point x="691" y="397"/>
			<point x="691" y="476" type="qcurve" smooth="yes"/>
			<point x="691" y="520"/>
			<point x="680" y="555" type="qcurve" smooth="yes"/>
			<point x="668" y="590"/>
			<point x="649" y="616" type="qcurve" smooth="yes"/>
			<point x="631" y="644"/>
			<point x="607" y="662" type="qcurve" smooth="yes"/>
			<point x="582" y="681"/>
			<point x="555" y="693" type="qcurve" smooth="yes"/>
			<point x="528" y="706"/>
			<point x="501" y="711" type="qcurve" smooth="yes"/>
			<point x="473" y="717"/>
			<point x="449" y="717" type="qcurve" smooth="yes"/>
			<point x="300" y="717"/>
			<point x="225" y="717" type="qcurve" smooth="yes"/>
			<point x="192" y="717"/>
			<point x="165" y="708" type="qcurve" smooth="yes"/>
			<point x="139" y="700"/>
			<point x="118" y="685" type="qcurve" smooth="yes"/>
			<point x="98" y="672"/>
			<point x="83" y="653" type="qcurve" smooth="yes"/>
			<point x="69" y="635"/>
			<point x="60" y="614" type="qcurve" smooth="yes"/>
			<point x="51" y="594"/>
			<point x="47" y="573" type="qcurve" smooth="yes"/>
			<point x="43" y="552"/>
			<point x="43" y="535" type="qcurve" smooth="yes"/>
			<point x="43" y="491"/>
			<point x="43" y="476" type="qcurve"/>
		</contour>
		<contour>
			<point x="560" y="476" type="line"/>
			<point x="560" y="437"/>
			<point x="560" y="424" type="qcurve"/>
			<point x="337" y="424"/>
			<point x="226" y="424" type="qcurve" smooth="yes"/>
			<point x="200" y="424"/>
			<point x="186" y="437" type="qcurve" smooth="yes"/>
			<point x="172" y="451"/>
			<point x="172" y="476" type="qcurve" smooth="yes"/>
			<point x="172" y="515"/>
			<point x="172" y="535" type="qcurve" smooth="yes"/>
			<point x="172" y="557"/>
			<point x="187" y="572" type="qcurve" smooth="yes"/>
			<point x="201" y="587"/>
			<point x="225" y="587" type="qcurve" smooth="yes"/>
			<point x="375" y="587"/>
			<point x="449" y="587" type="qcurve" smooth="yes"/>
			<point x="473" y="587"/>
			<point x="493" y="579" type="qcurve" smooth="yes"/>
			<point x="513" y="572"/>
			<point x="528" y="557" type="qcurve" smooth="yes"/>
			<point x="543" y="543"/>
			<point x="552" y="522" type="qcurve" smooth="yes"/>
			<point x="560" y="501"/>
			<point x="560" y="476" type="qcurve"/>
		</contour>
	</outline>
</glyph>
<glyph name="colon" format="2">
	<advance width="750"/>
	<unicode hex="003A"/>
	<note>
		colon
  </note>
	<outline>
		<contour>
			<point x="491" y="93" type="line"/>
			<point x="491" y="112"/>
			<point x="483" y="130" type="qcurve" smooth="yes"/>
			<point x="476" y="148"/>
			<point x="462" y="161" type="qcurve" smooth="yes"/>
			<point x="449" y="174"/>
			<point x="432" y="182" type="qcurve" smooth="yes"/>
			<point x="414" y="190"/>
			<point x="395" y="190" type="qcurve" smooth="yes"/>
			<point x="374" y="190"/>
			<point x="357" y="182" type="qcurve" smooth="yes"/>
			<point x="339" y="174"/>
			<point x="326" y="161" type="qcurve" smooth="yes"/>
			<point x="313" y="148"/>
			<point x="305" y="130" type="qcurve" smooth="yes"/>
			<point x="298" y="112"/>
			<point x="298" y="93" type="qcurve" smooth="yes"/>
			<point x="298" y="73"/>
			<point x="305" y="55" type="qcurve" smooth="yes"/>
			<point x="313" y="37"/>
			<point x="326" y="24" type="qcurve" smooth="yes"/>
			<point x="339" y="12"/>
			<point x="357" y="4" type="qcurve" smooth="yes"/>
			<point x="374" y="-4"/>
			<point x="395" y="-4" type="qcurve" smooth="yes"/>
			<point x="414" y="-4"/>
			<point x="432" y="4" type="qcurve" smooth="yes"/>
			<point x="449" y="12"/>
			<point x="462" y="24" type="qcurve" smooth="yes"/>
			<point x="476" y="37"/>
			<point x="483" y="55" type="qcurve" smooth="yes"/>
			<point x="491" y="73"/>
			<point x="491" y="93" type="qcurve"/>
		</contour>
		<contour>
			<point x="491" y="457" type="line"/>
			<point x="491" y="477"/>
			<point x="484" y="495" type="qcurve" smooth="yes"/>
			<point x="476" y="512"/>
			<point x="463" y="525" type="qcurve" smooth="yes"/>
			<point x="449" y="539"/>
			<point x="432" y="546" type="qcurve" smooth="yes"/>
			<point x="414" y="554"/>
			<point x="395" y="554" type="qcurve" smooth="yes"/>
			<point x="374" y="554"/>
			<point x="356" y="546" type="qcurve" smooth="yes"/>
			<point x="339" y="539"/>
			<point x="326" y="525" type="qcurve" smooth="yes"/>
			<point x="313" y="512"/>
			<point x="305" y="495" type="qcurve" smooth="yes"/>
			<point x="298" y="477"/>
			<point x="298" y="457" type="qcurve" smooth="yes"/>
			<point x="298" y="456"/>
			<point x="298" y="455" type="qcurve" smooth="yes"/>
			<point x="298" y="437"/>
			<point x="305" y="420" type="qcurve" smooth="yes"/>
			<point x="313" y="402"/>
			<point x="326" y="389" type="qcurve" smooth="yes"/>
			<point x="339" y="376"/>
			<point x="356" y="368" type="qcurve" smooth="yes"/>
			<point x="374" y="360"/>
			<point x="395" y="360" type="qcurve" smooth="yes"/>
			<point x="414" y="360"/>
			<point x="432" y="368" type="qcurve" smooth="yes"/>
			<point x="449" y="376"/>
			<point x="463" y="389" type="qcurve" smooth="yes"/>
			<point x="476" y="402"/>
			<point x="484" y="420" type="qcurve" smooth="yes"/>
			<point x="491" y="437"/>
			<point x="491" y="457" type="qcurve"/>
		</contour>
	</outline>
</glyph>
<glyph name="semicolon" format="2">
	<advance width="750"/>
	<unicode hex="003B"/>
	<note>
		semicolon
  </note>
	<outline>
		<contour>
			<point x="441" y="452" type="line"/>
			<point x="441" y="472"/>
			<point x="433" y="489" type="qcurve" smooth="yes"/>
			<point x="425" y="507"/>
			<point x="412" y="520" type="qcurve" smooth="yes"/>
			<point x="399" y="533"/>
			<point x="381" y="541" type="qcurve" smooth="yes"/>
			<point x="364" y="548"/>
			<point x="344" y="548" type="qcurve" smooth="yes"/>
			<point x="324" y="548"/>
			<point x="307" y="541" type="qcurve" smooth="yes"/>
			<point x="289" y="533"/>
			<point x="276" y="520" type="qcurve" smooth="yes"/>
			<point x="263" y="507"/>
			<point x="255" y="489" type="qcurve" smooth="yes"/>
			<point x="248" y="472"/>
			<point x="248" y="452" type="qcurve" smooth="yes"/>
			<point x="248" y="432"/>
			<point x="255" y="414" type="qcurve" smooth="yes"/>
			<point x="263" y="396"/>
			<point x="276" y="383" type="qcurve" smooth="yes"/>
			<point x="289" y="370"/>
			<point x="307" y="363" type="qcurve" smooth="yes"/>
			<point x="324" y="355"/>
			<point x="344" y="355" type="qcurve" smooth="yes"/>
			<point x="364" y="355"/>
			<point x="381" y="363" type="qcurve" smooth="yes"/>
			<point x="399" y="370"/>
			<point x="412" y="383" type="qcurve" smooth="yes"/>
			<point x="425" y="396"/>
			<point x="433" y="414" type="qcurve" smooth="yes"/>
			<point x="441" y="432"/>
			<point x="441" y="452" type="qcurve"/>
		</contour>
		<contour>
			<point x="312" y="-92" type="line"/>
			<point x="370" y="97"/>
			<point x="389" y="160" type="qcurve"/>
			<point x="278" y="160"/>
			<point x="241" y="160" type="qcurve"/>
			<point x="207" y="-29"/>
			<point x="196" y="-92" type="qcurve"/>
			<point x="283" y="-92"/>
			<point x="312" y="-92" type="qcurve"/>
		</contour>
	</outline>
</glyph>
<glyph name="less" format="2">
	<advance width="750"/>
	<unicode hex="003C"/>
	<note>
		less
  </note>
	<outline>
		<contour>
			<point x="567" y="627" type="line"/>
			<point x="428" y="627"/>
			<point x="381" y="627" type="qcurve"/>
			<point x="218" y="481"/>
			<point x="137" y="408" type="qcurve" smooth="yes"/>
			<point x="127" y="399"/>
			<point x="121" y="386" type="qcurve" smooth="yes"/>
			<point x="116" y="373"/>
			<point x="116" y="360" type="qcurve" smooth="yes"/>
			<point x="116" y="329"/>
			<point x="138" y="311" type="qcurve" smooth="yes"/>
			<point x="319" y="152"/>
			<point x="380" y="99" type="qcurve"/>
			<point x="520" y="99"/>
			<point x="567" y="99" type="qcurve"/>
			<point x="343" y="294"/>
			<point x="269" y="360" type="qcurve"/>
			<point x="493" y="560"/>
			<point x="567" y="627" type="qcurve"/>
		</contour>
	</outline>
</glyph>
<glyph name="equal" format="2">
	<advance width="750"/>
	<unicode hex="003D"/>
	<note>
		equal
  </note>
	<outline>
		<contour>
			<point x="752" y="417" type="line"/>
			<point x="752" y="505"/>
			<point x="752" y="535" type="qcurve"/>
			<point x="187" y="535"/>
			<point x="-2" y="535" type="qcurve"/>
			<point x="-2" y="446"/>
			<point x="-2" y="417" type="qcurve"/>
			<point x="564" y="417"/>
			<point x="752" y="417" type="qcurve"/>
		</contour>
		<contour>
			<point x="752" y="183" type="line"/>
			<point x="752" y="271"/>
			<point x="752" y="300" type="qcurve"/>
			<point x="187" y="300"/>
			<point x="-2" y="300" type="qcurve"/>
			<point x="-2" y="212"/>
			<point x="-2" y="183" type="qcurve"/>
			<point x="564" y="183"/>
			<point x="752" y="183" type="qcurve"/>
		</contour>
	</outline>
</glyph>
<glyph name="greater" format="2">
	<advance width="750"/>
	<unicode hex="003E"/>
	<note>
		greater
  </note>
	<outline>
		<contour>
			<point x="366" y="627" type="line"/>
			<point x="227" y="627"/>
			<point x="181" y="627" type="qcurve"/>
			<point x="405" y="426"/>
			<point x="479" y="360" type="qcurve"/>
			<point x="255" y="164"/>
			<point x="181" y="99" type="qcurve"/>
			<point x="321" y="99"/>
			<point x="368" y="99" type="qcurve"/>
			<point x="529" y="240"/>
			<point x="610" y="311" type="qcurve" smooth="yes"/>
			<point x="620" y="320"/>
			<point x="626" y="332" type="qcurve" smooth="yes"/>
			<point x="632" y="345"/>
			<point x="632" y="360" type="qcurve" smooth="yes"/>
			<point x="632" y="373"/>
			<point x="627" y="386" type="qcurve" smooth="yes"/>
			<point x="621" y="399"/>
			<point x="611" y="408" type="qcurve" smooth="yes"/>
			<point x="427" y="572"/>
			<point x="366" y="627" type="qcurve"/>
		</contour>
	</outline>
</glyph>
<glyph name="question" format="2">
	<advance width="750"/>
	<unicode hex="003F"/>
	<note>
		question
  </note>
	<outline>
		<contour>
			<point x="693" y="476" type="line"/>
			<point x="693" y="515"/>
			<point x="693" y="535" type="qcurve" smooth="yes"/>
			<point x="693" y="584"/>
			<point x="675" y="620" type="qcurve" smooth="yes"/>
			<point x="657" y="655"/>
			<point x="630" y="676" type="qcurve" smooth="yes"/>
			<point x="603" y="697"/>
			<point x="571" y="707" type="qcurve" smooth="yes"/>
			<point x="539" y="717"/>
			<point x="512" y="717" type="qcurve" smooth="yes"/>
			<point x="199" y="717"/>
			<point x="95" y="717" type="qcurve"/>
			<point x="95" y="620"/>
			<point x="95" y="587" type="qcurve"/>
			<point x="373" y="587"/>
			<point x="512" y="587" type="qcurve" smooth="yes"/>
			<point x="537" y="587"/>
			<point x="550" y="574" type="qcurve" smooth="yes"/>
			<point x="564" y="560"/>
			<point x="564" y="535" type="qcurve" smooth="yes"/>
			<point x="564" y="496"/>
			<point x="564" y="476" type="qcurve" smooth="yes"/>
			<point x="564" y="450"/>
			<point x="550" y="437" type="qcurve" smooth="yes"/>
			<point x="537" y="424"/>
			<point x="512" y="424" type="qcurve" smooth="yes"/>
			<point x="394" y="424"/>
			<point x="335" y="424" type="qcurve" smooth="yes"/>
			<point x="321" y="424"/>
			<point x="310" y="419" type="qcurve" smooth="yes"/>
			<point x="298" y="413"/>
			<point x="289" y="404" type="qcurve" smooth="yes"/>
			<point x="280" y="396"/>
			<point x="276" y="384" type="qcurve" smooth="yes"/>
			<point x="271" y="372"/>
			<point x="271" y="359" type="qcurve" smooth="yes"/>
			<point x="271" y="222"/>
			<point x="271" y="176" type="qcurve"/>
			<point x="368" y="176"/>
			<point x="401" y="176" type="qcurve"/>
			<point x="401" y="264"/>
			<point x="401" y="293" type="qcurve"/>
			<point x="475" y="293"/>
			<point x="512" y="293" type="qcurve" smooth="yes"/>
			<point x="561" y="293"/>
			<point x="596" y="311" type="qcurve" smooth="yes"/>
			<point x="631" y="329"/>
			<point x="652" y="357" type="qcurve" smooth="yes"/>
			<point x="675" y="384"/>
			<point x="684" y="416" type="qcurve" smooth="yes"/>
			<point x="693" y="448"/>
			<point x="693" y="476" type="qcurve"/>
		</contour>
		<contour>
			<point x="400" y="65" type="line"/>
			<point x="400" y="79"/>
			<point x="394" y="90" type="qcurve" smooth="yes"/>
			<point x="389" y="102"/>
			<point x="380" y="111" type="qcurve" smooth="yes"/>
			<point x="372" y="120"/>
			<point x="360" y="125" type="qcurve" smooth="yes"/>
			<point x="348" y="130"/>
			<point x="335" y="130" type="qcurve" smooth="yes"/>
			<point x="322" y="130"/>
			<point x="310" y="125" type="qcurve" smooth="yes"/>
			<point x="299" y="120"/>
			<point x="289" y="111" type="qcurve" smooth="yes"/>
			<point x="281" y="102"/>
			<point x="276" y="90" type="qcurve" smooth="yes"/>
			<point x="271" y="79"/>
			<point x="271" y="65" type="qcurve" smooth="yes"/>
			<point x="271" y="52"/>
			<point x="276" y="40" type="qcurve" smooth="yes"/>
			<point x="281" y="28"/>
			<point x="289" y="20" type="qcurve" smooth="yes"/>
			<point x="299" y="11"/>
			<point x="310" y="6" type="qcurve" smooth="yes"/>
			<point x="322" y="1"/>
			<point x="335" y="1" type="qcurve" smooth="yes"/>
			<point x="348" y="1"/>
			<point x="360" y="6" type="qcurve" smooth="yes"/>
			<point x="372" y="11"/>
			<point x="380" y="20" type="qcurve" smooth="yes"/>
			<point x="389" y="28"/>
			<point x="394" y="40" type="qcurve" smooth="yes"/>
			<point x="400" y="52"/>
			<point x="400" y="65" type="qcurve"/>
		</contour>
	</outline>
</glyph>
<glyph name="at" format="2">
	<advance width="750"/>
	<unicode hex="0040"/>
	<note>
		at
  </note>
	<outline>
		<contour>
			<point x="673" y="220" type="line"/>
			<point x="673" y="338"/>
			<point x="673" y="396" type="qcurve" smooth="yes"/>
			<point x="673" y="441"/>
			<point x="657" y="472" type="qcurve" smooth="yes"/>
			<point x="641" y="504"/>
			<point x="616" y="523" type="qcurve" smooth="yes"/>
			<point x="592" y="542"/>
			<point x="564" y="551" type="qcurve" smooth="yes"/>
			<point x="535" y="559"/>
			<point x="511" y="559" type="qcurve" smooth="yes"/>
			<point x="354" y="559"/>
			<point x="276" y="559" type="qcurve" smooth="yes"/>
			<point x="231" y="559"/>
			<point x="200" y="543" type="qcurve" smooth="yes"/>
			<point x="169" y="527"/>
			<point x="149" y="502" type="qcurve" smooth="yes"/>
			<point x="130" y="478"/>
			<point x="121" y="450" type="qcurve" smooth="yes"/>
			<point x="113" y="421"/>
			<point x="113" y="396" type="qcurve" smooth="yes"/>
			<point x="113" y="240"/>
			<point x="113" y="162" type="qcurve" smooth="yes"/>
			<point x="113" y="117"/>
			<point x="129" y="86" type="qcurve" smooth="yes"/>
			<point x="145" y="55"/>
			<point x="170" y="36" type="qcurve" smooth="yes"/>
			<point x="195" y="16"/>
			<point x="223" y="8" type="qcurve" smooth="yes"/>
			<point x="252" y="-1"/>
			<point x="276" y="-1" type="qcurve" smooth="yes"/>
			<point x="320" y="-1"/>
			<point x="335" y="-1" type="qcurve"/>
			<point x="335" y="67"/>
			<point x="335" y="90" type="qcurve"/>
			<point x="296" y="90"/>
			<point x="276" y="90" type="qcurve" smooth="yes"/>
			<point x="261" y="90"/>
			<point x="248" y="95" type="qcurve" smooth="yes"/>
			<point x="235" y="100"/>
			<point x="225" y="110" type="qcurve" smooth="yes"/>
			<point x="216" y="120"/>
			<point x="210" y="133" type="qcurve" smooth="yes"/>
			<point x="204" y="146"/>
			<point x="204" y="162" type="qcurve" smooth="yes"/>
			<point x="204" y="318"/>
			<point x="204" y="396" type="qcurve" smooth="yes"/>
			<point x="204" y="412"/>
			<point x="210" y="424" type="qcurve" smooth="yes"/>
			<point x="215" y="437"/>
			<point x="224" y="447" type="qcurve" smooth="yes"/>
			<point x="233" y="457"/>
			<point x="246" y="462" type="qcurve" smooth="yes"/>
			<point x="260" y="468"/>
			<point x="276" y="468" type="qcurve" smooth="yes"/>
			<point x="432" y="468"/>
			<point x="511" y="468" type="qcurve" smooth="yes"/>
			<point x="526" y="468"/>
			<point x="539" y="463" type="qcurve" smooth="yes"/>
			<point x="552" y="458"/>
			<point x="561" y="448" type="qcurve"/>
			<point x="571" y="440"/>
			<point x="577" y="426" type="qcurve" smooth="yes"/>
			<point x="582" y="413"/>
			<point x="582" y="396" type="qcurve" smooth="yes"/>
			<point x="582" y="279"/>
			<point x="582" y="221" type="qcurve" smooth="yes"/>
			<point x="582" y="211"/>
			<point x="578" y="210" type="qcurve"/>
			<point x="575" y="208"/>
			<point x="569" y="208" type="qcurve" smooth="yes"/>
			<point x="560" y="208"/>
			<point x="556" y="208" type="qcurve"/>
			<point x="556" y="211"/>
			<point x="556" y="214" type="qcurve" smooth="yes"/>
			<point x="556" y="217"/>
			<point x="556" y="220" type="qcurve" smooth="yes"/>
			<point x="556" y="299"/>
			<point x="556" y="338" type="qcurve" smooth="yes"/>
			<point x="556" y="367"/>
			<point x="546" y="387" type="qcurve" smooth="yes"/>
			<point x="536" y="407"/>
			<point x="520" y="419" type="qcurve" smooth="yes"/>
			<point x="504" y="432"/>
			<point x="486" y="437" type="qcurve" smooth="yes"/>
			<point x="468" y="443"/>
			<point x="452" y="443" type="qcurve" smooth="yes"/>
			<point x="325" y="443"/>
			<point x="283" y="443" type="qcurve"/>
			<point x="283" y="374"/>
			<point x="283" y="351" type="qcurve"/>
			<point x="395" y="351"/>
			<point x="451" y="351" type="qcurve" smooth="yes"/>
			<point x="462" y="351"/>
			<point x="464" y="347" type="qcurve" smooth="yes"/>
			<point x="465" y="343"/>
			<point x="465" y="338" type="qcurve" smooth="yes"/>
			<point x="465" y="260"/>
			<point x="465" y="221" type="qcurve" smooth="yes"/>
			<point x="465" y="213"/>
			<point x="463" y="211" type="qcurve" smooth="yes"/>
			<point x="460" y="208"/>
			<point x="456" y="208" type="qcurve" smooth="yes"/>
			<point x="376" y="208"/>
			<point x="336" y="208" type="qcurve" smooth="yes"/>
			<point x="330" y="208"/>
			<point x="326" y="210" type="qcurve" smooth="yes"/>
			<point x="322" y="213"/>
			<point x="322" y="220" type="qcurve" smooth="yes"/>
			<point x="322" y="225"/>
			<point x="323" y="228" type="qcurve"/>
			<point x="325" y="231"/>
			<point x="327" y="232" type="qcurve" smooth="yes"/>
			<point x="329" y="233"/>
			<point x="331" y="233" type="qcurve" smooth="yes"/>
			<point x="333" y="233"/>
			<point x="335" y="233" type="qcurve" smooth="yes"/>
			<point x="413" y="233"/>
			<point x="439" y="233" type="qcurve"/>
			<point x="439" y="302"/>
			<point x="439" y="324" type="qcurve"/>
			<point x="369" y="324"/>
			<point x="335" y="324" type="qcurve" smooth="yes"/>
			<point x="306" y="324"/>
			<point x="286" y="314" type="qcurve" smooth="yes"/>
			<point x="267" y="304"/>
			<point x="254" y="288" type="qcurve" smooth="yes"/>
			<point x="242" y="272"/>
			<point x="236" y="254" type="qcurve" smooth="yes"/>
			<point x="231" y="236"/>
			<point x="231" y="220" type="qcurve" smooth="yes"/>
			<point x="231" y="192"/>
			<point x="241" y="172" type="qcurve" smooth="yes"/>
			<point x="252" y="152"/>
			<point x="267" y="140" type="qcurve" smooth="yes"/>
			<point x="283" y="128"/>
			<point x="301" y="122" type="qcurve" smooth="yes"/>
			<point x="319" y="116"/>
			<point x="335" y="116" type="qcurve" smooth="yes"/>
			<point x="491" y="116"/>
			<point x="569" y="116" type="qcurve" smooth="yes"/>
			<point x="597" y="116"/>
			<point x="617" y="127" type="qcurve" smooth="yes"/>
			<point x="637" y="137"/>
			<point x="650" y="153" type="qcurve" smooth="yes"/>
			<point x="663" y="168"/>
			<point x="668" y="186" type="qcurve" smooth="yes"/>
			<point x="673" y="204"/>
			<point x="673" y="220" type="qcurve"/>
		</contour>
	</outline>
</glyph>
<glyph name="B" format="2">
	<advance width="750"/>
	<unicode hex="0042"/>
	<note>
		B
  </note>
	<outline>
		<contour>
			<point x="726" y="157" type="line"/>
			<point x="726" y="174"/>
			<point x="726" y="183" type="qcurve" smooth="yes"/>
			<point x="726" y="220"/>
			<point x="718" y="252" type="qcurve" smooth="yes"/>
			<point x="709" y="284"/>
			<point x="695" y="308" type="qcurve" smooth="yes"/>
			<point x="680" y="333"/>
			<point x="661" y="352" type="qcurve" smooth="yes"/>
			<point x="641" y="372"/>
			<point x="620" y="385" type="qcurve"/>
			<point x="645" y="420"/>
			<point x="656" y="460" type="qcurve" smooth="yes"/>
			<point x="668" y="500"/>
			<point x="668" y="535" type="qcurve" smooth="yes"/>
			<point x="668" y="551"/>
			<point x="668" y="559" type="qcurve" smooth="yes"/>
			<point x="668" y="603"/>
			<point x="652" y="633" type="qcurve" smooth="yes"/>
			<point x="636" y="663"/>
			<point x="612" y="681" type="qcurve" smooth="yes"/>
			<point x="589" y="700"/>
			<point x="562" y="708" type="qcurve" smooth="yes"/>
			<point x="534" y="717"/>
			<point x="510" y="717" type="qcurve" smooth="yes"/>
			<point x="263" y="717"/>
			<point x="140" y="717" type="qcurve" smooth="yes"/>
			<point x="126" y="717"/>
			<point x="114" y="712" type="qcurve" smooth="yes"/>
			<point x="102" y="707"/>
			<point x="93" y="698" type="qcurve" smooth="yes"/>
			<point x="84" y="689"/>
			<point x="80" y="677" type="qcurve" smooth="yes"/>
			<point x="75" y="665"/>
			<point x="75" y="652" type="qcurve" smooth="yes"/>
			<point x="75" y="261"/>
			<point x="75" y="65" type="qcurve" smooth="yes"/>
			<point x="75" y="52"/>
			<point x="80" y="40" type="qcurve" smooth="yes"/>
			<point x="84" y="28"/>
			<point x="93" y="19" type="qcurve" smooth="yes"/>
			<point x="102" y="10"/>
			<point x="114" y="5" type="qcurve" smooth="yes"/>
			<point x="126" y="0"/>
			<point x="140" y="0" type="qcurve" smooth="yes"/>
			<point x="426" y="0"/>
			<point x="568" y="0" type="qcurve" smooth="yes"/>
			<point x="612" y="0"/>
			<point x="642" y="16" type="qcurve" smooth="yes"/>
			<point x="672" y="32"/>
			<point x="691" y="55" type="qcurve" smooth="yes"/>
			<point x="709" y="79"/>
			<point x="718" y="106" type="qcurve" smooth="yes"/>
			<point x="726" y="133"/>
			<point x="726" y="157" type="qcurve"/>
		</contour>
		<contour>
			<point x="596" y="183" type="line"/>
			<point x="596" y="167"/>
			<point x="596" y="159" type="qcurve" smooth="yes"/>
			<point x="596" y="148"/>
			<point x="593" y="142" type="qcurve" smooth="yes"/>
			<point x="590" y="136"/>
			<point x="586" y="133" type="qcurve" smooth="yes"/>
			<point x="582" y="131"/>
			<point x="577" y="130" type="qcurve" smooth="yes"/>
			<point x="572" y="130"/>
			<point x="568" y="130" type="qcurve" smooth="yes"/>
			<point x="295" y="130"/>
			<point x="204" y="130" type="qcurve"/>
			<point x="204" y="473"/>
			<point x="204" y="587" type="qcurve"/>
			<point x="408" y="587"/>
			<point x="510" y="587" type="qcurve" smooth="yes"/>
			<point x="537" y="587"/>
			<point x="537" y="559" type="qcurve" smooth="yes"/>
			<point x="537" y="543"/>
			<point x="537" y="535" type="qcurve" smooth="yes"/>
			<point x="537" y="509"/>
			<point x="529" y="489" type="qcurve" smooth="yes"/>
			<point x="521" y="468"/>
			<point x="507" y="454" type="qcurve" smooth="yes"/>
			<point x="492" y="440"/>
			<point x="472" y="432" type="qcurve" smooth="yes"/>
			<point x="452" y="424"/>
			<point x="426" y="424" type="qcurve" smooth="yes"/>
			<point x="291" y="424"/>
			<point x="247" y="424" type="qcurve"/>
			<point x="247" y="326"/>
			<point x="247" y="293" type="qcurve"/>
			<point x="405" y="293"/>
			<point x="484" y="293" type="qcurve" smooth="yes"/>
			<point x="510" y="293"/>
			<point x="531" y="285" type="qcurve" smooth="yes"/>
			<point x="551" y="277"/>
			<point x="565" y="263" type="qcurve" smooth="yes"/>
			<point x="580" y="248"/>
			<point x="588" y="228" type="qcurve" smooth="yes"/>
			<point x="596" y="208"/>
			<point x="596" y="183" type="qcurve"/>
		</contour>
	</outline>
</glyph>
<glyph name="C" format="2">
	<advance width="750"/>
	<unicode hex="0043"/>
	<note>
		C
  </note>
	<outline>
		<contour>
			<point x="672" y="0" type="line"/>
			<point x="672" y="97"/>
			<point x="672" y="130" type="qcurve"/>
			<point x="390" y="130"/>
			<point x="248" y="130" type="qcurve" smooth="yes"/>
			<point x="224" y="130"/>
			<point x="210" y="144" type="qcurve" smooth="yes"/>
			<point x="196" y="157"/>
			<point x="196" y="183" type="qcurve" smooth="yes"/>
			<point x="196" y="416"/>
			<point x="196" y="533" type="qcurve" smooth="yes"/>
			<point x="196" y="560"/>
			<point x="210" y="574" type="qcurve" smooth="yes"/>
			<point x="223" y="587"/>
			<point x="248" y="587" type="qcurve" smooth="yes"/>
			<point x="566" y="587"/>
			<point x="672" y="587" type="qcurve"/>
			<point x="672" y="684"/>
			<point x="672" y="717" type="qcurve"/>
			<point x="390" y="717"/>
			<point x="248" y="717" type="qcurve" smooth="yes"/>
			<point x="215" y="717"/>
			<point x="188" y="708" type="qcurve" smooth="yes"/>
			<point x="162" y="700"/>
			<point x="141" y="685" type="qcurve" smooth="yes"/>
			<point x="121" y="672"/>
			<point x="107" y="653" type="qcurve" smooth="yes"/>
			<point x="92" y="635"/>
			<point x="84" y="614" type="qcurve" smooth="yes"/>
			<point x="75" y="594"/>
			<point x="70" y="573" type="qcurve" smooth="yes"/>
			<point x="66" y="552"/>
			<point x="66" y="535" type="qcurve" smooth="yes"/>
			<point x="66" y="300"/>
			<point x="66" y="183" type="qcurve" smooth="yes"/>
			<point x="66" y="149"/>
			<point x="74" y="122" type="qcurve" smooth="yes"/>
			<point x="83" y="96"/>
			<point x="97" y="75" type="qcurve" smooth="yes"/>
			<point x="112" y="55"/>
			<point x="130" y="41" type="qcurve" smooth="yes"/>
			<point x="148" y="27"/>
			<point x="168" y="17" type="qcurve" smooth="yes"/>
			<point x="189" y="8"/>
			<point x="210" y="4" type="qcurve" smooth="yes"/>
			<point x="231" y="0"/>
			<point x="248" y="0" type="qcurve" smooth="yes"/>
			<point x="566" y="0"/>
			<point x="672" y="0" type="qcurve"/>
		</contour>
	</outline>
</glyph>
<glyph name="F" format="2">
	<advance width="750"/>
	<unicode hex="0046"/>
	<note>
		F
  </note>
	<outline>
		<contour>
			<point x="653" y="293" type="line"/>
			<point x="653" y="391"/>
			<point x="653" y="424" type="qcurve"/>
			<point x="356" y="424"/>
			<point x="257" y="424" type="qcurve"/>
			<point x="257" y="326"/>
			<point x="257" y="293" type="qcurve"/>
			<point x="554" y="293"/>
			<point x="653" y="293" type="qcurve"/>
		</contour>
		<contour>
			<point x="712" y="587" type="line"/>
			<point x="712" y="684"/>
			<point x="712" y="717" type="qcurve"/>
			<point x="331" y="717"/>
			<point x="141" y="717" type="qcurve" smooth="yes"/>
			<point x="127" y="717"/>
			<point x="115" y="712" type="qcurve" smooth="yes"/>
			<point x="103" y="707"/>
			<point x="94" y="698" type="qcurve" smooth="yes"/>
			<point x="85" y="689"/>
			<point x="80" y="677" type="qcurve" smooth="yes"/>
			<point x="76" y="665"/>
			<point x="76" y="652" type="qcurve" smooth="yes"/>
			<point x="76" y="163"/>
			<point x="76" y="0" type="qcurve"/>
			<point x="173" y="0"/>
			<point x="205" y="0" type="qcurve"/>
			<point x="205" y="440"/>
			<point x="205" y="587" type="qcurve"/>
			<point x="585" y="587"/>
			<point x="712" y="587" type="qcurve"/>
		</contour>
	</outline>
</glyph>
<glyph name="H" format="2">
	<advance width="750"/>
	<unicode hex="0048"/>
	<note>
		H
  </note>
	<outline>
		<contour>
			<point x="207" y="424" type="line"/>
			<point x="207" y="644"/>
			<point x="207" y="717" type="qcurve"/>
			<point x="109" y="717"/>
			<point x="76" y="717" type="qcurve"/>
			<point x="76" y="179"/>
			<point x="76" y="0" type="qcurve"/>
			<point x="174" y="0"/>
			<point x="207" y="0" type="qcurve"/>
			<point x="207" y="220"/>
			<point x="207" y="293" type="qcurve"/>
			<point x="478" y="293"/>
			<point x="568" y="293" type="qcurve"/>
			<point x="568" y="73"/>
			<point x="568" y="0" type="qcurve"/>
			<point x="665" y="0"/>
			<point x="698" y="0" type="qcurve"/>
			<point x="698" y="538"/>
			<point x="698" y="717" type="qcurve"/>
			<point x="600" y="717"/>
			<point x="568" y="717" type="qcurve"/>
			<point x="568" y="497"/>
			<point x="568" y="424" type="qcurve"/>
			<point x="297" y="424"/>
			<point x="207" y="424" type="qcurve"/>
		</contour>
	</outline>
</glyph>
<glyph name="I" format="2">
	<advance width="750"/>
	<unicode hex="0049"/>
	<note>
		I
  </note>
	<outline>
		<contour>
			<point x="456" y="0" type="line"/>
			<point x="456" y="538"/>
			<point x="456" y="717" type="qcurve"/>
			<point x="359" y="717"/>
			<point x="327" y="717" type="qcurve"/>
			<point x="327" y="179"/>
			<point x="327" y="0" type="qcurve"/>
			<point x="424" y="0"/>
			<point x="456" y="0" type="qcurve"/>
		</contour>
	</outline>
</glyph>
<glyph name="J" format="2">
	<advance width="750"/>
	<unicode hex="004A"/>
	<note>
		J
  </note>
	<outline>
		<contour>
			<point x="679" y="183" type="line"/>
			<point x="679" y="583"/>
			<point x="679" y="717" type="qcurve"/>
			<point x="580" y="717"/>
			<point x="548" y="717" type="qcurve"/>
			<point x="548" y="361"/>
			<point x="548" y="183" type="qcurve" smooth="yes"/>
			<point x="548" y="157"/>
			<point x="534" y="144" type="qcurve" smooth="yes"/>
			<point x="520" y="130"/>
			<point x="496" y="130" type="qcurve" smooth="yes"/>
			<point x="192" y="130"/>
			<point x="90" y="130" type="qcurve"/>
			<point x="90" y="32"/>
			<point x="90" y="0" type="qcurve"/>
			<point x="361" y="0"/>
			<point x="496" y="0" type="qcurve" smooth="yes"/>
			<point x="536" y="0"/>
			<point x="570" y="14" type="qcurve" smooth="yes"/>
			<point x="603" y="28"/>
			<point x="627" y="52" type="qcurve" smooth="yes"/>
			<point x="652" y="76"/>
			<point x="665" y="110" type="qcurve" smooth="yes"/>
			<point x="679" y="144"/>
			<point x="679" y="183" type="qcurve"/>
		</contour>
	</outline>
</glyph>
<glyph name="K" format="2">
	<advance width="750"/>
	<unicode hex="004B"/>
	<note>
		K
  </note>
	<outline>
		<contour>
			<point x="757" y="0" type="line"/>
			<point x="481" y="269"/>
			<point x="388" y="359" type="qcurve"/>
			<point x="665" y="627"/>
			<point x="757" y="717" type="qcurve"/>
			<point x="619" y="717"/>
			<point x="572" y="717" type="qcurve"/>
			<point x="353" y="497"/>
			<point x="280" y="424" type="qcurve"/>
			<point x="245" y="424"/>
			<point x="233" y="424" type="qcurve"/>
			<point x="233" y="326"/>
			<point x="233" y="293" type="qcurve"/>
			<point x="268" y="293"/>
			<point x="280" y="293" type="qcurve"/>
			<point x="499" y="73"/>
			<point x="572" y="0" type="qcurve"/>
			<point x="711" y="0"/>
			<point x="757" y="0" type="qcurve"/>
		</contour>
		<contour>
			<point x="207" y="0" type="line"/>
			<point x="207" y="538"/>
			<point x="207" y="717" type="qcurve"/>
			<point x="109" y="717"/>
			<point x="76" y="717" type="qcurve"/>
			<point x="76" y="179"/>
			<point x="76" y="0" type="qcurve"/>
			<point x="174" y="0"/>
			<point x="207" y="0" type="qcurve"/>
		</contour>
	</outline>
</glyph>
<glyph name="L" format="2">
	<advance width="750"/>
	<unicode hex="004C"/>
	<note>
		L
  </note>
	<outline>
		<contour>
			<point x="729" y="0" type="line"/>
			<point x="729" y="97"/>
			<point x="729" y="130" type="qcurve"/>
			<point x="336" y="130"/>
			<point x="205" y="130" type="qcurve"/>
			<point x="205" y="570"/>
			<point x="205" y="717" type="qcurve"/>
			<point x="108" y="717"/>
			<point x="76" y="717" type="qcurve"/>
			<point x="76" y="283"/>
			<point x="76" y="65" type="qcurve" smooth="yes"/>
			<point x="76" y="52"/>
			<point x="80" y="40" type="qcurve" smooth="yes"/>
			<point x="85" y="28"/>
			<point x="94" y="19" type="qcurve" smooth="yes"/>
			<point x="103" y="10"/>
			<point x="115" y="5" type="qcurve" smooth="yes"/>
			<point x="127" y="0"/>
			<point x="141" y="0" type="qcurve" smooth="yes"/>
			<point x="582" y="0"/>
			<point x="729" y="0" type="qcurve"/>
		</contour>
	</outline>
</glyph>
<glyph name="M" format="2">
	<advance width="750"/>
	<unicode hex="004D"/>
	<note>
		M
  </note>
	<outline>
		<contour>
			<point x="745" y="0" type="line"/>
			<point x="745" y="441"/>
			<point x="745" y="661" type="qcurve" smooth="yes"/>
			<point x="745" y="684"/>
			<point x="732" y="701" type="qcurve" smooth="yes"/>
			<point x="718" y="719"/>
			<point x="697" y="725" type="qcurve" smooth="yes"/>
			<point x="688" y="728"/>
			<point x="679" y="727" type="qcurve" smooth="yes"/>
			<point x="667" y="727"/>
			<point x="655" y="723" type="qcurve" smooth="yes"/>
			<point x="630" y="712"/>
			<point x="623" y="696" type="qcurve" smooth="yes"/>
			<point x="461" y="310"/>
			<point x="407" y="181" type="qcurve"/>
			<point x="266" y="524"/>
			<point x="196" y="696" type="qcurve" smooth="yes"/>
			<point x="193" y="703"/>
			<point x="183" y="712" type="qcurve" smooth="yes"/>
			<point x="175" y="719"/>
			<point x="164" y="722" type="qcurve"/>
			<point x="155" y="726"/>
			<point x="145" y="727" type="qcurve" smooth="yes"/>
			<point x="134" y="728"/>
			<point x="124" y="725" type="qcurve" smooth="yes"/>
			<point x="103" y="720"/>
			<point x="89" y="701" type="qcurve" smooth="yes"/>
			<point x="76" y="684"/>
			<point x="76" y="661" type="qcurve" smooth="yes"/>
			<point x="76" y="165"/>
			<point x="76" y="0" type="qcurve"/>
			<point x="173" y="0"/>
			<point x="205" y="0" type="qcurve"/>
			<point x="205" y="320"/>
			<point x="205" y="427" type="qcurve"/>
			<point x="303" y="157"/>
			<point x="352" y="21" type="qcurve" smooth="yes"/>
			<point x="357" y="6"/>
			<point x="375" y="-2" type="qcurve" smooth="yes"/>
			<point x="393" y="-10"/>
			<point x="407" y="-10" type="qcurve" smooth="yes"/>
			<point x="424" y="-10"/>
			<point x="440" y="-2" type="qcurve" smooth="yes"/>
			<point x="458" y="7"/>
			<point x="464" y="21" type="qcurve" smooth="yes"/>
			<point x="576" y="326"/>
			<point x="614" y="427" type="qcurve"/>
			<point x="614" y="107"/>
			<point x="614" y="0" type="qcurve"/>
			<point x="712" y="0"/>
			<point x="745" y="0" type="qcurve"/>
		</contour>
	</outline>
</glyph>
<glyph name="N" format="2">
	<advance width="750"/>
	<unicode hex="004E"/>
	<note>
		N
  </note>
	<outline>
		<contour>
			<point x="692" y="56" type="line"/>
			<point x="692" y="552"/>
			<point x="692" y="717" type="qcurve"/>
			<point x="594" y="717"/>
			<point x="562" y="717" type="qcurve"/>
			<point x="562" y="338"/>
			<point x="562" y="212" type="qcurve"/>
			<point x="312" y="542"/>
			<point x="187" y="708" type="qcurve" smooth="yes"/>
			<point x="176" y="722"/>
			<point x="153" y="726" type="qcurve" smooth="yes"/>
			<point x="147" y="727"/>
			<point x="141" y="727" type="qcurve" smooth="yes"/>
			<point x="128" y="727"/>
			<point x="116" y="722" type="qcurve" smooth="yes"/>
			<point x="99" y="716"/>
			<point x="87" y="698" type="qcurve" smooth="yes"/>
			<point x="76" y="681"/>
			<point x="76" y="661" type="qcurve" smooth="yes"/>
			<point x="76" y="165"/>
			<point x="76" y="0" type="qcurve"/>
			<point x="173" y="0"/>
			<point x="205" y="0" type="qcurve"/>
			<point x="205" y="379"/>
			<point x="205" y="505" type="qcurve"/>
			<point x="455" y="174"/>
			<point x="580" y="9" type="qcurve" smooth="yes"/>
			<point x="588" y="-1"/>
			<point x="602" y="-5" type="qcurve" smooth="yes"/>
			<point x="616" y="-10"/>
			<point x="627" y="-10" type="qcurve" smooth="yes"/>
			<point x="640" y="-10"/>
			<point x="652" y="-5" type="qcurve" smooth="yes"/>
			<point x="664" y="0"/>
			<point x="672" y="8" type="qcurve" smooth="yes"/>
			<point x="681" y="17"/>
			<point x="687" y="29" type="qcurve" smooth="yes"/>
			<point x="692" y="41"/>
			<point x="692" y="56" type="qcurve"/>
		</contour>
	</outline>
</glyph>
<glyph name="O" format="2">
	<advance width="750"/>
	<unicode hex="004F"/>
	<note>
		O
  </note>
	<outline>
		<contour>
			<point x="723" y="290" type="line"/>
			<point x="723" y="381"/>
			<point x="723" y="427" type="qcurve" smooth="yes"/>
			<point x="723" y="492"/>
			<point x="701" y="547" type="qcurve" smooth="yes"/>
			<point x="678" y="603"/>
			<point x="638" y="642" type="qcurve" smooth="yes"/>
			<point x="598" y="682"/>
			<point x="543" y="704" type="qcurve" smooth="yes"/>
			<point x="488" y="727"/>
			<point x="424" y="727" type="qcurve" smooth="yes"/>
			<point x="377" y="727"/>
			<point x="353" y="727" type="qcurve" smooth="yes"/>
			<point x="288" y="727"/>
			<point x="234" y="704" type="qcurve" smooth="yes"/>
			<point x="179" y="682"/>
			<point x="139" y="642" type="qcurve" smooth="yes"/>
			<point x="99" y="603"/>
			<point x="76" y="547" type="qcurve" smooth="yes"/>
			<point x="53" y="492"/>
			<point x="53" y="427" type="qcurve" smooth="yes"/>
			<point x="53" y="336"/>
			<point x="53" y="290" type="qcurve" smooth="yes"/>
			<point x="53" y="224"/>
			<point x="76" y="170" type="qcurve" smooth="yes"/>
			<point x="99" y="115"/>
			<point x="139" y="75" type="qcurve" smooth="yes"/>
			<point x="179" y="35"/>
			<point x="234" y="12" type="qcurve" smooth="yes"/>
			<point x="288" y="-10"/>
			<point x="353" y="-10" type="qcurve" smooth="yes"/>
			<point x="400" y="-10"/>
			<point x="424" y="-10" type="qcurve" smooth="yes"/>
			<point x="488" y="-10"/>
			<point x="543" y="12" type="qcurve" smooth="yes"/>
			<point x="598" y="35"/>
			<point x="638" y="75" type="qcurve" smooth="yes"/>
			<point x="678" y="115"/>
			<point x="701" y="170" type="qcurve" smooth="yes"/>
			<point x="723" y="224"/>
			<point x="723" y="290" type="qcurve"/>
		</contour>
		<contour>
			<point x="593" y="427" type="line"/>
			<point x="593" y="336"/>
			<point x="593" y="290" type="qcurve" smooth="yes"/>
			<point x="593" y="252"/>
			<point x="581" y="220" type="qcurve" smooth="yes"/>
			<point x="568" y="189"/>
			<point x="546" y="167" type="qcurve" smooth="yes"/>
			<point x="524" y="144"/>
			<point x="492" y="132" type="qcurve" smooth="yes"/>
			<point x="461" y="120"/>
			<point x="423" y="120" type="qcurve" smooth="yes"/>
			<point x="376" y="120"/>
			<point x="353" y="120" type="qcurve" smooth="yes"/>
			<point x="315" y="120"/>
			<point x="284" y="132" type="qcurve" smooth="yes"/>
			<point x="252" y="144"/>
			<point x="230" y="167" type="qcurve" smooth="yes"/>
			<point x="208" y="189"/>
			<point x="195" y="220" type="qcurve" smooth="yes"/>
			<point x="183" y="252"/>
			<point x="183" y="290" type="qcurve" smooth="yes"/>
			<point x="183" y="381"/>
			<point x="183" y="427" type="qcurve" smooth="yes"/>
			<point x="183" y="465"/>
			<point x="195" y="497" type="qcurve" smooth="yes"/>
			<point x="208" y="528"/>
			<point x="230" y="550" type="qcurve" smooth="yes"/>
			<point x="252" y="572"/>
			<point x="284" y="585" type="qcurve" smooth="yes"/>
			<point x="315" y="597"/>
			<point x="353" y="597" type="qcurve" smooth="yes"/>
			<point x="400" y="597"/>
			<point x="424" y="597" type="qcurve" smooth="yes"/>
			<point x="461" y="597"/>
			<point x="493" y="585" type="qcurve" smooth="yes"/>
			<point x="524" y="572"/>
			<point x="546" y="550" type="qcurve" smooth="yes"/>
			<point x="568" y="528"/>
			<point x="581" y="497" type="qcurve" smooth="yes"/>
			<point x="593" y="465"/>
			<point x="593" y="427" type="qcurve"/>
		</contour>
	</outline>
</glyph>
<glyph name="P" format="2">
	<advance width="750"/>
	<unicode hex="0050"/>
	<note>
		P
  </note>
	<outline>
		<contour>
			<point x="695" y="417" type="line"/>
			<point x="695" y="456"/>
			<point x="695" y="476" type="qcurve" smooth="yes"/>
			<point x="695" y="500"/>
			<point x="690" y="527" type="qcurve" smooth="yes"/>
			<point x="684" y="555"/>
			<point x="672" y="581" type="qcurve" smooth="yes"/>
			<point x="660" y="608"/>
			<point x="641" y="632" type="qcurve" smooth="yes"/>
			<point x="622" y="657"/>
			<point x="595" y="676" type="qcurve" smooth="yes"/>
			<point x="568" y="695"/>
			<point x="534" y="706" type="qcurve" smooth="yes"/>
			<point x="499" y="717"/>
			<point x="455" y="717" type="qcurve" smooth="yes"/>
			<point x="322" y="717"/>
			<point x="256" y="717" type="qcurve" smooth="yes"/>
			<point x="228" y="717"/>
			<point x="196" y="707" type="qcurve" smooth="yes"/>
			<point x="164" y="697"/>
			<point x="137" y="676" type="qcurve" smooth="yes"/>
			<point x="110" y="655"/>
			<point x="92" y="620" type="qcurve" smooth="yes"/>
			<point x="73" y="584"/>
			<point x="73" y="535" type="qcurve" smooth="yes"/>
			<point x="73" y="134"/>
			<point x="73" y="0" type="qcurve"/>
			<point x="171" y="0"/>
			<point x="204" y="0" type="qcurve"/>
			<point x="204" y="356"/>
			<point x="204" y="535" type="qcurve" smooth="yes"/>
			<point x="204" y="560"/>
			<point x="217" y="574" type="qcurve" smooth="yes"/>
			<point x="231" y="587"/>
			<point x="256" y="587" type="qcurve" smooth="yes"/>
			<point x="389" y="587"/>
			<point x="455" y="587" type="qcurve" smooth="yes"/>
			<point x="480" y="587"/>
			<point x="500" y="579" type="qcurve" smooth="yes"/>
			<point x="519" y="571"/>
			<point x="532" y="556" type="qcurve" smooth="yes"/>
			<point x="547" y="541"/>
			<point x="555" y="521" type="qcurve" smooth="yes"/>
			<point x="563" y="500"/>
			<point x="565" y="476" type="qcurve"/>
			<point x="565" y="437"/>
			<point x="565" y="417" type="qcurve" smooth="yes"/>
			<point x="565" y="392"/>
			<point x="557" y="372" type="qcurve" smooth="yes"/>
			<point x="549" y="352"/>
			<point x="535" y="339" type="qcurve" smooth="yes"/>
			<point x="520" y="324"/>
			<point x="500" y="316" type="qcurve" smooth="yes"/>
			<point x="480" y="308"/>
			<point x="455" y="306" type="qcurve"/>
			<point x="305" y="306"/>
			<point x="256" y="306" type="qcurve"/>
			<point x="256" y="208"/>
			<point x="256" y="176" type="qcurve"/>
			<point x="388" y="176"/>
			<point x="455" y="176" type="qcurve" smooth="yes"/>
			<point x="479" y="176"/>
			<point x="506" y="182" type="qcurve" smooth="yes"/>
			<point x="533" y="187"/>
			<point x="560" y="199" type="qcurve" smooth="yes"/>
			<point x="587" y="211"/>
			<point x="611" y="230" type="qcurve" smooth="yes"/>
			<point x="636" y="249"/>
			<point x="654" y="276" type="qcurve" smooth="yes"/>
			<point x="673" y="303"/>
			<point x="684" y="338" type="qcurve" smooth="yes"/>
			<point x="695" y="372"/>
			<point x="695" y="417" type="qcurve"/>
		</contour>
	</outline>
</glyph>
<glyph name="Q" format="2">
	<advance width="750"/>
	<unicode hex="0051"/>
	<note>
		Q
  </note>
	<outline>
		<contour>
			<point x="693" y="290" type="line"/>
			<point x="693" y="381"/>
			<point x="693" y="427" type="qcurve" smooth="yes"/>
			<point x="693" y="492"/>
			<point x="670" y="547" type="qcurve" smooth="yes"/>
			<point x="648" y="603"/>
			<point x="608" y="642" type="qcurve" smooth="yes"/>
			<point x="568" y="682"/>
			<point x="513" y="704" type="qcurve" smooth="yes"/>
			<point x="459" y="727"/>
			<point x="394" y="727" type="qcurve" smooth="yes"/>
			<point x="367" y="727"/>
			<point x="353" y="727" type="qcurve" smooth="yes"/>
			<point x="288" y="727"/>
			<point x="234" y="704" type="qcurve" smooth="yes"/>
			<point x="179" y="682"/>
			<point x="139" y="642" type="qcurve" smooth="yes"/>
			<point x="99" y="603"/>
			<point x="76" y="547" type="qcurve" smooth="yes"/>
			<point x="53" y="492"/>
			<point x="53" y="427" type="qcurve" smooth="yes"/>
			<point x="53" y="336"/>
			<point x="53" y="290" type="qcurve" smooth="yes"/>
			<point x="53" y="224"/>
			<point x="76" y="170" type="qcurve" smooth="yes"/>
			<point x="99" y="115"/>
			<point x="139" y="75" type="qcurve" smooth="yes"/>
			<point x="179" y="35"/>
			<point x="234" y="12" type="qcurve" smooth="yes"/>
			<point x="288" y="-10"/>
			<point x="353" y="-10" type="qcurve" smooth="yes"/>
			<point x="348" y="-10"/>
			<point x="346" y="-10" type="qcurve"/>
			<point x="440" y="-85"/>
			<point x="471" y="-111" type="qcurve"/>
			<point x="612" y="-111"/>
			<point x="660" y="-111" type="qcurve"/>
			<point x="558" y="-30"/>
			<point x="508" y="10" type="qcurve"/>
			<point x="549" y="25"/>
			<point x="584" y="52" type="qcurve" smooth="yes"/>
			<point x="618" y="80"/>
			<point x="642" y="116" type="qcurve" smooth="yes"/>
			<point x="667" y="152"/>
			<point x="680" y="196" type="qcurve" smooth="yes"/>
			<point x="693" y="240"/>
			<point x="693" y="290" type="qcurve"/>
		</contour>
		<contour>
			<point x="563" y="427" type="line"/>
			<point x="563" y="336"/>
			<point x="563" y="290" type="qcurve" smooth="yes"/>
			<point x="563" y="252"/>
			<point x="551" y="220" type="qcurve" smooth="yes"/>
			<point x="539" y="189"/>
			<point x="516" y="167" type="qcurve" smooth="yes"/>
			<point x="493" y="144"/>
			<point x="462" y="132" type="qcurve" smooth="yes"/>
			<point x="431" y="120"/>
			<point x="393" y="120" type="qcurve" smooth="yes"/>
			<point x="366" y="120"/>
			<point x="353" y="120" type="qcurve" smooth="yes"/>
			<point x="315" y="120"/>
			<point x="284" y="132" type="qcurve" smooth="yes"/>
			<point x="252" y="144"/>
			<point x="230" y="167" type="qcurve" smooth="yes"/>
			<point x="208" y="189"/>
			<point x="195" y="220" type="qcurve" smooth="yes"/>
			<point x="183" y="252"/>
			<point x="183" y="290" type="qcurve" smooth="yes"/>
			<point x="183" y="381"/>
			<point x="183" y="427" type="qcurve" smooth="yes"/>
			<point x="183" y="465"/>
			<point x="195" y="497" type="qcurve" smooth="yes"/>
			<point x="208" y="528"/>
			<point x="230" y="550" type="qcurve" smooth="yes"/>
			<point x="252" y="572"/>
			<point x="284" y="585" type="qcurve" smooth="yes"/>
			<point x="315" y="597"/>
			<point x="353" y="597" type="qcurve" smooth="yes"/>
			<point x="380" y="597"/>
			<point x="394" y="597" type="qcurve" smooth="yes"/>
			<point x="432" y="597"/>
			<point x="463" y="585" type="qcurve" smooth="yes"/>
			<point x="494" y="572"/>
			<point x="516" y="550" type="qcurve" smooth="yes"/>
			<point x="539" y="528"/>
			<point x="551" y="497" type="qcurve" smooth="yes"/>
			<point x="563" y="465"/>
			<point x="563" y="427" type="qcurve"/>
		</contour>
	</outline>
</glyph>
<glyph name="T" format="2">
	<advance width="750"/>
	<unicode hex="0054"/>
	<note>
		T
  </note>
	<outline>
		<contour>
			<point x="724" y="587" type="line"/>
			<point x="724" y="684"/>
			<point x="724" y="717" type="qcurve"/>
			<point x="196" y="717"/>
			<point x="20" y="717" type="qcurve"/>
			<point x="20" y="620"/>
			<point x="20" y="587" type="qcurve"/>
			<point x="235" y="587"/>
			<point x="307" y="587" type="qcurve"/>
			<point x="307" y="147"/>
			<point x="307" y="0" type="qcurve"/>
			<point x="404" y="0"/>
			<point x="437" y="0" type="qcurve"/>
			<point x="437" y="440"/>
			<point x="437" y="587" type="qcurve"/>
			<point x="652" y="587"/>
			<point x="724" y="587" type="qcurve"/>
		</contour>
	</outline>
</glyph>
<glyph name="V" format="2">
	<advance width="750"/>
	<unicode hex="0056"/>
	<note>
		V
  </note>
	<outline>
		<contour>
			<point x="753" y="717" type="line"/>
			<point x="644" y="717"/>
			<point x="608" y="717" type="qcurve"/>
			<point x="441" y="330"/>
			<point x="385" y="200" type="qcurve"/>
			<point x="222" y="588"/>
			<point x="168" y="717" type="qcurve"/>
			<point x="59" y="717"/>
			<point x="23" y="717" type="qcurve"/>
			<point x="225" y="256"/>
			<point x="327" y="25" type="qcurve" smooth="yes"/>
			<point x="333" y="10"/>
			<point x="351" y="0" type="qcurve" smooth="yes"/>
			<point x="367" y="-10"/>
			<point x="385" y="-10" type="qcurve" smooth="yes"/>
			<point x="404" y="-10"/>
			<point x="420" y="0" type="qcurve" smooth="yes"/>
			<point x="436" y="9"/>
			<point x="444" y="25" type="qcurve" smooth="yes"/>
			<point x="676" y="544"/>
			<point x="753" y="717" type="qcurve"/>
		</contour>
	</outline>
</glyph>
<glyph name="X" format="2">
	<advance width="750"/>
	<unicode hex="0058"/>
	<note>
		X
  </note>
	<outline>
		<contour>
			<point x="378" y="461" type="line"/>
			<point x="229" y="653"/>
			<point x="179" y="717" type="qcurve"/>
			<point x="47" y="717"/>
			<point x="3" y="717" type="qcurve"/>
			<point x="218" y="447"/>
			<point x="290" y="357" type="qcurve"/>
			<point x="75" y="89"/>
			<point x="4" y="0" type="qcurve"/>
			<point x="137" y="0"/>
			<point x="181" y="0" type="qcurve"/>
			<point x="329" y="191"/>
			<point x="378" y="254" type="qcurve"/>
			<point x="526" y="64"/>
			<point x="576" y="0" type="qcurve"/>
			<point x="708" y="0"/>
			<point x="752" y="0" type="qcurve"/>
			<point x="538" y="268"/>
			<point x="466" y="357" type="qcurve"/>
			<point x="682" y="627"/>
			<point x="755" y="717" type="qcurve"/>
			<point x="621" y="717"/>
			<point x="577" y="717" type="qcurve"/>
			<point x="428" y="525"/>
			<point x="378" y="461" type="qcurve"/>
		</contour>
	</outline>
</glyph>
<glyph name="Z" format="2">
	<advance width="750"/>
	<unicode hex="005A"/>
	<note>
		Z
  </note>
	<outline>
		<contour>
			<point x="689" y="678" type="line"/>
			<point x="681" y="696"/>
			<point x="665" y="706" type="qcurve" smooth="yes"/>
			<point x="648" y="717"/>
			<point x="629" y="717" type="qcurve" smooth="yes"/>
			<point x="189" y="717"/>
			<point x="43" y="717" type="qcurve"/>
			<point x="43" y="620"/>
			<point x="43" y="587" type="qcurve"/>
			<point x="373" y="587"/>
			<point x="483" y="587" type="qcurve"/>
			<point x="196" y="268"/>
			<point x="53" y="108" type="qcurve" smooth="yes"/>
			<point x="40" y="95"/>
			<point x="37" y="76" type="qcurve" smooth="yes"/>
			<point x="36" y="70"/>
			<point x="36" y="65" type="qcurve" smooth="yes"/>
			<point x="36" y="52"/>
			<point x="43" y="39" type="qcurve" smooth="yes"/>
			<point x="51" y="21"/>
			<point x="67" y="11" type="qcurve" smooth="yes"/>
			<point x="83" y="0"/>
			<point x="102" y="0" type="qcurve" smooth="yes"/>
			<point x="542" y="0"/>
			<point x="688" y="0" type="qcurve"/>
			<point x="688" y="97"/>
			<point x="688" y="130" type="qcurve"/>
			<point x="358" y="130"/>
			<point x="248" y="130" type="qcurve"/>
			<point x="534" y="449"/>
			<point x="677" y="608" type="qcurve" smooth="yes"/>
			<point x="691" y="622"/>
			<point x="694" y="641" type="qcurve"/>
			<point x="694" y="647"/>
			<point x="694" y="653" type="qcurve" smooth="yes"/>
			<point x="694" y="666"/>
			<point x="689" y="678" type="qcurve"/>
		</contour>
	</outline>
</glyph>
<glyph name="bracketleft" format="2">
	<advance width="750"/>
	<unicode hex="005B"/>
	<note>
		bracketleft
  </note>
	<outline>
		<contour>
			<point x="528" y="703" type="line"/>
			<point x="528" y="800"/>
			<point x="528" y="832" type="qcurve"/>
			<point x="392" y="832"/>
			<point x="324" y="832" type="qcurve" smooth="yes"/>
			<point x="311" y="832"/>
			<point x="298" y="828" type="qcurve" smooth="yes"/>
			<point x="286" y="823"/>
			<point x="277" y="813" type="qcurve" smooth="yes"/>
			<point x="268" y="805"/>
			<point x="262" y="793" type="qcurve" smooth="yes"/>
			<point x="257" y="781"/>
			<point x="257" y="768" type="qcurve" smooth="yes"/>
			<point x="257" y="221"/>
			<point x="257" y="-52" type="qcurve" smooth="yes"/>
			<point x="257" y="-65"/>
			<point x="262" y="-77" type="qcurve" smooth="yes"/>
			<point x="268" y="-89"/>
			<point x="276" y="-99" type="qcurve"/>
			<point x="286" y="-108"/>
			<point x="298" y="-113" type="qcurve" smooth="yes"/>
			<point x="310" y="-118"/>
			<point x="323" y="-118" type="qcurve" smooth="yes"/>
			<point x="476" y="-118"/>
			<point x="527" y="-118" type="qcurve"/>
			<point x="527" y="-19"/>
			<point x="527" y="13" type="qcurve"/>
			<point x="422" y="13"/>
			<point x="388" y="13" type="qcurve"/>
			<point x="389" y="530"/>
			<point x="389" y="703" type="qcurve"/>
			<point x="494" y="703"/>
			<point x="528" y="703" type="qcurve"/>
		</contour>
	</outline>
</glyph>
<glyph name="backslash" format="2">
	<advance width="750"/>
	<unicode hex="005C"/>
	<note>
		backslash
  </note>
	<outline>
		<contour>
			<point x="692" y="0" type="line"/>
			<point x="353" y="538"/>
			<point x="240" y="717" type="qcurve"/>
			<point x="135" y="717"/>
			<point x="100" y="717" type="qcurve"/>
			<point x="440" y="179"/>
			<point x="553" y="0" type="qcurve"/>
			<point x="658" y="0"/>
			<point x="692" y="0" type="qcurve"/>
		</contour>
	</outline>
</glyph>
<glyph name="bracketright" format="2">
	<advance width="750"/>
	<unicode hex="005D"/>
	<note>
		bracketright
  </note>
	<outline>
		<contour>
			<point x="527" y="-52" type="line"/>
			<point x="527" y="495"/>
			<point x="527" y="768" type="qcurve" smooth="yes"/>
			<point x="527" y="781"/>
			<point x="522" y="793" type="qcurve" smooth="yes"/>
			<point x="516" y="805"/>
			<point x="507" y="813" type="qcurve" smooth="yes"/>
			<point x="497" y="823"/>
			<point x="485" y="828" type="qcurve" smooth="yes"/>
			<point x="473" y="832"/>
			<point x="460" y="832" type="qcurve" smooth="yes"/>
			<point x="307" y="832"/>
			<point x="256" y="832" type="qcurve"/>
			<point x="256" y="735"/>
			<point x="256" y="703" type="qcurve"/>
			<point x="360" y="703"/>
			<point x="395" y="703" type="qcurve"/>
			<point x="396" y="186"/>
			<point x="396" y="13" type="qcurve"/>
			<point x="292" y="13"/>
			<point x="257" y="13" type="qcurve"/>
			<point x="257" y="-85"/>
			<point x="257" y="-118" type="qcurve"/>
			<point x="393" y="-118"/>
			<point x="461" y="-118" type="qcurve" smooth="yes"/>
			<point x="475" y="-118"/>
			<point x="486" y="-113" type="qcurve" smooth="yes"/>
			<point x="498" y="-108"/>
			<point x="508" y="-99" type="qcurve"/>
			<point x="516" y="-89"/>
			<point x="522" y="-77" type="qcurve" smooth="yes"/>
			<point x="527" y="-65"/>
			<point x="527" y="-52" type="qcurve"/>
		</contour>
	</outline>
</glyph>
<glyph name="asciicircum" format="2">
	<advance width="750"/>
	<unicode hex="005E"/>
	<note>
		asciicircum
  </note>
	<outline>
		<contour>
			<point x="605" y="348" type="line"/>
			<point x="605" y="472"/>
			<point x="605" y="514" type="qcurve"/>
			<point x="496" y="637"/>
			<point x="441" y="699" type="qcurve" smooth="yes"/>
			<point x="432" y="708"/>
			<point x="421" y="713" type="qcurve" smooth="yes"/>
			<point x="409" y="718"/>
			<point x="396" y="718" type="qcurve" smooth="yes"/>
			<point x="371" y="718"/>
			<point x="352" y="697" type="qcurve" smooth="yes"/>
			<point x="234" y="562"/>
			<point x="195" y="517" type="qcurve"/>
			<point x="195" y="391"/>
			<point x="195" y="349" type="qcurve"/>
			<point x="346" y="523"/>
			<point x="396" y="580" type="qcurve"/>
			<point x="553" y="406"/>
			<point x="605" y="348" type="qcurve"/>
		</contour>
	</outline>
</glyph>
<glyph name="underscore" format="2">
	<advance width="750"/>
	<unicode hex="005F"/>
	<note>
		underscore
  </note>
	<outline>
		<contour>
			<point x="755" y="-176" type="line"/>
			<point x="755" y="-89"/>
			<point x="755" y="-60" type="qcurve"/>
			<point x="187" y="-60"/>
			<point x="-2" y="-60" type="qcurve"/>
			<point x="-2" y="-147"/>
			<point x="-2" y="-176" type="qcurve"/>
			<point x="565" y="-176"/>
			<point x="755" y="-176" type="qcurve"/>
		</contour>
	</outline>
</glyph>
<glyph name="grave" format="2">
	<advance width="750"/>
	<unicode hex="0060"/>
	<note>
		grave
  </note>
	<outline>
		<contour>
			<point x="218" y="795" type="line"/>
			<point x="177" y="703"/>
			<point x="163" y="673" type="qcurve"/>
			<point x="359" y="603"/>
			<point x="424" y="580" type="qcurve"/>
			<point x="450" y="636"/>
			<point x="459" y="655" type="qcurve"/>
			<point x="278" y="760"/>
			<point x="218" y="795" type="qcurve"/>
		</contour>
	</outline>
</glyph>
<glyph name="b" format="2">
	<advance width="750"/>
	<unicode hex="0062"/>
	<note>
		b
  </note>
	<outline>
		<contour>
			<point x="682" y="183" type="line"/>
			<point x="682" y="300"/>
			<point x="682" y="359" type="qcurve" smooth="yes"/>
			<point x="682" y="392"/>
			<point x="673" y="418" type="qcurve" smooth="yes"/>
			<point x="665" y="445"/>
			<point x="651" y="465" type="qcurve" smooth="yes"/>
			<point x="637" y="485"/>
			<point x="618" y="500" type="qcurve" smooth="yes"/>
			<point x="600" y="514"/>
			<point x="580" y="523" type="qcurve" smooth="yes"/>
			<point x="560" y="532"/>
			<point x="539" y="536" type="qcurve" smooth="yes"/>
			<point x="519" y="540"/>
			<point x="500" y="540" type="qcurve" smooth="yes"/>
			<point x="324" y="540"/>
			<point x="265" y="540" type="qcurve"/>
			<point x="265" y="443"/>
			<point x="265" y="411" type="qcurve"/>
			<point x="422" y="411"/>
			<point x="500" y="411" type="qcurve" smooth="yes"/>
			<point x="523" y="411"/>
			<point x="538" y="397" type="qcurve" smooth="yes"/>
			<point x="552" y="383"/>
			<point x="552" y="359" type="qcurve" smooth="yes"/>
			<point x="552" y="241"/>
			<point x="552" y="183" type="qcurve" smooth="yes"/>
			<point x="552" y="159"/>
			<point x="538" y="144" type="qcurve" smooth="yes"/>
			<point x="524" y="130"/>
			<point x="500" y="130" type="qcurve" smooth="yes"/>
			<point x="344" y="130"/>
			<point x="265" y="130" type="qcurve" smooth="yes"/>
			<point x="243" y="130"/>
			<point x="228" y="144" type="qcurve" smooth="yes"/>
			<point x="213" y="159"/>
			<point x="213" y="183" type="qcurve" smooth="yes"/>
			<point x="213" y="622"/>
			<point x="213" y="769" type="qcurve"/>
			<point x="116" y="769"/>
			<point x="83" y="769" type="qcurve"/>
			<point x="83" y="378"/>
			<point x="83" y="183" type="qcurve" smooth="yes"/>
			<point x="83" y="149"/>
			<point x="92" y="122" type="qcurve" smooth="yes"/>
			<point x="100" y="96"/>
			<point x="114" y="75" type="qcurve" smooth="yes"/>
			<point x="128" y="55"/>
			<point x="147" y="41" type="qcurve" smooth="yes"/>
			<point x="165" y="27"/>
			<point x="185" y="17" type="qcurve" smooth="yes"/>
			<point x="206" y="8"/>
			<point x="227" y="4" type="qcurve" smooth="yes"/>
			<point x="247" y="0"/>
			<point x="265" y="0" type="qcurve" smooth="yes"/>
			<point x="422" y="0"/>
			<point x="500" y="0" type="qcurve" smooth="yes"/>
			<point x="533" y="0"/>
			<point x="560" y="8" type="qcurve" smooth="yes"/>
			<point x="587" y="17"/>
			<point x="607" y="31" type="qcurve" smooth="yes"/>
			<point x="627" y="45"/>
			<point x="641" y="64" type="qcurve" smooth="yes"/>
			<point x="656" y="83"/>
			<point x="664" y="103" type="qcurve" smooth="yes"/>
			<point x="673" y="123"/>
			<point x="678" y="144" type="qcurve" smooth="yes"/>
			<point x="682" y="164"/>
			<point x="682" y="183" type="qcurve"/>
		</contour>
	</outline>
</glyph>
<glyph name="c" format="2">
	<advance width="750"/>
	<unicode hex="0063"/>
	<note>
		c
  </note>
	<outline>
		<contour>
			<point x="635" y="0" type="line"/>
			<point x="635" y="97"/>
			<point x="635" y="130" type="qcurve"/>
			<point x="390" y="130"/>
			<point x="268" y="130" type="qcurve" smooth="yes"/>
			<point x="242" y="130"/>
			<point x="228" y="143" type="qcurve" smooth="yes"/>
			<point x="215" y="157"/>
			<point x="215" y="183" type="qcurve" smooth="yes"/>
			<point x="215" y="299"/>
			<point x="215" y="357" type="qcurve" smooth="yes"/>
			<point x="215" y="384"/>
			<point x="228" y="398" type="qcurve" smooth="yes"/>
			<point x="241" y="411"/>
			<point x="267" y="411" type="qcurve" smooth="yes"/>
			<point x="543" y="411"/>
			<point x="635" y="411" type="qcurve"/>
			<point x="635" y="508"/>
			<point x="635" y="540" type="qcurve"/>
			<point x="390" y="540"/>
			<point x="267" y="540" type="qcurve" smooth="yes"/>
			<point x="233" y="540"/>
			<point x="207" y="532" type="qcurve" smooth="yes"/>
			<point x="180" y="524"/>
			<point x="160" y="509" type="qcurve" smooth="yes"/>
			<point x="140" y="496"/>
			<point x="126" y="477" type="qcurve" smooth="yes"/>
			<point x="112" y="459"/>
			<point x="103" y="438" type="qcurve" smooth="yes"/>
			<point x="93" y="418"/>
			<point x="89" y="397" type="qcurve" smooth="yes"/>
			<point x="85" y="377"/>
			<point x="85" y="359" type="qcurve" smooth="yes"/>
			<point x="85" y="241"/>
			<point x="85" y="183" type="qcurve" smooth="yes"/>
			<point x="85" y="132"/>
			<point x="103" y="97" type="qcurve" smooth="yes"/>
			<point x="121" y="63"/>
			<point x="148" y="40" type="qcurve" smooth="yes"/>
			<point x="176" y="19"/>
			<point x="208" y="10" type="qcurve" smooth="yes"/>
			<point x="240" y="0"/>
			<point x="267" y="0" type="qcurve" smooth="yes"/>
			<point x="543" y="0"/>
			<point x="635" y="0" type="qcurve"/>
		</contour>
	</outline>
</glyph>
<glyph name="d" format="2">
	<advance width="750"/>
	<unicode hex="0064"/>
	<note>
		d
  </note>
	<outline>
		<contour>
			<point x="674" y="183" type="line"/>
			<point x="674" y="622"/>
			<point x="674" y="769" type="qcurve"/>
			<point x="576" y="769"/>
			<point x="544" y="769" type="qcurve"/>
			<point x="544" y="378"/>
			<point x="544" y="183" type="qcurve" smooth="yes"/>
			<point x="544" y="157"/>
			<point x="531" y="143" type="qcurve" smooth="yes"/>
			<point x="518" y="130"/>
			<point x="492" y="130" type="qcurve" smooth="yes"/>
			<point x="325" y="130"/>
			<point x="242" y="130" type="qcurve" smooth="yes"/>
			<point x="216" y="130"/>
			<point x="203" y="143" type="qcurve" smooth="yes"/>
			<point x="190" y="157"/>
			<point x="190" y="184" type="qcurve" smooth="yes"/>
			<point x="190" y="300"/>
			<point x="190" y="359" type="qcurve" smooth="yes"/>
			<point x="190" y="384"/>
			<point x="204" y="397" type="qcurve" smooth="yes"/>
			<point x="217" y="411"/>
			<point x="243" y="411" type="qcurve" smooth="yes"/>
			<point x="429" y="411"/>
			<point x="492" y="411" type="qcurve"/>
			<point x="492" y="508"/>
			<point x="492" y="540" type="qcurve"/>
			<point x="325" y="540"/>
			<point x="242" y="540" type="qcurve" smooth="yes"/>
			<point x="215" y="540"/>
			<point x="183" y="531" type="qcurve" smooth="yes"/>
			<point x="151" y="521"/>
			<point x="124" y="500" type="qcurve" smooth="yes"/>
			<point x="96" y="478"/>
			<point x="78" y="443" type="qcurve" smooth="yes"/>
			<point x="60" y="408"/>
			<point x="60" y="359" type="qcurve" smooth="yes"/>
			<point x="60" y="241"/>
			<point x="60" y="183" type="qcurve" smooth="yes"/>
			<point x="60" y="164"/>
			<point x="64" y="144" type="qcurve" smooth="yes"/>
			<point x="68" y="123"/>
			<point x="77" y="103" type="qcurve" smooth="yes"/>
			<point x="87" y="83"/>
			<point x="101" y="64" type="qcurve" smooth="yes"/>
			<point x="115" y="45"/>
			<point x="135" y="31" type="qcurve" smooth="yes"/>
			<point x="156" y="17"/>
			<point x="182" y="8" type="qcurve" smooth="yes"/>
			<point x="208" y="0"/>
			<point x="242" y="0" type="qcurve" smooth="yes"/>
			<point x="408" y="0"/>
			<point x="492" y="0" type="qcurve" smooth="yes"/>
			<point x="510" y="0"/>
			<point x="531" y="4" type="qcurve" smooth="yes"/>
			<point x="552" y="8"/>
			<point x="572" y="17" type="qcurve" smooth="yes"/>
			<point x="592" y="27"/>
			<point x="610" y="41" type="qcurve" smooth="yes"/>
			<point x="629" y="55"/>
			<point x="643" y="75" type="qcurve" smooth="yes"/>
			<point x="657" y="96"/>
			<point x="665" y="122" type="qcurve" smooth="yes"/>
			<point x="674" y="149"/>
			<point x="674" y="183" type="qcurve"/>
		</contour>
	</outline>
</glyph>
<glyph name="f" format="2">
	<advance width="750"/>
	<unicode hex="0066"/>
	<note>
		f
  </note>
	<outline>
		<contour>
			<point x="629" y="411" type="line"/>
			<point x="629" y="508"/>
			<point x="629" y="540" type="qcurve"/>
			<point x="386" y="540"/>
			<point x="305" y="540" type="qcurve"/>
			<point x="305" y="443"/>
			<point x="305" y="411" type="qcurve"/>
			<point x="548" y="411"/>
			<point x="629" y="411" type="qcurve"/>
		</contour>
		<contour>
			<point x="629" y="645" type="line"/>
			<point x="629" y="743"/>
			<point x="629" y="775" type="qcurve"/>
			<point x="413" y="775"/>
			<point x="305" y="775" type="qcurve" smooth="yes"/>
			<point x="287" y="775"/>
			<point x="267" y="771" type="qcurve" smooth="yes"/>
			<point x="246" y="767"/>
			<point x="225" y="757" type="qcurve" smooth="yes"/>
			<point x="205" y="748"/>
			<point x="187" y="734" type="qcurve" smooth="yes"/>
			<point x="168" y="720"/>
			<point x="154" y="700" type="qcurve" smooth="yes"/>
			<point x="140" y="680"/>
			<point x="132" y="653" type="qcurve" smooth="yes"/>
			<point x="123" y="627"/>
			<point x="123" y="593" type="qcurve" smooth="yes"/>
			<point x="123" y="148"/>
			<point x="123" y="0" type="qcurve"/>
			<point x="220" y="0"/>
			<point x="253" y="0" type="qcurve"/>
			<point x="253" y="395"/>
			<point x="253" y="593" type="qcurve" smooth="yes"/>
			<point x="253" y="619"/>
			<point x="266" y="632" type="qcurve" smooth="yes"/>
			<point x="280" y="645"/>
			<point x="307" y="645" type="qcurve" smooth="yes"/>
			<point x="549" y="645"/>
			<point x="629" y="645" type="qcurve"/>
		</contour>
	</outline>
</glyph>
<glyph name="h" format="2">
	<advance width="750"/>
	<unicode hex="0068"/>
	<note>
		h
  </note>
	<outline>
		<contour>
			<point x="682" y="0" type="line"/>
			<point x="682" y="239"/>
			<point x="682" y="359" type="qcurve" smooth="yes"/>
			<point x="682" y="392"/>
			<point x="673" y="418" type="qcurve" smooth="yes"/>
			<point x="665" y="445"/>
			<point x="651" y="465" type="qcurve" smooth="yes"/>
			<point x="637" y="485"/>
			<point x="618" y="500" type="qcurve" smooth="yes"/>
			<point x="600" y="514"/>
			<point x="580" y="523" type="qcurve" smooth="yes"/>
			<point x="560" y="532"/>
			<point x="539" y="536" type="qcurve" smooth="yes"/>
			<point x="519" y="540"/>
			<point x="500" y="540" type="qcurve" smooth="yes"/>
			<point x="324" y="540"/>
			<point x="265" y="540" type="qcurve"/>
			<point x="265" y="443"/>
			<point x="265" y="411" type="qcurve"/>
			<point x="422" y="411"/>
			<point x="500" y="411" type="qcurve" smooth="yes"/>
			<point x="526" y="411"/>
			<point x="539" y="397" type="qcurve" smooth="yes"/>
			<point x="552" y="384"/>
			<point x="552" y="359" type="qcurve" smooth="yes"/>
			<point x="552" y="90"/>
			<point x="552" y="0" type="qcurve"/>
			<point x="649" y="0"/>
			<point x="682" y="0" type="qcurve"/>
		</contour>
		<contour>
			<point x="213" y="0" type="line"/>
			<point x="213" y="577"/>
			<point x="213" y="769" type="qcurve"/>
			<point x="116" y="769"/>
			<point x="83" y="769" type="qcurve"/>
			<point x="83" y="192"/>
			<point x="83" y="0" type="qcurve"/>
			<point x="180" y="0"/>
			<point x="213" y="0" type="qcurve"/>
		</contour>
	</outline>
</glyph>
<glyph name="i" format="2">
	<advance width="750"/>
	<unicode hex="0069"/>
	<note>
		i
  </note>
	<outline>
		<contour>
			<point x="453" y="652" type="line"/>
			<point x="453" y="740"/>
			<point x="453" y="769" type="qcurve"/>
			<point x="356" y="769"/>
			<point x="323" y="769" type="qcurve"/>
			<point x="323" y="681"/>
			<point x="323" y="652" type="qcurve"/>
			<point x="420" y="652"/>
			<point x="453" y="652" type="qcurve"/>
		</contour>
		<contour>
			<point x="453" y="0" type="line"/>
			<point x="453" y="405"/>
			<point x="453" y="540" type="qcurve"/>
			<point x="356" y="540"/>
			<point x="323" y="540" type="qcurve"/>
			<point x="323" y="135"/>
			<point x="323" y="0" type="qcurve"/>
			<point x="420" y="0"/>
			<point x="453" y="0" type="qcurve"/>
		</contour>
	</outline>
</glyph>
<glyph name="j" format="2">
	<advance width="750"/>
	<unicode hex="006A"/>
	<note>
		j
  </note>
	<outline>
		<contour>
			<point x="513" y="652" type="line"/>
			<point x="513" y="740"/>
			<point x="513" y="769" type="qcurve"/>
			<point x="416" y="769"/>
			<point x="383" y="769" type="qcurve"/>
			<point x="383" y="681"/>
			<point x="383" y="652" type="qcurve"/>
			<point x="480" y="652"/>
			<point x="513" y="652" type="qcurve"/>
		</contour>
		<contour>
			<point x="513" y="-52" type="line"/>
			<point x="513" y="392"/>
			<point x="513" y="540" type="qcurve"/>
			<point x="416" y="540"/>
			<point x="383" y="540" type="qcurve"/>
			<point x="383" y="145"/>
			<point x="383" y="-52" type="qcurve" smooth="yes"/>
			<point x="383" y="-77"/>
			<point x="370" y="-91" type="qcurve" smooth="yes"/>
			<point x="357" y="-104"/>
			<point x="331" y="-104" type="qcurve" smooth="yes"/>
			<point x="80" y="-104"/>
			<point x="-4" y="-104" type="qcurve"/>
			<point x="-4" y="-202"/>
			<point x="-4" y="-235" type="qcurve"/>
			<point x="220" y="-235"/>
			<point x="331" y="-235" type="qcurve" smooth="yes"/>
			<point x="349" y="-235"/>
			<point x="370" y="-230" type="qcurve" smooth="yes"/>
			<point x="391" y="-226"/>
			<point x="411" y="-217" type="qcurve" smooth="yes"/>
			<point x="431" y="-208"/>
			<point x="450" y="-194" type="qcurve" smooth="yes"/>
			<point x="468" y="-180"/>
			<point x="482" y="-159" type="qcurve" smooth="yes"/>
			<point x="496" y="-139"/>
			<point x="504" y="-112" type="qcurve" smooth="yes"/>
			<point x="513" y="-85"/>
			<point x="513" y="-52" type="qcurve"/>
		</contour>
	</outline>
</glyph>
<glyph name="l" format="2">
	<advance width="750"/>
	<unicode hex="006C"/>
	<note>
		l
  </note>
	<outline>
		<contour>
			<point x="613" y="0" type="line"/>
			<point x="613" y="97"/>
			<point x="613" y="130" type="qcurve"/>
			<point x="435" y="130"/>
			<point x="345" y="130" type="qcurve" smooth="yes"/>
			<point x="323" y="130"/>
			<point x="308" y="144" type="qcurve" smooth="yes"/>
			<point x="293" y="159"/>
			<point x="293" y="183" type="qcurve" smooth="yes"/>
			<point x="293" y="622"/>
			<point x="293" y="769" type="qcurve"/>
			<point x="196" y="769"/>
			<point x="163" y="769" type="qcurve"/>
			<point x="163" y="378"/>
			<point x="163" y="183" type="qcurve" smooth="yes"/>
			<point x="163" y="132"/>
			<point x="181" y="97" type="qcurve" smooth="yes"/>
			<point x="199" y="63"/>
			<point x="227" y="40" type="qcurve" smooth="yes"/>
			<point x="254" y="19"/>
			<point x="286" y="10" type="qcurve" smooth="yes"/>
			<point x="317" y="0"/>
			<point x="345" y="0" type="qcurve" smooth="yes"/>
			<point x="546" y="0"/>
			<point x="613" y="0" type="qcurve"/>
		</contour>
	</outline>
</glyph>
<glyph name="m" format="2">
	<advance width="750"/>
	<unicode hex="006D"/>
	<note>
		m
  </note>
	<outline>
		<contour>
			<point x="499" y="0" type="line"/>
			<point x="499" y="239"/>
			<point x="499" y="359" type="qcurve" smooth="yes"/>
			<point x="499" y="387"/>
			<point x="492" y="411" type="qcurve"/>
			<point x="537" y="411"/>
			<point x="559" y="411" type="qcurve" smooth="yes"/>
			<point x="585" y="411"/>
			<point x="598" y="397" type="qcurve" smooth="yes"/>
			<point x="611" y="384"/>
			<point x="611" y="359" type="qcurve" smooth="yes"/>
			<point x="611" y="90"/>
			<point x="611" y="0" type="qcurve"/>
			<point x="708" y="0"/>
			<point x="741" y="0" type="qcurve"/>
			<point x="741" y="239"/>
			<point x="741" y="359" type="qcurve" smooth="yes"/>
			<point x="741" y="392"/>
			<point x="732" y="418" type="qcurve" smooth="yes"/>
			<point x="724" y="445"/>
			<point x="710" y="465" type="qcurve" smooth="yes"/>
			<point x="696" y="485"/>
			<point x="678" y="500" type="qcurve" smooth="yes"/>
			<point x="659" y="514"/>
			<point x="639" y="523" type="qcurve" smooth="yes"/>
			<point x="619" y="532"/>
			<point x="598" y="536" type="qcurve" smooth="yes"/>
			<point x="577" y="540"/>
			<point x="559" y="540" type="qcurve" smooth="yes"/>
			<point x="464" y="540"/>
			<point x="433" y="540" type="qcurve"/>
			<point x="433" y="514"/>
			<point x="433" y="500" type="qcurve"/>
			<point x="405" y="521"/>
			<point x="374" y="531" type="qcurve" smooth="yes"/>
			<point x="343" y="540"/>
			<point x="316" y="540" type="qcurve" smooth="yes"/>
			<point x="190" y="540"/>
			<point x="127" y="540" type="qcurve" smooth="yes"/>
			<point x="113" y="540"/>
			<point x="101" y="536" type="qcurve" smooth="yes"/>
			<point x="89" y="531"/>
			<point x="80" y="521" type="qcurve" smooth="yes"/>
			<point x="71" y="513"/>
			<point x="66" y="501" type="qcurve" smooth="yes"/>
			<point x="61" y="489"/>
			<point x="61" y="476" type="qcurve" smooth="yes"/>
			<point x="61" y="119"/>
			<point x="61" y="0" type="qcurve"/>
			<point x="159" y="0"/>
			<point x="191" y="0" type="qcurve"/>
			<point x="191" y="308"/>
			<point x="191" y="411" type="qcurve"/>
			<point x="274" y="411"/>
			<point x="315" y="411" type="qcurve" smooth="yes"/>
			<point x="341" y="411"/>
			<point x="355" y="397" type="qcurve" smooth="yes"/>
			<point x="368" y="384"/>
			<point x="368" y="359" type="qcurve" smooth="yes"/>
			<point x="368" y="90"/>
			<point x="368" y="0" type="qcurve"/>
			<point x="466" y="0"/>
			<point x="499" y="0" type="qcurve"/>
		</contour>
	</outline>
</glyph>
<glyph name="p" format="2">
	<advance width="750"/>
	<unicode hex="0070"/>
	<note>
		p
  </note>
	<outline>
		<contour>
			<point x="667" y="183" type="line"/>
			<point x="667" y="300"/>
			<point x="667" y="359" type="qcurve" smooth="yes"/>
			<point x="667" y="377"/>
			<point x="663" y="397" type="qcurve" smooth="yes"/>
			<point x="659" y="418"/>
			<point x="649" y="438" type="qcurve" smooth="yes"/>
			<point x="640" y="459"/>
			<point x="626" y="477" type="qcurve" smooth="yes"/>
			<point x="612" y="496"/>
			<point x="592" y="509" type="qcurve" smooth="yes"/>
			<point x="572" y="524"/>
			<point x="545" y="532" type="qcurve" smooth="yes"/>
			<point x="519" y="540"/>
			<point x="485" y="540" type="qcurve" smooth="yes"/>
			<point x="322" y="540"/>
			<point x="240" y="540" type="qcurve" smooth="yes"/>
			<point x="223" y="540"/>
			<point x="202" y="536" type="qcurve" smooth="yes"/>
			<point x="181" y="532"/>
			<point x="160" y="523" type="qcurve" smooth="yes"/>
			<point x="140" y="514"/>
			<point x="122" y="500" type="qcurve" smooth="yes"/>
			<point x="104" y="485"/>
			<point x="89" y="465" type="qcurve" smooth="yes"/>
			<point x="75" y="445"/>
			<point x="66" y="418" type="qcurve" smooth="yes"/>
			<point x="58" y="392"/>
			<point x="58" y="359" type="qcurve" smooth="yes"/>
			<point x="58" y="-37"/>
			<point x="58" y="-169" type="qcurve"/>
			<point x="155" y="-169"/>
			<point x="188" y="-169" type="qcurve"/>
			<point x="188" y="183"/>
			<point x="188" y="359" type="qcurve" smooth="yes"/>
			<point x="188" y="384"/>
			<point x="202" y="397" type="qcurve" smooth="yes"/>
			<point x="215" y="411"/>
			<point x="241" y="411" type="qcurve" smooth="yes"/>
			<point x="404" y="411"/>
			<point x="485" y="411" type="qcurve" smooth="yes"/>
			<point x="511" y="411"/>
			<point x="524" y="398" type="qcurve" smooth="yes"/>
			<point x="537" y="384"/>
			<point x="537" y="357" type="qcurve" smooth="yes"/>
			<point x="537" y="241"/>
			<point x="537" y="183" type="qcurve" smooth="yes"/>
			<point x="537" y="157"/>
			<point x="524" y="143" type="qcurve" smooth="yes"/>
			<point x="511" y="130"/>
			<point x="485" y="130" type="qcurve" smooth="yes"/>
			<point x="302" y="130"/>
			<point x="240" y="130" type="qcurve"/>
			<point x="240" y="32"/>
			<point x="240" y="0" type="qcurve"/>
			<point x="403" y="0"/>
			<point x="485" y="0" type="qcurve" smooth="yes"/>
			<point x="504" y="0"/>
			<point x="524" y="4" type="qcurve" smooth="yes"/>
			<point x="544" y="8"/>
			<point x="564" y="17" type="qcurve" smooth="yes"/>
			<point x="585" y="27"/>
			<point x="604" y="41" type="qcurve" smooth="yes"/>
			<point x="622" y="55"/>
			<point x="636" y="75" type="qcurve" smooth="yes"/>
			<point x="650" y="96"/>
			<point x="658" y="122" type="qcurve" smooth="yes"/>
			<point x="667" y="149"/>
			<point x="667" y="183" type="qcurve"/>
		</contour>
	</outline>
</glyph>
<glyph name="q" format="2">
	<advance width="750"/>
	<unicode hex="0071"/>
	<note>
		q
  </note>
	<outline>
		<contour>
			<point x="669" y="-169" type="line"/>
			<point x="669" y="183"/>
			<point x="669" y="359" type="qcurve" smooth="yes"/>
			<point x="669" y="392"/>
			<point x="660" y="418" type="qcurve" smooth="yes"/>
			<point x="652" y="445"/>
			<point x="638" y="465" type="qcurve" smooth="yes"/>
			<point x="624" y="485"/>
			<point x="606" y="500" type="qcurve" smooth="yes"/>
			<point x="587" y="514"/>
			<point x="567" y="523" type="qcurve" smooth="yes"/>
			<point x="547" y="532"/>
			<point x="526" y="536" type="qcurve" smooth="yes"/>
			<point x="505" y="540"/>
			<point x="487" y="540" type="qcurve" smooth="yes"/>
			<point x="317" y="540"/>
			<point x="232" y="540" type="qcurve" smooth="yes"/>
			<point x="199" y="540"/>
			<point x="172" y="532" type="qcurve" smooth="yes"/>
			<point x="145" y="524"/>
			<point x="125" y="509" type="qcurve" smooth="yes"/>
			<point x="105" y="496"/>
			<point x="91" y="477" type="qcurve" smooth="yes"/>
			<point x="76" y="459"/>
			<point x="68" y="438" type="qcurve" smooth="yes"/>
			<point x="59" y="418"/>
			<point x="54" y="397" type="qcurve" smooth="yes"/>
			<point x="50" y="377"/>
			<point x="50" y="359" type="qcurve" smooth="yes"/>
			<point x="50" y="241"/>
			<point x="50" y="183" type="qcurve" smooth="yes"/>
			<point x="50" y="132"/>
			<point x="68" y="97" type="qcurve" smooth="yes"/>
			<point x="87" y="63"/>
			<point x="113" y="40" type="qcurve" smooth="yes"/>
			<point x="141" y="19"/>
			<point x="173" y="10" type="qcurve" smooth="yes"/>
			<point x="205" y="0"/>
			<point x="232" y="0" type="qcurve" smooth="yes"/>
			<point x="423" y="0"/>
			<point x="487" y="0" type="qcurve"/>
			<point x="487" y="97"/>
			<point x="487" y="130" type="qcurve"/>
			<point x="317" y="130"/>
			<point x="233" y="130" type="qcurve" smooth="yes"/>
			<point x="207" y="130"/>
			<point x="194" y="143" type="qcurve" smooth="yes"/>
			<point x="180" y="157"/>
			<point x="180" y="183" type="qcurve" smooth="yes"/>
			<point x="180" y="300"/>
			<point x="180" y="359" type="qcurve" smooth="yes"/>
			<point x="180" y="381"/>
			<point x="194" y="396" type="qcurve" smooth="yes"/>
			<point x="208" y="411"/>
			<point x="232" y="411" type="qcurve" smooth="yes"/>
			<point x="402" y="411"/>
			<point x="487" y="411" type="qcurve" smooth="yes"/>
			<point x="513" y="411"/>
			<point x="526" y="397" type="qcurve" smooth="yes"/>
			<point x="539" y="384"/>
			<point x="539" y="359" type="qcurve" smooth="yes"/>
			<point x="539" y="-37"/>
			<point x="539" y="-169" type="qcurve"/>
			<point x="636" y="-169"/>
			<point x="669" y="-169" type="qcurve"/>
		</contour>
	</outline>
</glyph>
<glyph name="r" format="2">
	<advance width="750"/>
	<unicode hex="0072"/>
	<note>
		r
  </note>
	<outline>
		<contour>
			<point x="684" y="411" type="line"/>
			<point x="684" y="508"/>
			<point x="684" y="540" type="qcurve"/>
			<point x="405" y="540"/>
			<point x="265" y="540" type="qcurve" smooth="yes"/>
			<point x="248" y="540"/>
			<point x="227" y="536" type="qcurve" smooth="yes"/>
			<point x="206" y="532"/>
			<point x="185" y="523" type="qcurve" smooth="yes"/>
			<point x="165" y="514"/>
			<point x="147" y="500" type="qcurve" smooth="yes"/>
			<point x="128" y="485"/>
			<point x="114" y="465" type="qcurve" smooth="yes"/>
			<point x="100" y="445"/>
			<point x="92" y="418" type="qcurve" smooth="yes"/>
			<point x="83" y="392"/>
			<point x="83" y="359" type="qcurve" smooth="yes"/>
			<point x="83" y="90"/>
			<point x="83" y="0" type="qcurve"/>
			<point x="180" y="0"/>
			<point x="213" y="0" type="qcurve"/>
			<point x="213" y="239"/>
			<point x="213" y="359" type="qcurve" smooth="yes"/>
			<point x="213" y="384"/>
			<point x="226" y="397" type="qcurve" smooth="yes"/>
			<point x="240" y="411"/>
			<point x="267" y="411" type="qcurve" smooth="yes"/>
			<point x="580" y="411"/>
			<point x="684" y="411" type="qcurve"/>
		</contour>
	</outline>
</glyph>
<glyph name="s" format="2">
	<advance width="750"/>
	<unicode hex="0073"/>
	<note>
		s
  </note>
	<outline>
		<contour>
			<point x="653" y="183" type="line"/>
			<point x="653" y="210"/>
			<point x="644" y="242" type="qcurve" smooth="yes"/>
			<point x="634" y="274"/>
			<point x="612" y="301" type="qcurve" smooth="yes"/>
			<point x="591" y="328"/>
			<point x="556" y="346" type="qcurve" smooth="yes"/>
			<point x="521" y="364"/>
			<point x="471" y="364" type="qcurve" smooth="yes"/>
			<point x="313" y="364"/>
			<point x="235" y="364" type="qcurve" smooth="yes"/>
			<point x="230" y="364"/>
			<point x="225" y="365" type="qcurve" smooth="yes"/>
			<point x="220" y="365"/>
			<point x="216" y="367" type="qcurve" smooth="yes"/>
			<point x="213" y="369"/>
			<point x="210" y="373" type="qcurve"/>
			<point x="208" y="378"/>
			<point x="208" y="386" type="qcurve" smooth="yes"/>
			<point x="208" y="390"/>
			<point x="208" y="394" type="qcurve" smooth="yes"/>
			<point x="208" y="399"/>
			<point x="211" y="402" type="qcurve" smooth="yes"/>
			<point x="214" y="406"/>
			<point x="220" y="408" type="qcurve"/>
			<point x="225" y="411"/>
			<point x="236" y="411" type="qcurve" smooth="yes"/>
			<point x="501" y="411"/>
			<point x="589" y="411" type="qcurve"/>
			<point x="589" y="508"/>
			<point x="589" y="540" type="qcurve"/>
			<point x="353" y="540"/>
			<point x="235" y="540" type="qcurve" smooth="yes"/>
			<point x="211" y="540"/>
			<point x="183" y="532" type="qcurve" smooth="yes"/>
			<point x="156" y="524"/>
			<point x="132" y="505" type="qcurve" smooth="yes"/>
			<point x="108" y="487"/>
			<point x="93" y="457" type="qcurve" smooth="yes"/>
			<point x="77" y="428"/>
			<point x="77" y="384" type="qcurve" smooth="yes"/>
			<point x="77" y="361"/>
			<point x="86" y="335" type="qcurve" smooth="yes"/>
			<point x="94" y="309"/>
			<point x="112" y="287" type="qcurve" smooth="yes"/>
			<point x="132" y="264"/>
			<point x="162" y="250" type="qcurve" smooth="yes"/>
			<point x="192" y="235"/>
			<point x="235" y="235" type="qcurve" smooth="yes"/>
			<point x="392" y="235"/>
			<point x="471" y="235" type="qcurve" smooth="yes"/>
			<point x="522" y="235"/>
			<point x="524" y="183" type="qcurve" smooth="yes"/>
			<point x="524" y="158"/>
			<point x="510" y="144" type="qcurve" smooth="yes"/>
			<point x="496" y="130"/>
			<point x="470" y="130" type="qcurve" smooth="yes"/>
			<point x="181" y="130"/>
			<point x="84" y="130" type="qcurve"/>
			<point x="84" y="32"/>
			<point x="84" y="0" type="qcurve"/>
			<point x="342" y="0"/>
			<point x="471" y="0" type="qcurve" smooth="yes"/>
			<point x="489" y="0"/>
			<point x="510" y="4" type="qcurve" smooth="yes"/>
			<point x="531" y="8"/>
			<point x="551" y="17" type="qcurve" smooth="yes"/>
			<point x="572" y="27"/>
			<point x="590" y="41" type="qcurve" smooth="yes"/>
			<point x="608" y="55"/>
			<point x="623" y="75" type="qcurve" smooth="yes"/>
			<point x="636" y="96"/>
			<point x="645" y="122" type="qcurve" smooth="yes"/>
			<point x="653" y="149"/>
			<point x="653" y="183" type="qcurve"/>
		</contour>
	</outline>
</glyph>
<glyph name="t" format="2">
	<advance width="750"/>
	<unicode hex="0074"/>
	<note>
		t
  </note>
	<outline>
		<contour>
			<point x="717" y="411" type="line"/>
			<point x="717" y="508"/>
			<point x="717" y="540" type="qcurve"/>
			<point x="483" y="540"/>
			<point x="405" y="540" type="qcurve"/>
			<point x="405" y="673"/>
			<point x="405" y="717" type="qcurve"/>
			<point x="307" y="717"/>
			<point x="274" y="717" type="qcurve"/>
			<point x="274" y="585"/>
			<point x="274" y="540" type="qcurve"/>
			<point x="147" y="540"/>
			<point x="105" y="540" type="qcurve"/>
			<point x="105" y="443"/>
			<point x="105" y="411" type="qcurve"/>
			<point x="232" y="411"/>
			<point x="274" y="411" type="qcurve"/>
			<point x="274" y="103"/>
			<point x="274" y="0" type="qcurve"/>
			<point x="373" y="0"/>
			<point x="405" y="0" type="qcurve"/>
			<point x="405" y="308"/>
			<point x="405" y="411" type="qcurve"/>
			<point x="639" y="411"/>
			<point x="717" y="411" type="qcurve"/>
		</contour>
	</outline>
</glyph>
<glyph name="v" format="2">
	<advance width="750"/>
	<unicode hex="0076"/>
	<note>
		v
  </note>
	<outline>
		<contour>
			<point x="706" y="540" type="line"/>
			<point x="614" y="540"/>
			<point x="568" y="540" type="qcurve"/>
			<point x="559" y="506"/>
			<point x="541" y="462" type="qcurve" smooth="yes"/>
			<point x="523" y="419"/>
			<point x="496" y="373" type="qcurve" smooth="yes"/>
			<point x="471" y="328"/>
			<point x="437" y="286" type="qcurve" smooth="yes"/>
			<point x="404" y="243"/>
			<point x="365" y="208" type="qcurve" smooth="yes"/>
			<point x="326" y="175"/>
			<point x="282" y="155" type="qcurve" smooth="yes"/>
			<point x="239" y="134"/>
			<point x="191" y="134" type="qcurve"/>
			<point x="191" y="439"/>
			<point x="191" y="540" type="qcurve"/>
			<point x="93" y="540"/>
			<point x="61" y="540" type="qcurve"/>
			<point x="61" y="223"/>
			<point x="61" y="64" type="qcurve" smooth="yes"/>
			<point x="61" y="50"/>
			<point x="66" y="38" type="qcurve" smooth="yes"/>
			<point x="71" y="27"/>
			<point x="80" y="17" type="qcurve" smooth="yes"/>
			<point x="89" y="9"/>
			<point x="101" y="4" type="qcurve" smooth="yes"/>
			<point x="113" y="-1"/>
			<point x="127" y="-1" type="qcurve" smooth="yes"/>
			<point x="205" y="-1"/>
			<point x="272" y="20" type="qcurve" smooth="yes"/>
			<point x="340" y="41"/>
			<point x="396" y="79" type="qcurve" smooth="yes"/>
			<point x="454" y="116"/>
			<point x="501" y="167" type="qcurve" smooth="yes"/>
			<point x="548" y="219"/>
			<point x="587" y="279" type="qcurve" smooth="yes"/>
			<point x="625" y="339"/>
			<point x="654" y="406" type="qcurve" smooth="yes"/>
			<point x="684" y="472"/>
			<point x="706" y="540" type="qcurve"/>
		</contour>
	</outline>
</glyph>
<glyph name="w" format="2">
	<advance width="750"/>
	<unicode hex="0077"/>
	<note>
		w
  </note>
	<outline>
		<contour>
			<point x="851" y="540" type="line"/>
			<point x="754" y="540"/>
			<point x="705" y="540" type="qcurve"/>
			<point x="681" y="492"/>
			<point x="655" y="442" type="qcurve" smooth="yes"/>
			<point x="629" y="393"/>
			<point x="600" y="345" type="qcurve" smooth="yes"/>
			<point x="571" y="297"/>
			<point x="537" y="252" type="qcurve" smooth="yes"/>
			<point x="531" y="245"/>
			<point x="476" y="167" type="qcurve"/>
			<point x="476" y="373"/>
			<point x="476" y="476" type="qcurve" smooth="yes"/>
			<point x="476" y="496"/>
			<point x="465" y="512" type="qcurve" smooth="yes"/>
			<point x="455" y="528"/>
			<point x="436" y="536" type="qcurve" smooth="yes"/>
			<point x="423" y="541"/>
			<point x="410" y="541" type="qcurve" smooth="yes"/>
			<point x="404" y="541"/>
			<point x="398" y="540" type="qcurve" smooth="yes"/>
			<point x="373" y="535"/>
			<point x="365" y="522" type="qcurve" smooth="yes"/>
			<point x="235" y="305"/>
			<point x="191" y="232" type="qcurve"/>
			<point x="191" y="463"/>
			<point x="191" y="540" type="qcurve"/>
			<point x="93" y="540"/>
			<point x="61" y="540" type="qcurve"/>
			<point x="61" y="224"/>
			<point x="61" y="65" type="qcurve" smooth="yes"/>
			<point x="61" y="52"/>
			<point x="66" y="40" type="qcurve" smooth="yes"/>
			<point x="72" y="28"/>
			<point x="80" y="19" type="qcurve" smooth="yes"/>
			<point x="89" y="10"/>
			<point x="101" y="5" type="qcurve" smooth="yes"/>
			<point x="113" y="0"/>
			<point x="127" y="0" type="qcurve" smooth="yes"/>
			<point x="139" y="0"/>
			<point x="151" y="5" type="qcurve" smooth="yes"/>
			<point x="168" y="12"/>
			<point x="172" y="20" type="qcurve" smooth="yes"/>
			<point x="302" y="236"/>
			<point x="345" y="308" type="qcurve"/>
			<point x="345" y="146"/>
			<point x="345" y="65" type="qcurve" smooth="yes"/>
			<point x="345" y="52"/>
			<point x="350" y="40" type="qcurve" smooth="yes"/>
			<point x="356" y="28"/>
			<point x="364" y="19" type="qcurve" smooth="yes"/>
			<point x="373" y="10"/>
			<point x="385" y="5" type="qcurve" smooth="yes"/>
			<point x="397" y="0"/>
			<point x="412" y="0" type="qcurve" smooth="yes"/>
			<point x="445" y="0"/>
			<point x="476" y="21" type="qcurve" smooth="yes"/>
			<point x="507" y="41"/>
			<point x="547" y="78" type="qcurve" smooth="yes"/>
			<point x="588" y="115"/>
			<point x="628" y="166" type="qcurve" smooth="yes"/>
			<point x="669" y="216"/>
			<point x="708" y="276" type="qcurve" smooth="yes"/>
			<point x="748" y="336"/>
			<point x="784" y="404" type="qcurve" smooth="yes"/>
			<point x="820" y="471"/>
			<point x="851" y="540" type="qcurve"/>
		</contour>
	</outline>
</glyph>
<glyph name="x" format="2">
	<advance width="750"/>
	<unicode hex="0078"/>
	<note>
		x
  </note>
	<outline>
		<contour>
			<point x="693" y="540" type="line"/>
			<point x="559" y="540"/>
			<point x="515" y="540" type="qcurve"/>
			<point x="406" y="423"/>
			<point x="370" y="384" type="qcurve"/>
			<point x="262" y="501"/>
			<point x="227" y="540" type="qcurve"/>
			<point x="93" y="540"/>
			<point x="48" y="540" type="qcurve"/>
			<point x="223" y="350"/>
			<point x="281" y="287" type="qcurve"/>
			<point x="84" y="72"/>
			<point x="19" y="0" type="qcurve"/>
			<point x="153" y="0"/>
			<point x="198" y="0" type="qcurve"/>
			<point x="328" y="141"/>
			<point x="371" y="188" type="qcurve"/>
			<point x="501" y="47"/>
			<point x="544" y="0" type="qcurve"/>
			<point x="678" y="0"/>
			<point x="723" y="0" type="qcurve"/>
			<point x="526" y="214"/>
			<point x="460" y="285" type="qcurve"/>
			<point x="635" y="477"/>
			<point x="693" y="540" type="qcurve"/>
		</contour>
	</outline>
</glyph>
<glyph name="y" format="2">
	<advance width="750"/>
	<unicode hex="0079"/>
	<note>
		y
  </note>
	<outline>
		<contour>
			<point x="667" y="-52" type="line"/>
			<point x="667" y="392"/>
			<point x="667" y="540" type="qcurve"/>
			<point x="569" y="540"/>
			<point x="537" y="540" type="qcurve"/>
			<point x="537" y="145"/>
			<point x="537" y="-52" type="qcurve" smooth="yes"/>
			<point x="537" y="-77"/>
			<point x="524" y="-91" type="qcurve" smooth="yes"/>
			<point x="511" y="-104"/>
			<point x="485" y="-104" type="qcurve" smooth="yes"/>
			<point x="309" y="-104"/>
			<point x="251" y="-104" type="qcurve"/>
			<point x="251" y="-202"/>
			<point x="251" y="-235" type="qcurve"/>
			<point x="407" y="-235"/>
			<point x="485" y="-235" type="qcurve" smooth="yes"/>
			<point x="504" y="-235"/>
			<point x="524" y="-230" type="qcurve" smooth="yes"/>
			<point x="544" y="-226"/>
			<point x="564" y="-217" type="qcurve" smooth="yes"/>
			<point x="585" y="-208"/>
			<point x="604" y="-194" type="qcurve" smooth="yes"/>
			<point x="622" y="-180"/>
			<point x="636" y="-159" type="qcurve" smooth="yes"/>
			<point x="650" y="-139"/>
			<point x="658" y="-112" type="qcurve" smooth="yes"/>
			<point x="667" y="-85"/>
			<point x="667" y="-52" type="qcurve"/>
		</contour>
		<contour>
			<point x="485" y="0" type="line"/>
			<point x="485" y="97"/>
			<point x="485" y="130" type="qcurve"/>
			<point x="329" y="130"/>
			<point x="252" y="130" type="qcurve" smooth="yes"/>
			<point x="225" y="130"/>
			<point x="212" y="143" type="qcurve" smooth="yes"/>
			<point x="198" y="157"/>
			<point x="198" y="183" type="qcurve" smooth="yes"/>
			<point x="198" y="451"/>
			<point x="198" y="540" type="qcurve"/>
			<point x="101" y="540"/>
			<point x="68" y="540" type="qcurve"/>
			<point x="68" y="302"/>
			<point x="68" y="183" type="qcurve" smooth="yes"/>
			<point x="68" y="132"/>
			<point x="86" y="97" type="qcurve" smooth="yes"/>
			<point x="104" y="63"/>
			<point x="132" y="40" type="qcurve" smooth="yes"/>
			<point x="159" y="19"/>
			<point x="191" y="10" type="qcurve" smooth="yes"/>
			<point x="223" y="0"/>
			<point x="251" y="0" type="qcurve" smooth="yes"/>
			<point x="426" y="0"/>
			<point x="485" y="0" type="qcurve"/>
		</contour>
	</outline>
</glyph>
<glyph name="braceleft" format="2">
	<advance width="750"/>
	<unicode hex="007B"/>
	<note>
		braceleft
  </note>
	<outline>
		<contour>
			<point x="16" y="425" type="line"/>
			<point x="15" y="395"/>
			<point x="14" y="337" type="qcurve" smooth="yes"/>
			<point x="13" y="297"/>
			<point x="13" y="297" type="qcurve"/>
			<point x="13" y="297"/>
			<point x="13" y="307" type="qcurve" smooth="yes"/>
			<point x="14" y="337"/>
			<point x="14" y="366" type="qcurve" smooth="yes"/>
			<point x="15" y="395"/>
			<point x="16" y="425" type="qcurve"/>
		</contour>
		<contour>
			<point x="399" y="703" type="line"/>
			<point x="399" y="800"/>
			<point x="399" y="832" type="qcurve"/>
			<point x="356" y="832"/>
			<point x="335" y="832" type="qcurve" smooth="yes"/>
			<point x="309" y="832"/>
			<point x="290" y="828" type="qcurve" smooth="yes"/>
			<point x="272" y="824"/>
			<point x="259" y="820" type="qcurve" smooth="yes"/>
			<point x="236" y="812"/>
			<point x="224" y="806" type="qcurve" smooth="yes"/>
			<point x="203" y="793"/>
			<point x="189" y="781" type="qcurve" smooth="yes"/>
			<point x="175" y="769"/>
			<point x="168" y="760" type="qcurve" smooth="yes"/>
			<point x="152" y="740"/>
			<point x="147" y="729" type="qcurve" smooth="yes"/>
			<point x="137" y="705"/>
			<point x="134" y="693" type="qcurve" smooth="yes"/>
			<point x="129" y="666"/>
			<point x="129" y="652" type="qcurve" smooth="yes"/>
			<point x="129" y="535"/>
			<point x="129" y="476" type="qcurve" smooth="yes"/>
			<point x="129" y="460"/>
			<point x="126" y="453" type="qcurve" smooth="yes"/>
			<point x="120" y="442"/>
			<point x="113" y="436" type="qcurve" smooth="yes"/>
			<point x="105" y="429"/>
			<point x="99" y="428" type="qcurve" smooth="yes"/>
			<point x="84" y="424"/>
			<point x="76" y="424" type="qcurve" smooth="yes"/>
			<point x="67" y="424"/>
			<point x="63" y="424" type="qcurve" smooth="yes"/>
			<point x="53" y="425"/>
			<point x="49" y="424" type="qcurve"/>
			<point x="44" y="424"/>
			<point x="40" y="424" type="qcurve" smooth="yes"/>
			<point x="36" y="424"/>
			<point x="34" y="425" type="qcurve" smooth="yes"/>
			<point x="28" y="427"/>
			<point x="25" y="428" type="qcurve"/>
			<point x="21" y="428"/>
			<point x="19" y="427" type="qcurve" smooth="yes"/>
			<point x="17" y="426"/>
			<point x="16" y="425" type="qcurve"/>
			<point x="14" y="421"/>
			<point x="14" y="418" type="qcurve" smooth="yes"/>
			<point x="14" y="414"/>
			<point x="15" y="412" type="qcurve"/>
			<point x="16" y="391"/>
			<point x="16" y="384" type="qcurve" smooth="yes"/>
			<point x="15" y="375"/>
			<point x="15" y="372" type="qcurve"/>
			<point x="13" y="362"/>
			<point x="13" y="358" type="qcurve" smooth="yes"/>
			<point x="14" y="339"/>
			<point x="14" y="333" type="qcurve" smooth="yes"/>
			<point x="13" y="314"/>
			<point x="13" y="307" type="qcurve" smooth="yes"/>
			<point x="13" y="302"/>
			<point x="14" y="299" type="qcurve" smooth="yes"/>
			<point x="15" y="296"/>
			<point x="17" y="295" type="qcurve" smooth="yes"/>
			<point x="20" y="293"/>
			<point x="22" y="293" type="qcurve" smooth="yes"/>
			<point x="24" y="293"/>
			<point x="26" y="293" type="qcurve"/>
			<point x="32" y="295"/>
			<point x="35" y="295" type="qcurve" smooth="yes"/>
			<point x="40" y="295"/>
			<point x="44" y="294" type="qcurve" smooth="yes"/>
			<point x="48" y="293"/>
			<point x="50" y="293" type="qcurve" smooth="yes"/>
			<point x="59" y="294"/>
			<point x="63" y="295" type="qcurve"/>
			<point x="72" y="293"/>
			<point x="76" y="293" type="qcurve" smooth="yes"/>
			<point x="91" y="292"/>
			<point x="99" y="290" type="qcurve"/>
			<point x="110" y="284"/>
			<point x="117" y="277" type="qcurve" smooth="yes"/>
			<point x="123" y="269"/>
			<point x="125" y="264" type="qcurve"/>
			<point x="128" y="248"/>
			<point x="128" y="240" type="qcurve" smooth="yes"/>
			<point x="128" y="124"/>
			<point x="128" y="65" type="qcurve" smooth="yes"/>
			<point x="129" y="44"/>
			<point x="131" y="34" type="qcurve" smooth="yes"/>
			<point x="135" y="15"/>
			<point x="138" y="5" type="qcurve" smooth="yes"/>
			<point x="144" y="-12"/>
			<point x="148" y="-20" type="qcurve" smooth="yes"/>
			<point x="157" y="-35"/>
			<point x="163" y="-41" type="qcurve"/>
			<point x="173" y="-55"/>
			<point x="183" y="-63" type="qcurve" smooth="yes"/>
			<point x="192" y="-72"/>
			<point x="203" y="-78" type="qcurve" smooth="yes"/>
			<point x="213" y="-85"/>
			<point x="220" y="-89" type="qcurve" smooth="yes"/>
			<point x="235" y="-97"/>
			<point x="243" y="-100" type="qcurve" smooth="yes"/>
			<point x="258" y="-106"/>
			<point x="265" y="-108" type="qcurve" smooth="yes"/>
			<point x="281" y="-112"/>
			<point x="289" y="-114" type="qcurve" smooth="yes"/>
			<point x="304" y="-116"/>
			<point x="312" y="-117" type="qcurve" smooth="yes"/>
			<point x="325" y="-118"/>
			<point x="332" y="-118" type="qcurve" smooth="yes"/>
			<point x="382" y="-118"/>
			<point x="398" y="-118" type="qcurve"/>
			<point x="398" y="-19"/>
			<point x="398" y="13" type="qcurve"/>
			<point x="355" y="13"/>
			<point x="333" y="13" type="qcurve" smooth="yes"/>
			<point x="328" y="13"/>
			<point x="325" y="14" type="qcurve"/>
			<point x="317" y="15"/>
			<point x="314" y="15" type="qcurve" smooth="yes"/>
			<point x="305" y="16"/>
			<point x="301" y="17" type="qcurve" smooth="yes"/>
			<point x="293" y="20"/>
			<point x="287" y="22" type="qcurve" smooth="yes"/>
			<point x="281" y="25"/>
			<point x="276" y="29" type="qcurve" smooth="yes"/>
			<point x="271" y="33"/>
			<point x="268" y="37" type="qcurve" smooth="yes"/>
			<point x="263" y="44"/>
			<point x="261" y="49" type="qcurve"/>
			<point x="259" y="59"/>
			<point x="259" y="64" type="qcurve" smooth="yes"/>
			<point x="259" y="182"/>
			<point x="259" y="241" type="qcurve" smooth="yes"/>
			<point x="258" y="260"/>
			<point x="256" y="269" type="qcurve" smooth="yes"/>
			<point x="252" y="289"/>
			<point x="250" y="300" type="qcurve"/>
			<point x="243" y="320"/>
			<point x="238" y="329" type="qcurve" smooth="yes"/>
			<point x="227" y="349"/>
			<point x="220" y="357" type="qcurve"/>
			<point x="231" y="372"/>
			<point x="236" y="381" type="qcurve" smooth="yes"/>
			<point x="245" y="399"/>
			<point x="248" y="408" type="qcurve" smooth="yes"/>
			<point x="255" y="429"/>
			<point x="257" y="440" type="qcurve" smooth="yes"/>
			<point x="260" y="464"/>
			<point x="260" y="476" type="qcurve" smooth="yes"/>
			<point x="260" y="608"/>
			<point x="260" y="652" type="qcurve"/>
			<point x="260" y="652"/>
			<point x="260" y="652" type="qcurve"/>
			<point x="260" y="661"/>
			<point x="261" y="665" type="qcurve" smooth="yes"/>
			<point x="264" y="672"/>
			<point x="268" y="677" type="qcurve" smooth="yes"/>
			<point x="272" y="681"/>
			<point x="276" y="685" type="qcurve" smooth="yes"/>
			<point x="281" y="689"/>
			<point x="284" y="691" type="qcurve" smooth="yes"/>
			<point x="292" y="695"/>
			<point x="296" y="696" type="qcurve" smooth="yes"/>
			<point x="304" y="699"/>
			<point x="311" y="700" type="qcurve" smooth="yes"/>
			<point x="317" y="701"/>
			<point x="322" y="702" type="qcurve" smooth="yes"/>
			<point x="331" y="703"/>
			<point x="335" y="703" type="qcurve" smooth="yes"/>
			<point x="383" y="703"/>
			<point x="399" y="703" type="qcurve"/>
		</contour>
	</outline>
</glyph>
<glyph name="bar" format="2">
	<advance width="750"/>
	<unicode hex="007C"/>
	<note>
		bar
  </note>
	<outline>
		<contour>
			<point x="459" y="-358" type="line"/>
			<point x="459" y="750"/>
			<point x="459" y="1120" type="qcurve"/>
			<point x="361" y="1120"/>
			<point x="328" y="1120" type="qcurve"/>
			<point x="328" y="11"/>
			<point x="328" y="-358" type="qcurve"/>
			<point x="426" y="-358"/>
			<point x="459" y="-358" type="qcurve"/>
		</contour>
	</outline>
</glyph>
<glyph name="braceright" format="2">
	<advance width="750"/>
	<unicode hex="007D"/>
	<note>
		braceright
  </note>
	<outline>
		<contour>
			<point x="395" y="425" type="line"/>
			<point x="397" y="337"/>
			<point x="398" y="307" type="qcurve" smooth="yes"/>
			<point x="396" y="395"/>
			<point x="395" y="425" type="qcurve"/>
		</contour>
		<contour>
			<point x="12" y="703" type="line"/>
			<point x="12" y="800"/>
			<point x="12" y="832" type="qcurve"/>
			<point x="55" y="832"/>
			<point x="77" y="832" type="qcurve" smooth="yes"/>
			<point x="103" y="832"/>
			<point x="121" y="828" type="qcurve" smooth="yes"/>
			<point x="140" y="824"/>
			<point x="152" y="820" type="qcurve" smooth="yes"/>
			<point x="176" y="812"/>
			<point x="187" y="806" type="qcurve" smooth="yes"/>
			<point x="208" y="793"/>
			<point x="222" y="781" type="qcurve" smooth="yes"/>
			<point x="236" y="769"/>
			<point x="244" y="760" type="qcurve" smooth="yes"/>
			<point x="259" y="740"/>
			<point x="264" y="729" type="qcurve" smooth="yes"/>
			<point x="275" y="705"/>
			<point x="277" y="693" type="qcurve" smooth="yes"/>
			<point x="282" y="666"/>
			<point x="282" y="652" type="qcurve" smooth="yes"/>
			<point x="282" y="535"/>
			<point x="282" y="476" type="qcurve" smooth="yes"/>
			<point x="283" y="460"/>
			<point x="285" y="453" type="qcurve"/>
			<point x="291" y="442"/>
			<point x="298" y="436" type="qcurve" smooth="yes"/>
			<point x="306" y="429"/>
			<point x="312" y="428" type="qcurve" smooth="yes"/>
			<point x="328" y="424"/>
			<point x="336" y="424" type="qcurve" smooth="yes"/>
			<point x="344" y="424"/>
			<point x="348" y="424" type="qcurve" smooth="yes"/>
			<point x="357" y="425"/>
			<point x="362" y="424" type="qcurve" smooth="yes"/>
			<point x="368" y="424"/>
			<point x="371" y="424" type="qcurve" smooth="yes"/>
			<point x="375" y="424"/>
			<point x="377" y="425" type="qcurve" smooth="yes"/>
			<point x="384" y="427"/>
			<point x="387" y="428" type="qcurve"/>
			<point x="389" y="428"/>
			<point x="392" y="427" type="qcurve" smooth="yes"/>
			<point x="394" y="426"/>
			<point x="395" y="425" type="qcurve"/>
			<point x="397" y="421"/>
			<point x="397" y="418" type="qcurve" smooth="yes"/>
			<point x="397" y="415"/>
			<point x="396" y="412" type="qcurve" smooth="yes"/>
			<point x="393" y="403"/>
			<point x="394" y="396" type="qcurve" smooth="yes"/>
			<point x="395" y="388"/>
			<point x="395" y="384" type="qcurve" smooth="yes"/>
			<point x="396" y="376"/>
			<point x="396" y="372" type="qcurve" smooth="yes"/>
			<point x="397" y="363"/>
			<point x="398" y="358" type="qcurve" smooth="yes"/>
			<point x="399" y="353"/>
			<point x="399" y="348" type="qcurve" smooth="yes"/>
			<point x="399" y="345"/>
			<point x="399" y="343" type="qcurve" smooth="yes"/>
			<point x="398" y="337"/>
			<point x="397" y="333" type="qcurve" smooth="yes"/>
			<point x="396" y="324"/>
			<point x="397" y="318" type="qcurve" smooth="yes"/>
			<point x="398" y="312"/>
			<point x="398" y="307" type="qcurve"/>
			<point x="399" y="303"/>
			<point x="397" y="300" type="qcurve"/>
			<point x="396" y="296"/>
			<point x="394" y="295" type="qcurve"/>
			<point x="392" y="293"/>
			<point x="389" y="293" type="qcurve" smooth="yes"/>
			<point x="387" y="293"/>
			<point x="385" y="293" type="qcurve"/>
			<point x="380" y="295"/>
			<point x="376" y="295" type="qcurve" smooth="yes"/>
			<point x="371" y="295"/>
			<point x="368" y="294" type="qcurve" smooth="yes"/>
			<point x="364" y="293"/>
			<point x="361" y="293" type="qcurve" smooth="yes"/>
			<point x="352" y="294"/>
			<point x="348" y="295" type="qcurve"/>
			<point x="339" y="293"/>
			<point x="335" y="293" type="qcurve" smooth="yes"/>
			<point x="320" y="292"/>
			<point x="313" y="290" type="qcurve"/>
			<point x="301" y="284"/>
			<point x="295" y="277" type="qcurve" smooth="yes"/>
			<point x="288" y="269"/>
			<point x="286" y="264" type="qcurve"/>
			<point x="283" y="248"/>
			<point x="283" y="240" type="qcurve" smooth="yes"/>
			<point x="283" y="124"/>
			<point x="283" y="65" type="qcurve" smooth="yes"/>
			<point x="282" y="44"/>
			<point x="280" y="34" type="qcurve" smooth="yes"/>
			<point x="276" y="15"/>
			<point x="273" y="5" type="qcurve" smooth="yes"/>
			<point x="267" y="-12"/>
			<point x="263" y="-20" type="qcurve" smooth="yes"/>
			<point x="254" y="-35"/>
			<point x="248" y="-41" type="qcurve" smooth="yes"/>
			<point x="237" y="-55"/>
			<point x="228" y="-63" type="qcurve" smooth="yes"/>
			<point x="219" y="-72"/>
			<point x="209" y="-78" type="qcurve" smooth="yes"/>
			<point x="198" y="-85"/>
			<point x="191" y="-89" type="qcurve" smooth="yes"/>
			<point x="176" y="-97"/>
			<point x="168" y="-100" type="qcurve" smooth="yes"/>
			<point x="153" y="-106"/>
			<point x="145" y="-108" type="qcurve" smooth="yes"/>
			<point x="131" y="-112"/>
			<point x="123" y="-114" type="qcurve" smooth="yes"/>
			<point x="108" y="-116"/>
			<point x="100" y="-117" type="qcurve" smooth="yes"/>
			<point x="86" y="-118"/>
			<point x="79" y="-118" type="qcurve" smooth="yes"/>
			<point x="29" y="-118"/>
			<point x="13" y="-118" type="qcurve"/>
			<point x="13" y="-19"/>
			<point x="13" y="13" type="qcurve"/>
			<point x="56" y="13"/>
			<point x="78" y="13" type="qcurve" smooth="yes"/>
			<point x="84" y="13"/>
			<point x="86" y="14" type="qcurve"/>
			<point x="93" y="15"/>
			<point x="97" y="15" type="qcurve" smooth="yes"/>
			<point x="105" y="16"/>
			<point x="110" y="17" type="qcurve" smooth="yes"/>
			<point x="118" y="20"/>
			<point x="124" y="22" type="qcurve" smooth="yes"/>
			<point x="130" y="25"/>
			<point x="135" y="29" type="qcurve" smooth="yes"/>
			<point x="141" y="33"/>
			<point x="144" y="37" type="qcurve" smooth="yes"/>
			<point x="149" y="44"/>
			<point x="151" y="49" type="qcurve"/>
			<point x="153" y="59"/>
			<point x="153" y="64" type="qcurve" smooth="yes"/>
			<point x="153" y="182"/>
			<point x="153" y="241" type="qcurve" smooth="yes"/>
			<point x="153" y="260"/>
			<point x="155" y="269" type="qcurve" smooth="yes"/>
			<point x="159" y="289"/>
			<point x="161" y="300" type="qcurve"/>
			<point x="168" y="320"/>
			<point x="173" y="329" type="qcurve" smooth="yes"/>
			<point x="184" y="349"/>
			<point x="191" y="357" type="qcurve"/>
			<point x="180" y="372"/>
			<point x="176" y="381" type="qcurve" smooth="yes"/>
			<point x="166" y="399"/>
			<point x="163" y="408" type="qcurve" smooth="yes"/>
			<point x="156" y="429"/>
			<point x="155" y="440" type="qcurve" smooth="yes"/>
			<point x="152" y="464"/>
			<point x="152" y="476" type="qcurve" smooth="yes"/>
			<point x="152" y="608"/>
			<point x="152" y="652" type="qcurve"/>
			<point x="152" y="652"/>
			<point x="152" y="652" type="qcurve"/>
			<point x="152" y="661"/>
			<point x="150" y="665" type="qcurve" smooth="yes"/>
			<point x="147" y="672"/>
			<point x="144" y="677" type="qcurve"/>
			<point x="140" y="681"/>
			<point x="135" y="685" type="qcurve" smooth="yes"/>
			<point x="131" y="689"/>
			<point x="127" y="691" type="qcurve" smooth="yes"/>
			<point x="119" y="695"/>
			<point x="115" y="696" type="qcurve" smooth="yes"/>
			<point x="107" y="699"/>
			<point x="101" y="700" type="qcurve" smooth="yes"/>
			<point x="94" y="701"/>
			<point x="89" y="702" type="qcurve" smooth="yes"/>
			<point x="81" y="703"/>
			<point x="77" y="703" type="qcurve" smooth="yes"/>
			<point x="28" y="703"/>
			<point x="12" y="703" type="qcurve"/>
		</contour>
	</outline>
</glyph>
<glyph name="asciitilde" format="2">
	<advance width="750"/>
	<unicode hex="007E"/>
	<note>
		asciitilde
  </note>
	<outline>
		<contour>
			<point x="751" y="369" type="line"/>
			<point x="631" y="369" type="line"/>
			<point x="631" y="352"/>
			<point x="623" y="285"/>
			<point x="592" y="264"/>
			<point x="553" y="254"/>
			<point x="535" y="254" type="qcurve" smooth="yes"/>
			<point x="501" y="254"/>
			<point x="425" y="270"/>
			<point x="347" y="290"/>
			<point x="272" y="307"/>
			<point x="240" y="305" type="qcurve" smooth="yes"/>
			<point x="179" y="302"/>
			<point x="78" y="260"/>
			<point x="12" y="167"/>
			<point x="2" y="89"/>
			<point x="2" y="89" type="qcurve" smooth="yes"/>
			<point x="102" y="89" type="line"/>
			<point x="103" y="118"/>
			<point x="142" y="164"/>
			<point x="178" y="179"/>
			<point x="217" y="188"/>
			<point x="236" y="188" type="qcurve" smooth="yes"/>
			<point x="269" y="188"/>
			<point x="346" y="173"/>
			<point x="423" y="153"/>
			<point x="497" y="138"/>
			<point x="530" y="138" type="qcurve" smooth="yes"/>
			<point x="551" y="138"/>
			<point x="591" y="145"/>
			<point x="651" y="158"/>
			<point x="746" y="228"/>
			<point x="748" y="279" type="qcurve"/>
		</contour>
	</outline>
</glyph>
<glyph name="exclamdown" format="2">
	<advance width="750"/>
	<unicode hex="00A1"/>
	<note>
		exclamdown
  </note>
	<outline>
		<contour>
			<point x="83" y="337" type="line"/>
			<point x="60" y="-69"/>
			<point x="52" y="-204" type="qcurve"/>
			<point x="165" y="-204"/>
			<point x="203" y="-204" type="qcurve"/>
			<point x="179" y="202"/>
			<point x="172" y="337" type="qcurve"/>
			<point x="105" y="337"/>
			<point x="83" y="337" type="qcurve"/>
		</contour>
		<contour>
			<point x="62" y="448" type="line"/>
			<point x="62" y="435"/>
			<point x="67" y="423" type="qcurve" smooth="yes"/>
			<point x="72" y="411"/>
			<point x="81" y="402" type="qcurve" smooth="yes"/>
			<point x="90" y="393"/>
			<point x="102" y="388" type="qcurve" smooth="yes"/>
			<point x="113" y="383"/>
			<point x="127" y="383" type="qcurve" smooth="yes"/>
			<point x="140" y="383"/>
			<point x="152" y="388" type="qcurve" smooth="yes"/>
			<point x="164" y="393"/>
			<point x="172" y="402" type="qcurve" smooth="yes"/>
			<point x="181" y="411"/>
			<point x="186" y="423" type="qcurve" smooth="yes"/>
			<point x="191" y="435"/>
			<point x="191" y="448" type="qcurve" smooth="yes"/>
			<point x="191" y="461"/>
			<point x="186" y="473" type="qcurve" smooth="yes"/>
			<point x="181" y="484"/>
			<point x="172" y="493" type="qcurve" smooth="yes"/>
			<point x="164" y="502"/>
			<point x="152" y="507" type="qcurve" smooth="yes"/>
			<point x="140" y="512"/>
			<point x="127" y="512" type="qcurve" smooth="yes"/>
			<point x="113" y="512"/>
			<point x="102" y="507" type="qcurve" smooth="yes"/>
			<point x="90" y="502"/>
			<point x="81" y="493" type="qcurve" smooth="yes"/>
			<point x="72" y="484"/>
			<point x="67" y="473" type="qcurve" smooth="yes"/>
			<point x="62" y="461"/>
			<point x="62" y="448" type="qcurve"/>
		</contour>
	</outline>
</glyph>
<glyph name="cent" format="2">
	<advance width="750"/>
	<unicode hex="00A2"/>
	<note>
		cent
  </note>
	<outline>
		<contour>
			<point x="465" y="124" type="line"/>
			<point x="465" y="211"/>
			<point x="465" y="240" type="qcurve"/>
			<point x="306" y="240"/>
			<point x="226" y="240" type="qcurve" smooth="yes"/>
			<point x="200" y="240"/>
			<point x="184" y="257" type="qcurve" smooth="yes"/>
			<point x="168" y="273"/>
			<point x="168" y="300" type="qcurve" smooth="yes"/>
			<point x="168" y="378"/>
			<point x="168" y="417" type="qcurve" smooth="yes"/>
			<point x="168" y="443"/>
			<point x="183" y="460" type="qcurve" smooth="yes"/>
			<point x="198" y="476"/>
			<point x="226" y="476" type="qcurve" smooth="yes"/>
			<point x="406" y="476"/>
			<point x="465" y="476" type="qcurve"/>
			<point x="465" y="564"/>
			<point x="465" y="593" type="qcurve"/>
			<point x="373" y="593"/>
			<point x="343" y="593" type="qcurve"/>
			<point x="343" y="686"/>
			<point x="343" y="717" type="qcurve"/>
			<point x="255" y="717"/>
			<point x="226" y="717" type="qcurve"/>
			<point x="226" y="634"/>
			<point x="226" y="593" type="qcurve"/>
			<point x="177" y="593"/>
			<point x="144" y="576" type="qcurve" smooth="yes"/>
			<point x="111" y="558"/>
			<point x="89" y="532" type="qcurve" smooth="yes"/>
			<point x="68" y="505"/>
			<point x="59" y="474" type="qcurve" smooth="yes"/>
			<point x="50" y="444"/>
			<point x="50" y="417" type="qcurve" smooth="yes"/>
			<point x="50" y="339"/>
			<point x="50" y="300" type="qcurve" smooth="yes"/>
			<point x="50" y="252"/>
			<point x="67" y="218" type="qcurve" smooth="yes"/>
			<point x="85" y="184"/>
			<point x="112" y="164" type="qcurve" smooth="yes"/>
			<point x="138" y="143"/>
			<point x="169" y="133" type="qcurve" smooth="yes"/>
			<point x="200" y="124"/>
			<point x="226" y="124" type="qcurve"/>
			<point x="226" y="31"/>
			<point x="226" y="0" type="qcurve"/>
			<point x="313" y="0"/>
			<point x="343" y="0" type="qcurve"/>
			<point x="343" y="93"/>
			<point x="343" y="124" type="qcurve"/>
			<point x="435" y="124"/>
			<point x="465" y="124" type="qcurve"/>
		</contour>
	</outline>
</glyph>
<glyph name="sterling" format="2">
	<advance width="750"/>
	<unicode hex="00A3"/>
	<note>
		sterling
  </note>
	<outline>
		<contour>
			<point x="504" y="298" type="line"/>
			<point x="504" y="385"/>
			<point x="504" y="415" type="qcurve"/>
			<point x="378" y="415"/>
			<point x="336" y="415" type="qcurve"/>
			<point x="336" y="495"/>
			<point x="336" y="536" type="qcurve" smooth="yes"/>
			<point x="336" y="558"/>
			<point x="350" y="573" type="qcurve" smooth="yes"/>
			<point x="364" y="587"/>
			<point x="388" y="587" type="qcurve" smooth="yes"/>
			<point x="568" y="587"/>
			<point x="628" y="587" type="qcurve"/>
			<point x="628" y="684"/>
			<point x="628" y="717" type="qcurve"/>
			<point x="468" y="717"/>
			<point x="388" y="717" type="qcurve" smooth="yes"/>
			<point x="337" y="717"/>
			<point x="303" y="699" type="qcurve" smooth="yes"/>
			<point x="268" y="681"/>
			<point x="247" y="653" type="qcurve" smooth="yes"/>
			<point x="225" y="627"/>
			<point x="216" y="595" type="qcurve" smooth="yes"/>
			<point x="207" y="563"/>
			<point x="207" y="536" type="qcurve" smooth="yes"/>
			<point x="207" y="445"/>
			<point x="207" y="415" type="qcurve"/>
			<point x="80" y="415"/>
			<point x="37" y="415" type="qcurve"/>
			<point x="37" y="327"/>
			<point x="37" y="298" type="qcurve"/>
			<point x="164" y="298"/>
			<point x="207" y="298" type="qcurve"/>
			<point x="207" y="142"/>
			<point x="207" y="64" type="qcurve" smooth="yes"/>
			<point x="207" y="51"/>
			<point x="212" y="39" type="qcurve" smooth="yes"/>
			<point x="216" y="28"/>
			<point x="225" y="19" type="qcurve" smooth="yes"/>
			<point x="234" y="10"/>
			<point x="246" y="5" type="qcurve" smooth="yes"/>
			<point x="257" y="0"/>
			<point x="271" y="0" type="qcurve" smooth="yes"/>
			<point x="448" y="0"/>
			<point x="585" y="0" type="qcurve" smooth="yes"/>
			<point x="612" y="0"/>
			<point x="644" y="10" type="qcurve" smooth="yes"/>
			<point x="676" y="20"/>
			<point x="702" y="40" type="qcurve" smooth="yes"/>
			<point x="730" y="62"/>
			<point x="748" y="97" type="qcurve" smooth="yes"/>
			<point x="766" y="131"/>
			<point x="766" y="181" type="qcurve" smooth="yes"/>
			<point x="766" y="231"/>
			<point x="766" y="247" type="qcurve"/>
			<point x="669" y="247"/>
			<point x="636" y="247" type="qcurve"/>
			<point x="636" y="203"/>
			<point x="636" y="181" type="qcurve" smooth="yes"/>
			<point x="636" y="156"/>
			<point x="623" y="143" type="qcurve" smooth="yes"/>
			<point x="610" y="130"/>
			<point x="584" y="130" type="qcurve" smooth="yes"/>
			<point x="326" y="130"/>
			<point x="336" y="130" type="qcurve"/>
			<point x="336" y="256"/>
			<point x="336" y="298" type="qcurve"/>
			<point x="462" y="298"/>
			<point x="504" y="298" type="qcurve"/>
		</contour>
	</outline>
</glyph>
<glyph name="currency" format="2">
	<advance width="750"/>
	<unicode hex="00A4"/>
	<note>
		currency
  </note>
	<outline>
		<contour>
			<point x="168" y="360" type="line"/>
			<point x="168" y="372"/>
			<point x="173" y="382" type="qcurve" smooth="yes"/>
			<point x="177" y="392"/>
			<point x="184" y="400" type="qcurve" smooth="yes"/>
			<point x="192" y="407"/>
			<point x="202" y="411" type="qcurve" smooth="yes"/>
			<point x="212" y="416"/>
			<point x="223" y="416" type="qcurve" smooth="yes"/>
			<point x="235" y="416"/>
			<point x="245" y="411" type="qcurve" smooth="yes"/>
			<point x="255" y="407"/>
			<point x="262" y="400" type="qcurve" smooth="yes"/>
			<point x="269" y="392"/>
			<point x="274" y="382" type="qcurve" smooth="yes"/>
			<point x="278" y="372"/>
			<point x="278" y="360" type="qcurve" smooth="yes"/>
			<point x="278" y="349"/>
			<point x="274" y="339" type="qcurve" smooth="yes"/>
			<point x="269" y="329"/>
			<point x="262" y="321" type="qcurve" smooth="yes"/>
			<point x="255" y="315"/>
			<point x="245" y="310" type="qcurve" smooth="yes"/>
			<point x="235" y="306"/>
			<point x="223" y="306" type="qcurve" smooth="yes"/>
			<point x="200" y="306"/>
			<point x="184" y="321" type="qcurve" smooth="yes"/>
			<point x="168" y="337"/>
			<point x="168" y="360" type="qcurve"/>
		</contour>
		<contour>
			<point x="413" y="471" type="line"/>
			<point x="356" y="526"/>
			<point x="337" y="545" type="qcurve"/>
			<point x="302" y="509"/>
			<point x="284" y="492" type="qcurve"/>
			<point x="271" y="499"/>
			<point x="255" y="502" type="qcurve" smooth="yes"/>
			<point x="239" y="506"/>
			<point x="223" y="506" type="qcurve" smooth="yes"/>
			<point x="207" y="506"/>
			<point x="192" y="502" type="qcurve" smooth="yes"/>
			<point x="177" y="499"/>
			<point x="164" y="492" type="qcurve"/>
			<point x="125" y="532"/>
			<point x="112" y="545" type="qcurve"/>
			<point x="55" y="493"/>
			<point x="36" y="476" type="qcurve"/>
			<point x="73" y="439"/>
			<point x="91" y="420" type="qcurve"/>
			<point x="84" y="406"/>
			<point x="82" y="391" type="qcurve" smooth="yes"/>
			<point x="79" y="376"/>
			<point x="79" y="360" type="qcurve" smooth="yes"/>
			<point x="79" y="344"/>
			<point x="82" y="329" type="qcurve" smooth="yes"/>
			<point x="85" y="314"/>
			<point x="92" y="300" type="qcurve"/>
			<point x="51" y="260"/>
			<point x="37" y="247" type="qcurve"/>
			<point x="94" y="191"/>
			<point x="112" y="172" type="qcurve"/>
			<point x="149" y="208"/>
			<point x="167" y="227" type="qcurve"/>
			<point x="180" y="221"/>
			<point x="194" y="218" type="qcurve" smooth="yes"/>
			<point x="208" y="216"/>
			<point x="223" y="216" type="qcurve" smooth="yes"/>
			<point x="255" y="216"/>
			<point x="281" y="228" type="qcurve"/>
			<point x="323" y="186"/>
			<point x="337" y="172" type="qcurve"/>
			<point x="394" y="226"/>
			<point x="413" y="244" type="qcurve"/>
			<point x="375" y="282"/>
			<point x="355" y="301" type="qcurve"/>
			<point x="361" y="315"/>
			<point x="365" y="330" type="qcurve" smooth="yes"/>
			<point x="368" y="344"/>
			<point x="368" y="360" type="qcurve" smooth="yes"/>
			<point x="368" y="375"/>
			<point x="366" y="389" type="qcurve" smooth="yes"/>
			<point x="363" y="403"/>
			<point x="357" y="416" type="qcurve"/>
			<point x="399" y="457"/>
			<point x="413" y="471" type="qcurve"/>
		</contour>
	</outline>
</glyph>
<glyph name="yen" format="2">
	<advance width="750"/>
	<unicode hex="00A5"/>
	<note>
		yen
  </note>
	<outline>
		<contour>
			<point x="646" y="64" type="line"/>
			<point x="646" y="152"/>
			<point x="646" y="181" type="qcurve"/>
			<point x="520" y="181"/>
			<point x="478" y="181" type="qcurve"/>
			<point x="478" y="220"/>
			<point x="478" y="233" type="qcurve"/>
			<point x="512" y="233"/>
			<point x="529" y="233" type="qcurve" smooth="yes"/>
			<point x="553" y="233"/>
			<point x="580" y="239" type="qcurve" smooth="yes"/>
			<point x="608" y="244"/>
			<point x="634" y="256" type="qcurve" smooth="yes"/>
			<point x="660" y="268"/>
			<point x="685" y="287" type="qcurve" smooth="yes"/>
			<point x="709" y="306"/>
			<point x="728" y="332" type="qcurve" smooth="yes"/>
			<point x="747" y="360"/>
			<point x="758" y="394" type="qcurve" smooth="yes"/>
			<point x="768" y="429"/>
			<point x="768" y="473" type="qcurve" smooth="yes"/>
			<point x="768" y="656"/>
			<point x="768" y="717" type="qcurve"/>
			<point x="672" y="717"/>
			<point x="640" y="717" type="qcurve"/>
			<point x="640" y="554"/>
			<point x="640" y="473" type="qcurve" smooth="yes"/>
			<point x="640" y="448"/>
			<point x="632" y="429" type="qcurve" smooth="yes"/>
			<point x="624" y="409"/>
			<point x="608" y="395" type="qcurve" smooth="yes"/>
			<point x="594" y="380"/>
			<point x="574" y="372" type="qcurve" smooth="yes"/>
			<point x="553" y="364"/>
			<point x="529" y="364" type="qcurve" smooth="yes"/>
			<point x="374" y="364"/>
			<point x="296" y="364" type="qcurve" smooth="yes"/>
			<point x="273" y="364"/>
			<point x="253" y="371" type="qcurve" smooth="yes"/>
			<point x="232" y="379"/>
			<point x="217" y="392" type="qcurve" smooth="yes"/>
			<point x="203" y="407"/>
			<point x="194" y="427" type="qcurve" smooth="yes"/>
			<point x="186" y="448"/>
			<point x="186" y="473" type="qcurve" smooth="yes"/>
			<point x="186" y="656"/>
			<point x="186" y="717" type="qcurve"/>
			<point x="88" y="717"/>
			<point x="56" y="717" type="qcurve"/>
			<point x="56" y="554"/>
			<point x="56" y="473" type="qcurve" smooth="yes"/>
			<point x="56" y="429"/>
			<point x="67" y="394" type="qcurve" smooth="yes"/>
			<point x="78" y="360"/>
			<point x="96" y="332" type="qcurve" smooth="yes"/>
			<point x="116" y="306"/>
			<point x="140" y="287" type="qcurve" smooth="yes"/>
			<point x="164" y="268"/>
			<point x="191" y="256" type="qcurve" smooth="yes"/>
			<point x="217" y="244"/>
			<point x="244" y="239" type="qcurve" smooth="yes"/>
			<point x="272" y="233"/>
			<point x="296" y="233" type="qcurve" smooth="yes"/>
			<point x="335" y="233"/>
			<point x="348" y="233" type="qcurve"/>
			<point x="348" y="194"/>
			<point x="348" y="181" type="qcurve"/>
			<point x="221" y="181"/>
			<point x="179" y="181" type="qcurve"/>
			<point x="179" y="94"/>
			<point x="179" y="64" type="qcurve"/>
			<point x="306" y="64"/>
			<point x="348" y="64" type="qcurve"/>
			<point x="348" y="16"/>
			<point x="348" y="0" type="qcurve"/>
			<point x="446" y="0"/>
			<point x="478" y="0" type="qcurve"/>
			<point x="478" y="48"/>
			<point x="478" y="64" type="qcurve"/>
			<point x="604" y="64"/>
			<point x="646" y="64" type="qcurve"/>
		</contour>
	</outline>
</glyph>
<glyph name="brokenbar" format="2">
	<advance width="750"/>
	<unicode hex="00A6"/>
	<note>
		brokenbar
  </note>
	<outline>
		<contour>
			<point x="200" y="411" type="line"/>
			<point x="200" y="729"/>
			<point x="200" y="835" type="qcurve"/>
			<point x="102" y="835"/>
			<point x="69" y="835" type="qcurve"/>
			<point x="69" y="517"/>
			<point x="69" y="411" type="qcurve"/>
			<point x="167" y="411"/>
			<point x="200" y="411" type="qcurve"/>
		</contour>
		<contour>
			<point x="200" y="-118" type="line"/>
			<point x="200" y="200"/>
			<point x="200" y="306" type="qcurve"/>
			<point x="102" y="306"/>
			<point x="69" y="306" type="qcurve"/>
			<point x="69" y="-12"/>
			<point x="69" y="-118" type="qcurve"/>
			<point x="167" y="-118"/>
			<point x="200" y="-118" type="qcurve"/>
		</contour>
	</outline>
</glyph>
<glyph name="section" format="2">
	<advance width="750"/>
	<unicode hex="00A7"/>
	<note>
		section
  </note>
	<outline>
		<contour>
			<point x="742" y="93" type="line"/>
			<point x="742" y="129"/>
			<point x="733" y="158" type="qcurve" smooth="yes"/>
			<point x="724" y="187"/>
			<point x="710" y="210" type="qcurve"/>
			<point x="723" y="232"/>
			<point x="732" y="260" type="qcurve" smooth="yes"/>
			<point x="741" y="289"/>
			<point x="742" y="328" type="qcurve" smooth="yes"/>
			<point x="743" y="366"/>
			<point x="732" y="397" type="qcurve" smooth="yes"/>
			<point x="721" y="427"/>
			<point x="706" y="452" type="qcurve" smooth="yes"/>
			<point x="692" y="476"/>
			<point x="670" y="492" type="qcurve" smooth="yes"/>
			<point x="649" y="508"/>
			<point x="625" y="519" type="qcurve" smooth="yes"/>
			<point x="602" y="530"/>
			<point x="578" y="535" type="qcurve" smooth="yes"/>
			<point x="555" y="540"/>
			<point x="534" y="540" type="qcurve" smooth="yes"/>
			<point x="334" y="540"/>
			<point x="268" y="540" type="qcurve" smooth="yes"/>
			<point x="251" y="540"/>
			<point x="236" y="546" type="qcurve" smooth="yes"/>
			<point x="221" y="552"/>
			<point x="211" y="564" type="qcurve" smooth="yes"/>
			<point x="200" y="575"/>
			<point x="195" y="590" type="qcurve" smooth="yes"/>
			<point x="189" y="604"/>
			<point x="189" y="623" type="qcurve" smooth="yes"/>
			<point x="189" y="640"/>
			<point x="194" y="654" type="qcurve" smooth="yes"/>
			<point x="200" y="669"/>
			<point x="210" y="680" type="qcurve" smooth="yes"/>
			<point x="220" y="691"/>
			<point x="235" y="697" type="qcurve" smooth="yes"/>
			<point x="249" y="704"/>
			<point x="268" y="704" type="qcurve" smooth="yes"/>
			<point x="566" y="704"/>
			<point x="677" y="704" type="qcurve"/>
			<point x="677" y="802"/>
			<point x="677" y="835" type="qcurve"/>
			<point x="382" y="835"/>
			<point x="268" y="835" type="qcurve" smooth="yes"/>
			<point x="247" y="835"/>
			<point x="223" y="830" type="qcurve" smooth="yes"/>
			<point x="200" y="824"/>
			<point x="176" y="813" type="qcurve" smooth="yes"/>
			<point x="153" y="803"/>
			<point x="132" y="786" type="qcurve" smooth="yes"/>
			<point x="111" y="769"/>
			<point x="95" y="746" type="qcurve" smooth="yes"/>
			<point x="79" y="723"/>
			<point x="69" y="692" type="qcurve" smooth="yes"/>
			<point x="59" y="661"/>
			<point x="59" y="623" type="qcurve" smooth="yes"/>
			<point x="59" y="587"/>
			<point x="68" y="557" type="qcurve" smooth="yes"/>
			<point x="76" y="528"/>
			<point x="90" y="505" type="qcurve"/>
			<point x="77" y="484"/>
			<point x="68" y="456" type="qcurve" smooth="yes"/>
			<point x="59" y="427"/>
			<point x="59" y="388" type="qcurve" smooth="yes"/>
			<point x="59" y="349"/>
			<point x="69" y="318" type="qcurve" smooth="yes"/>
			<point x="79" y="288"/>
			<point x="95" y="264" type="qcurve" smooth="yes"/>
			<point x="111" y="240"/>
			<point x="132" y="224" type="qcurve" smooth="yes"/>
			<point x="153" y="207"/>
			<point x="176" y="196" type="qcurve" smooth="yes"/>
			<point x="200" y="186"/>
			<point x="223" y="181" type="qcurve" smooth="yes"/>
			<point x="247" y="176"/>
			<point x="268" y="176" type="qcurve" smooth="yes"/>
			<point x="433" y="176"/>
			<point x="533" y="176" type="qcurve" smooth="yes"/>
			<point x="550" y="176"/>
			<point x="564" y="170" type="qcurve" smooth="yes"/>
			<point x="579" y="164"/>
			<point x="590" y="152" type="qcurve" smooth="yes"/>
			<point x="600" y="141"/>
			<point x="606" y="126" type="qcurve" smooth="yes"/>
			<point x="612" y="111"/>
			<point x="612" y="93" type="qcurve" smooth="yes"/>
			<point x="612" y="76"/>
			<point x="607" y="62" type="qcurve" smooth="yes"/>
			<point x="602" y="47"/>
			<point x="590" y="36" type="qcurve" smooth="yes"/>
			<point x="579" y="26"/>
			<point x="566" y="19" type="qcurve" smooth="yes"/>
			<point x="552" y="13"/>
			<point x="533" y="13" type="qcurve" smooth="yes"/>
			<point x="173" y="11"/>
			<point x="65" y="13" type="qcurve"/>
			<point x="65" y="-85"/>
			<point x="65" y="-118" type="qcurve"/>
			<point x="366" y="-118"/>
			<point x="533" y="-118" type="qcurve" smooth="yes"/>
			<point x="554" y="-118"/>
			<point x="578" y="-113" type="qcurve" smooth="yes"/>
			<point x="602" y="-108"/>
			<point x="625" y="-97" type="qcurve" smooth="yes"/>
			<point x="647" y="-87"/>
			<point x="669" y="-71" type="qcurve" smooth="yes"/>
			<point x="691" y="-55"/>
			<point x="706" y="-31" type="qcurve" smooth="yes"/>
			<point x="721" y="-7"/>
			<point x="732" y="24" type="qcurve" smooth="yes"/>
			<point x="743" y="55"/>
			<point x="742" y="93" type="qcurve"/>
		</contour>
		<contour>
			<point x="268" y="411" type="line"/>
			<point x="433" y="411"/>
			<point x="533" y="411" type="qcurve" smooth="yes"/>
			<point x="550" y="411"/>
			<point x="564" y="404" type="qcurve" smooth="yes"/>
			<point x="578" y="398"/>
			<point x="590" y="387" type="qcurve" smooth="yes"/>
			<point x="601" y="377"/>
			<point x="606" y="361" type="qcurve" smooth="yes"/>
			<point x="611" y="345"/>
			<point x="612" y="328" type="qcurve" smooth="yes"/>
			<point x="613" y="316"/>
			<point x="611" y="308" type="qcurve" smooth="yes"/>
			<point x="609" y="299"/>
			<point x="606" y="292" type="qcurve"/>
			<point x="587" y="299"/>
			<point x="569" y="302" type="qcurve" smooth="yes"/>
			<point x="551" y="305"/>
			<point x="534" y="306" type="qcurve" smooth="yes"/>
			<point x="334" y="318"/>
			<point x="268" y="306" type="qcurve" smooth="yes"/>
			<point x="251" y="306"/>
			<point x="236" y="312" type="qcurve" smooth="yes"/>
			<point x="221" y="318"/>
			<point x="211" y="328" type="qcurve" smooth="yes"/>
			<point x="200" y="340"/>
			<point x="195" y="354" type="qcurve" smooth="yes"/>
			<point x="189" y="369"/>
			<point x="189" y="388" type="qcurve" smooth="yes"/>
			<point x="189" y="400"/>
			<point x="190" y="408" type="qcurve" smooth="yes"/>
			<point x="192" y="417"/>
			<point x="194" y="424" type="qcurve"/>
			<point x="213" y="417"/>
			<point x="232" y="414" type="qcurve" smooth="yes"/>
			<point x="251" y="411"/>
			<point x="268" y="411" type="qcurve"/>
		</contour>
	</outline>
</glyph>
<glyph name="dieresis" format="2">
	<advance width="750"/>
	<unicode hex="00A8"/>
	<note>
		dieresis
  </note>
	<outline>
		<contour>
			<point x="234" y="657" type="line"/>
			<point x="234" y="671"/>
			<point x="229" y="682" type="qcurve" smooth="yes"/>
			<point x="224" y="694"/>
			<point x="215" y="703" type="qcurve" smooth="yes"/>
			<point x="206" y="712"/>
			<point x="194" y="717" type="qcurve" smooth="yes"/>
			<point x="183" y="722"/>
			<point x="169" y="722" type="qcurve" smooth="yes"/>
			<point x="156" y="722"/>
			<point x="144" y="717" type="qcurve" smooth="yes"/>
			<point x="132" y="712"/>
			<point x="124" y="703" type="qcurve" smooth="yes"/>
			<point x="115" y="694"/>
			<point x="110" y="682" type="qcurve" smooth="yes"/>
			<point x="105" y="671"/>
			<point x="105" y="657" type="qcurve" smooth="yes"/>
			<point x="105" y="644"/>
			<point x="110" y="632" type="qcurve" smooth="yes"/>
			<point x="115" y="620"/>
			<point x="124" y="612" type="qcurve" smooth="yes"/>
			<point x="132" y="603"/>
			<point x="144" y="598" type="qcurve" smooth="yes"/>
			<point x="156" y="593"/>
			<point x="169" y="593" type="qcurve" smooth="yes"/>
			<point x="183" y="593"/>
			<point x="194" y="598" type="qcurve" smooth="yes"/>
			<point x="206" y="603"/>
			<point x="215" y="612" type="qcurve" smooth="yes"/>
			<point x="224" y="620"/>
			<point x="229" y="632" type="qcurve" smooth="yes"/>
			<point x="234" y="644"/>
			<point x="234" y="657" type="qcurve"/>
		</contour>
		<contour>
			<point x="465" y="657" type="line"/>
			<point x="465" y="671"/>
			<point x="460" y="682" type="qcurve" smooth="yes"/>
			<point x="455" y="694"/>
			<point x="446" y="703" type="qcurve" smooth="yes"/>
			<point x="437" y="712"/>
			<point x="426" y="717" type="qcurve" smooth="yes"/>
			<point x="414" y="722"/>
			<point x="401" y="722" type="qcurve" smooth="yes"/>
			<point x="388" y="722"/>
			<point x="376" y="717" type="qcurve" smooth="yes"/>
			<point x="364" y="712"/>
			<point x="355" y="703" type="qcurve" smooth="yes"/>
			<point x="347" y="694"/>
			<point x="342" y="682" type="qcurve" smooth="yes"/>
			<point x="336" y="671"/>
			<point x="336" y="657" type="qcurve" smooth="yes"/>
			<point x="336" y="644"/>
			<point x="342" y="632" type="qcurve" smooth="yes"/>
			<point x="347" y="620"/>
			<point x="355" y="612" type="qcurve" smooth="yes"/>
			<point x="364" y="603"/>
			<point x="376" y="598" type="qcurve" smooth="yes"/>
			<point x="388" y="593"/>
			<point x="401" y="593" type="qcurve" smooth="yes"/>
			<point x="414" y="593"/>
			<point x="426" y="598" type="qcurve" smooth="yes"/>
			<point x="437" y="603"/>
			<point x="446" y="612" type="qcurve" smooth="yes"/>
			<point x="455" y="620"/>
			<point x="460" y="632" type="qcurve" smooth="yes"/>
			<point x="465" y="644"/>
			<point x="465" y="657" type="qcurve"/>
		</contour>
	</outline>
</glyph>
<glyph name="copyright" format="2">
	<advance width="750"/>
	<unicode hex="00A9"/>
	<note>
		copyright
  </note>
	<outline>
		<contour>
			<point x="656" y="312" type="line"/>
			<point x="656" y="374"/>
			<point x="656" y="405" type="qcurve" smooth="yes"/>
			<point x="656" y="450"/>
			<point x="645" y="484" type="qcurve" smooth="yes"/>
			<point x="633" y="519"/>
			<point x="615" y="544" type="qcurve" smooth="yes"/>
			<point x="596" y="569"/>
			<point x="572" y="586" type="qcurve" smooth="yes"/>
			<point x="548" y="603"/>
			<point x="523" y="613" type="qcurve" smooth="yes"/>
			<point x="498" y="624"/>
			<point x="473" y="628" type="qcurve" smooth="yes"/>
			<point x="449" y="632"/>
			<point x="429" y="632" type="qcurve" smooth="yes"/>
			<point x="335" y="632"/>
			<point x="288" y="632" type="qcurve" smooth="yes"/>
			<point x="269" y="632"/>
			<point x="245" y="628" type="qcurve" smooth="yes"/>
			<point x="220" y="624"/>
			<point x="195" y="613" type="qcurve" smooth="yes"/>
			<point x="170" y="603"/>
			<point x="146" y="586" type="qcurve" smooth="yes"/>
			<point x="122" y="569"/>
			<point x="103" y="544" type="qcurve" smooth="yes"/>
			<point x="84" y="519"/>
			<point x="73" y="484" type="qcurve" smooth="yes"/>
			<point x="62" y="450"/>
			<point x="62" y="405" type="qcurve" smooth="yes"/>
			<point x="62" y="343"/>
			<point x="62" y="312" type="qcurve" smooth="yes"/>
			<point x="62" y="267"/>
			<point x="73" y="232" type="qcurve" smooth="yes"/>
			<point x="84" y="198"/>
			<point x="103" y="173" type="qcurve" smooth="yes"/>
			<point x="122" y="148"/>
			<point x="146" y="131" type="qcurve" smooth="yes"/>
			<point x="170" y="114"/>
			<point x="195" y="104" type="qcurve" smooth="yes"/>
			<point x="220" y="93"/>
			<point x="245" y="89" type="qcurve" smooth="yes"/>
			<point x="269" y="85"/>
			<point x="288" y="85" type="qcurve" smooth="yes"/>
			<point x="382" y="85"/>
			<point x="429" y="85" type="qcurve" smooth="yes"/>
			<point x="449" y="85"/>
			<point x="473" y="89" type="qcurve" smooth="yes"/>
			<point x="498" y="93"/>
			<point x="523" y="104" type="qcurve" smooth="yes"/>
			<point x="548" y="114"/>
			<point x="572" y="131" type="qcurve" smooth="yes"/>
			<point x="596" y="148"/>
			<point x="615" y="173" type="qcurve" smooth="yes"/>
			<point x="633" y="198"/>
			<point x="645" y="232" type="qcurve" smooth="yes"/>
			<point x="656" y="267"/>
			<point x="656" y="312" type="qcurve"/>
		</contour>
		<contour>
			<point x="578" y="312" type="line"/>
			<point x="578" y="276"/>
			<point x="568" y="251" type="qcurve" smooth="yes"/>
			<point x="558" y="226"/>
			<point x="543" y="209" type="qcurve" smooth="yes"/>
			<point x="528" y="193"/>
			<point x="510" y="184" type="qcurve" smooth="yes"/>
			<point x="492" y="175"/>
			<point x="475" y="169" type="qcurve" smooth="yes"/>
			<point x="459" y="165"/>
			<point x="446" y="164" type="qcurve" smooth="yes"/>
			<point x="433" y="163"/>
			<point x="429" y="163" type="qcurve" smooth="yes"/>
			<point x="336" y="163"/>
			<point x="289" y="163" type="qcurve" smooth="yes"/>
			<point x="285" y="163"/>
			<point x="273" y="164" type="qcurve" smooth="yes"/>
			<point x="260" y="165"/>
			<point x="244" y="169" type="qcurve" smooth="yes"/>
			<point x="227" y="174"/>
			<point x="209" y="183" type="qcurve" smooth="yes"/>
			<point x="191" y="192"/>
			<point x="175" y="209" type="qcurve" smooth="yes"/>
			<point x="160" y="225"/>
			<point x="150" y="250" type="qcurve" smooth="yes"/>
			<point x="140" y="276"/>
			<point x="140" y="312" type="qcurve" smooth="yes"/>
			<point x="140" y="374"/>
			<point x="140" y="405" type="qcurve" smooth="yes"/>
			<point x="140" y="441"/>
			<point x="150" y="466" type="qcurve" smooth="yes"/>
			<point x="160" y="492"/>
			<point x="175" y="508" type="qcurve" smooth="yes"/>
			<point x="191" y="524"/>
			<point x="209" y="534" type="qcurve" smooth="yes"/>
			<point x="227" y="543"/>
			<point x="244" y="548" type="qcurve" smooth="yes"/>
			<point x="260" y="552"/>
			<point x="272" y="553" type="qcurve" smooth="yes"/>
			<point x="285" y="554"/>
			<point x="288" y="554" type="qcurve" smooth="yes"/>
			<point x="382" y="554"/>
			<point x="429" y="554" type="qcurve" smooth="yes"/>
			<point x="440" y="553"/>
			<point x="453" y="551" type="qcurve" smooth="yes"/>
			<point x="464" y="549"/>
			<point x="478" y="545" type="qcurve" smooth="yes"/>
			<point x="492" y="541"/>
			<point x="505" y="535" type="qcurve" smooth="yes"/>
			<point x="578" y="498"/>
			<point x="578" y="405" type="qcurve" smooth="yes"/>
			<point x="578" y="335"/>
			<point x="578" y="312" type="qcurve"/>
		</contour>
		<contour>
			<point x="482" y="205" type="line"/>
			<point x="482" y="263"/>
			<point x="482" y="283" type="qcurve"/>
			<point x="357" y="283"/>
			<point x="295" y="283" type="qcurve" smooth="yes"/>
			<point x="293" y="283"/>
			<point x="291" y="283" type="qcurve"/>
			<point x="288" y="284"/>
			<point x="288" y="285" type="qcurve"/>
			<point x="287" y="285"/>
			<point x="287" y="287" type="qcurve" smooth="yes"/>
			<point x="287" y="288"/>
			<point x="287" y="291" type="qcurve" smooth="yes"/>
			<point x="287" y="384"/>
			<point x="287" y="431" type="qcurve" smooth="yes"/>
			<point x="287" y="432"/>
			<point x="287" y="435" type="qcurve"/>
			<point x="288" y="437"/>
			<point x="288" y="439" type="qcurve"/>
			<point x="289" y="439"/>
			<point x="290" y="439" type="qcurve" smooth="yes"/>
			<point x="291" y="439"/>
			<point x="292" y="439" type="qcurve"/>
			<point x="293" y="440"/>
			<point x="295" y="440" type="qcurve" smooth="yes"/>
			<point x="435" y="440"/>
			<point x="482" y="440" type="qcurve"/>
			<point x="482" y="498"/>
			<point x="482" y="517" type="qcurve"/>
			<point x="357" y="517"/>
			<point x="295" y="517" type="qcurve" smooth="yes"/>
			<point x="271" y="517"/>
			<point x="254" y="508" type="qcurve" smooth="yes"/>
			<point x="238" y="500"/>
			<point x="228" y="487" type="qcurve" smooth="yes"/>
			<point x="217" y="474"/>
			<point x="213" y="459" type="qcurve" smooth="yes"/>
			<point x="208" y="444"/>
			<point x="208" y="431" type="qcurve" smooth="yes"/>
			<point x="208" y="338"/>
			<point x="208" y="291" type="qcurve" smooth="yes"/>
			<point x="208" y="268"/>
			<point x="217" y="251" type="qcurve" smooth="yes"/>
			<point x="226" y="235"/>
			<point x="239" y="224" type="qcurve" smooth="yes"/>
			<point x="252" y="215"/>
			<point x="267" y="210" type="qcurve" smooth="yes"/>
			<point x="282" y="205"/>
			<point x="295" y="205" type="qcurve" smooth="yes"/>
			<point x="435" y="205"/>
			<point x="482" y="205" type="qcurve"/>
		</contour>
	</outline>
</glyph>
<glyph name="ordfeminine" format="2">
	<advance width="750"/>
	<unicode hex="00AA"/>
	<note>
		ordfeminine
  </note>
	<outline>
		<contour>
			<point x="557" y="413" type="line"/>
			<point x="557" y="514"/>
			<point x="557" y="564" type="qcurve" smooth="yes"/>
			<point x="557" y="606"/>
			<point x="542" y="635" type="qcurve" smooth="yes"/>
			<point x="527" y="664"/>
			<point x="504" y="683" type="qcurve" smooth="yes"/>
			<point x="481" y="700"/>
			<point x="454" y="709" type="qcurve" smooth="yes"/>
			<point x="427" y="717"/>
			<point x="404" y="717" type="qcurve" smooth="yes"/>
			<point x="215" y="717"/>
			<point x="152" y="717" type="qcurve"/>
			<point x="152" y="639"/>
			<point x="152" y="612" type="qcurve"/>
			<point x="320" y="612"/>
			<point x="404" y="612" type="qcurve" smooth="yes"/>
			<point x="425" y="612"/>
			<point x="439" y="600" type="qcurve" smooth="yes"/>
			<point x="453" y="588"/>
			<point x="453" y="564" type="qcurve" smooth="yes"/>
			<point x="453" y="464"/>
			<point x="453" y="413" type="qcurve" smooth="yes"/>
			<point x="453" y="405"/>
			<point x="451" y="396" type="qcurve" smooth="yes"/>
			<point x="449" y="388"/>
			<point x="443" y="380" type="qcurve" smooth="yes"/>
			<point x="437" y="373"/>
			<point x="428" y="369" type="qcurve" smooth="yes"/>
			<point x="419" y="364"/>
			<point x="404" y="364" type="qcurve" smooth="yes"/>
			<point x="270" y="364"/>
			<point x="204" y="364" type="qcurve" smooth="yes"/>
			<point x="183" y="364"/>
			<point x="169" y="377" type="qcurve" smooth="yes"/>
			<point x="156" y="390"/>
			<point x="156" y="412" type="qcurve" smooth="yes"/>
			<point x="156" y="421"/>
			<point x="158" y="430" type="qcurve" smooth="yes"/>
			<point x="160" y="439"/>
			<point x="164" y="445" type="qcurve" smooth="yes"/>
			<point x="170" y="453"/>
			<point x="179" y="458" type="qcurve" smooth="yes"/>
			<point x="189" y="462"/>
			<point x="204" y="462" type="qcurve" smooth="yes"/>
			<point x="354" y="462"/>
			<point x="404" y="462" type="qcurve"/>
			<point x="404" y="540"/>
			<point x="404" y="567" type="qcurve"/>
			<point x="270" y="567"/>
			<point x="204" y="567" type="qcurve" smooth="yes"/>
			<point x="161" y="567"/>
			<point x="132" y="551" type="qcurve" smooth="yes"/>
			<point x="104" y="536"/>
			<point x="85" y="513" type="qcurve" smooth="yes"/>
			<point x="68" y="490"/>
			<point x="59" y="463" type="qcurve" smooth="yes"/>
			<point x="51" y="436"/>
			<point x="51" y="413" type="qcurve" smooth="yes"/>
			<point x="51" y="372"/>
			<point x="66" y="342" type="qcurve" smooth="yes"/>
			<point x="81" y="313"/>
			<point x="104" y="295" type="qcurve" smooth="yes"/>
			<point x="127" y="277"/>
			<point x="154" y="269" type="qcurve" smooth="yes"/>
			<point x="180" y="261"/>
			<point x="204" y="261" type="qcurve" smooth="yes"/>
			<point x="337" y="261"/>
			<point x="404" y="261" type="qcurve" smooth="yes"/>
			<point x="432" y="261"/>
			<point x="455" y="268" type="qcurve" smooth="yes"/>
			<point x="477" y="275"/>
			<point x="494" y="287" type="qcurve" smooth="yes"/>
			<point x="511" y="299"/>
			<point x="523" y="314" type="qcurve" smooth="yes"/>
			<point x="535" y="330"/>
			<point x="543" y="347" type="qcurve" smooth="yes"/>
			<point x="551" y="364"/>
			<point x="554" y="381" type="qcurve" smooth="yes"/>
			<point x="557" y="398"/>
			<point x="557" y="413" type="qcurve"/>
		</contour>
	</outline>
</glyph>
